<svg width="1384" height="1055" viewBox="0 0 1384 1055" fill="none" xmlns="http://www.w3.org/2000/svg">
<path d="M-227.436 685.147C37.9925 402.661 287.835 315.463 749.493 633.512C876.551 721.037 1044.31 720.546 1185.1 654.194C1309.15 595.727 1737.13 293.096 1945.59 535.13" stroke="#55B282" stroke-width="3" stroke-miterlimit="10"/>
<path d="M-115.039 358.863C154.449 649.406 416.122 743.437 921.04 436.135C1060 351.563 1238.29 356.422 1384.97 426.722C1514.21 488.666 1955.59 803.645 2187.99 566.079" stroke="#053256" stroke-width="3" stroke-miterlimit="10"/>
<path d="M-315.133 239.622C-63.1314 545.446 192.579 654.664 714.632 377.477C858.307 301.191 1036.02 316.495 1178.33 395.269C1303.72 464.677 1725.88 804.982 1971.8 581.43" stroke="#94ACBC" stroke-miterlimit="10"/>
<path d="M1968.75 545.352C1722.64 777.144 1316.21 469.536 1179.29 402.733C1035.57 332.62 860.981 314.805 715.381 387.922C610.318 440.665 515.489 481.483 427.631 509.439C109.812 610.559 -110.384 524.039 -315.158 282.342" stroke="#94ACBC" stroke-width="0.9318" stroke-miterlimit="10"/>
<path d="M1965.7 509.275C1719.4 749.305 1329.14 474.09 1180.28 410.221C1035.64 348.159 863.73 328.513 716.134 398.367C612.432 447.448 518.073 488.478 428.853 518.453C130.987 618.493 -106.251 564.928 -315.133 325.062" stroke="#94ACBC" stroke-width="0.8636" stroke-miterlimit="10"/>
<path d="M1962.64 473.221C1716.14 721.49 1342.38 478.338 1181.27 417.708C1036.14 363.111 866.546 342.291 716.885 408.836C614.592 454.302 520.655 495.426 430.074 527.49C152.042 625.887 -102.143 605.841 -315.133 367.782" stroke="#94ACBC" stroke-width="0.7955" stroke-miterlimit="10"/>
<path d="M1959.59 437.144C1712.9 693.652 1355.88 482.117 1182.25 425.196C1036.89 377.547 869.41 356.163 717.66 419.281C616.822 461.227 523.26 502.257 431.295 536.503C172.956 632.741 -98.0116 646.754 -315.133 410.502" stroke="#94ACBC" stroke-width="0.7273" stroke-miterlimit="10"/>
<path d="M1956.54 401.09C1709.66 665.837 1369.59 485.427 1183.21 432.684C1037.8 391.536 872.321 370.106 718.388 429.75C619.052 468.221 525.772 508.993 432.492 545.563C193.682 639.149 -93.9039 687.69 -315.133 453.246" stroke="#94ACBC" stroke-width="0.6591" stroke-miterlimit="10"/>
<path d="M1953.49 365.012C1706.42 637.998 1383.44 488.22 1184.2 440.172C1038.83 405.104 875.278 384.19 719.162 440.195C621.352 475.287 528.307 515.565 433.712 554.577C214.267 645.064 -89.7962 728.579 -315.133 495.966" stroke="#94ACBC" stroke-width="0.5909" stroke-miterlimit="10"/>
<path d="M1950.44 328.935C1703.18 610.16 1397.35 490.45 1185.19 447.636C1039.91 418.319 878.283 398.344 719.913 450.64C623.652 482.422 530.724 521.997 434.933 563.59C234.712 650.556 -85.6651 769.492 -315.133 538.663" stroke="#94ACBC" stroke-width="0.5227" stroke-miterlimit="10"/>
<path d="M1947.39 292.881C1699.91 582.345 1411.32 492.14 1186.17 455.147C1041.02 431.299 881.332 412.685 720.662 461.109C625.974 489.652 533.07 528.217 436.128 572.651C254.943 655.72 -81.5828 810.428 -315.158 581.43" stroke="#94ACBC" stroke-width="0.4545" stroke-miterlimit="10"/>
<path d="M1944.33 256.804C1696.67 554.506 1425.29 493.22 1187.16 462.611C1042.05 443.951 884.407 427.144 721.437 471.554C628.321 496.928 535.276 534.132 437.372 581.664C275.012 660.462 -77.4282 851.317 -315.111 624.149" stroke="#94ACBC" stroke-width="0.3864" stroke-miterlimit="10"/>
<path d="M1941.28 220.75C1693.44 526.691 1439.18 493.759 1188.12 470.099C1043.01 456.438 887.46 441.768 722.167 482C630.647 504.275 537.25 539.719 438.571 590.678C294.825 664.898 -73.3185 892.206 -315.133 666.846" stroke="#94ACBC" stroke-width="0.3182" stroke-miterlimit="10"/>
<path d="M1938.23 184.673C1480.45 764.515 1059.58 256.64 439.792 599.715C314.401 669.123 -69.2108 933.142 -315.133 709.59" stroke="#94ACBC" stroke-width="0.25" stroke-miterlimit="10"/>
<path d="M-605 726.936C-337.554 434.515 -76.5389 338.629 430.515 642.388C570.06 725.974 748.31 719.871 894.521 648.538C1023.31 585.702 1788.52 226.783 2022.57 462.729" stroke="#94ACBC" stroke-miterlimit="10"/>
<path d="M2018.51 497.116C1780.24 250.349 1047.85 579.669 895.837 643.468C747.232 705.834 572.267 715.857 431.573 637.06C328.528 579.317 235.342 534.602 149.315 502.703C-163.292 386.842 -388.582 462.917 -604.459 694.802" stroke="#94ACBC" stroke-width="0.9318" stroke-miterlimit="10"/>
<path d="M2014.45 531.48C1771.97 273.869 1073.03 574.13 897.152 638.35C746.998 693.159 574.498 705.67 432.63 631.684C330.055 578.19 236.892 534.156 149.997 500.778C-143.316 388.11 -384.989 431.628 -603.871 662.692" stroke="#94ACBC" stroke-width="0.8636" stroke-miterlimit="10"/>
<path d="M2010.38 565.844C1763.71 297.412 1098.66 569.294 898.46 633.234C747.297 681.517 576.769 695.436 433.68 626.286C331.621 576.97 238.435 533.733 150.648 498.806C-123.512 389.729 -381.475 400.315 -603.361 630.558" stroke="#94ACBC" stroke-width="0.7955" stroke-miterlimit="10"/>
<path d="M2006.32 600.231C1755.45 320.978 1124.64 565.233 899.778 628.14C747.91 670.625 579.072 685.155 434.716 620.934C333.197 575.773 239.964 533.452 151.308 496.881C-103.792 391.724 -377.928 369.026 -602.818 598.424" stroke="#94ACBC" stroke-width="0.7273" stroke-miterlimit="10"/>
<path d="M2002.27 634.595C1747.17 344.498 1150.87 561.947 901.076 623.046C748.668 660.321 581.403 674.827 435.755 615.582C334.8 574.529 241.45 533.217 151.972 494.957C-84.1618 394.025 -374.353 337.714 -602.248 566.29" stroke="#94ACBC" stroke-width="0.6591" stroke-miterlimit="10"/>
<path d="M1998.2 668.959C1738.9 368.041 1177.25 559.506 902.407 617.929C749.53 650.415 583.814 664.405 436.829 610.207C336.46 573.214 242.945 533.053 152.646 493.032C-64.6862 396.677 -370.792 306.425 -601.691 534.156" stroke="#94ACBC" stroke-width="0.5909" stroke-miterlimit="10"/>
<path d="M1994.14 703.346C1730.64 391.607 1203.75 557.934 903.724 612.836C750.425 640.886 586.234 653.936 437.864 604.855C338.106 571.876 244.357 533.053 153.307 491.107C-45.3417 399.611 -367.244 275.136 -601.148 502.045" stroke="#94ACBC" stroke-width="0.5227" stroke-miterlimit="10"/>
<path d="M1990.08 737.71C1722.37 415.126 1230.27 557.206 905.036 607.719C751.267 631.614 588.649 643.35 438.918 599.48C339.793 570.444 245.715 533.146 153.984 489.159C-26.1205 402.827 -363.679 243.824 -600.588 469.888" stroke="#94ACBC" stroke-width="0.4545" stroke-miterlimit="10"/>
<path d="M1986.02 772.074C1714.12 438.669 1256.82 557.323 906.356 602.625C752.07 622.553 591.096 632.694 439.979 594.128C341.488 568.989 246.988 533.452 154.647 487.234C-7.05567 406.324 -360.153 212.558 -600.066 437.777" stroke="#94ACBC" stroke-width="0.3864" stroke-miterlimit="10"/>
<path d="M1981.96 806.438C1705.85 462.212 1283.34 558.333 907.64 597.508C752.791 613.657 593.53 621.943 440.982 588.753C343.125 567.463 248.061 533.992 155.274 485.309C11.833 410.033 -356.592 181.246 -599.51 405.644" stroke="#94ACBC" stroke-width="0.3182" stroke-miterlimit="10"/>
<path d="M1977.9 840.825C1520.13 260.982 775.772 826.46 155.956 483.385C30.5653 413.976 -353.047 149.957 -598.969 373.51" stroke="#94ACBC" stroke-width="0.25" stroke-miterlimit="10"/>
<path d="M2073.81 81.3467C1821.78 387.171 1321.93 716.115 799.88 438.928C656.204 362.642 479.62 481.695 337.306 560.469C211.916 629.877 -210.238 970.182 -456.16 746.629" stroke="#94ACBC" stroke-miterlimit="10"/>
<path d="M-452.504 701.374C-203.413 936.945 198.883 616.779 338.404 548.193C481.07 478.08 654.016 367.994 801.87 445.265C899.797 496.741 997.302 531.034 1093.96 547.441C1475.09 612.132 1870.43 390.621 2078.12 145.38" stroke="#94ACBC" stroke-width="0.9318" stroke-miterlimit="10"/>
<path d="M-448.836 656.119C-196.576 903.708 185.393 603.353 339.513 535.94C481.875 473.667 651.98 373.04 803.848 451.626C900.062 501.412 995.924 539.226 1092.82 559.107C1446.2 631.567 1870.91 452.518 2082.42 209.46" stroke="#94ACBC" stroke-width="0.8636" stroke-miterlimit="10"/>
<path d="M-445.174 610.864C-189.722 870.471 171.521 589.528 340.617 523.664C482.227 468.503 649.844 378.275 805.843 457.964C900.273 506.2 994.469 547.23 1091.69 570.726C1417.33 649.453 1871.43 514.392 2086.76 273.493" stroke="#94ACBC" stroke-width="0.7955" stroke-miterlimit="10"/>
<path d="M-441.518 565.609C-182.897 837.233 157.338 575.209 341.715 511.387C482.269 462.729 647.68 383.556 807.833 464.301C900.479 511.035 992.937 554.999 1090.56 582.368C1388.54 665.907 1871.94 576.265 2091.08 337.55" stroke="#94ACBC" stroke-width="0.7273" stroke-miterlimit="10"/>
<path d="M-437.83 520.33C-176.041 803.949 142.951 560.281 342.844 499.111C482.13 456.485 645.523 388.837 809.83 470.639C900.669 515.871 991.414 562.487 1089.41 593.987C1359.93 680.93 1872.41 638.139 2095.4 401.583" stroke="#94ACBC" stroke-width="0.6591" stroke-miterlimit="10"/>
<path d="M-434.162 475.075C-169.204 770.712 128.358 544.765 343.953 486.835C481.831 449.772 643.346 394.189 811.832 477C900.84 520.753 989.942 569.67 1088.29 605.653C1331.63 694.661 1872.93 700.06 2099.72 465.663" stroke="#94ACBC" stroke-width="0.5909" stroke-miterlimit="10"/>
<path d="M-430.506 429.82C-162.379 737.475 113.635 528.546 345.051 474.559C481.473 442.73 641.134 399.564 813.798 483.338C900.975 525.635 988.575 576.406 1087.14 617.272C1303.69 707.102 1873.42 761.91 2104.04 529.696" stroke="#94ACBC" stroke-width="0.5227" stroke-miterlimit="10"/>
<path d="M-426.85 384.542C-155.53 704.215 98.8184 511.575 346.149 462.259C481.116 435.36 638.875 404.963 815.788 489.652C901.134 530.518 987.466 582.533 1086 628.891C1276.27 718.415 1873.91 823.784 2108.37 593.729" stroke="#94ACBC" stroke-width="0.4545" stroke-miterlimit="10"/>
<path d="M-423.178 339.287C-148.69 670.977 83.9703 493.853 347.262 450.007C480.797 427.755 636.632 410.455 817.793 496.013C901.308 535.447 986.795 587.978 1084.89 640.533C1249.55 728.767 1874.43 885.657 2112.7 657.786" stroke="#94ACBC" stroke-width="0.3864" stroke-miterlimit="10"/>
<path d="M-419.52 294.032C-141.863 637.74 69.1322 475.357 348.362 437.731C480.536 419.938 634.257 416.206 819.761 502.351C901.375 540.493 986.839 592.462 1083.73 652.176C1223.63 738.391 1874.92 947.555 2117.02 721.843" stroke="#94ACBC" stroke-width="0.3182" stroke-miterlimit="10"/>
<path d="M-415.854 248.776C41.9318 828.619 256.682 68.7184 1082.59 663.818C1198.87 747.592 1875.4 1009.45 2121.32 785.899" stroke="#94ACBC" stroke-width="0.25" stroke-miterlimit="10"/>
<g opacity="0.51">
<path opacity="0.51" d="M-290.439 446.016C-39.3535 773.623 236.144 905.797 850.162 677.573C1019.14 614.76 1216.85 646.261 1368.34 737.733C1501.81 818.315 1940.13 1195.85 2238.99 995.744" stroke="#94ACBC" stroke-miterlimit="10"/>
<path opacity="0.51" d="M2240.06 952.038C1940.08 1160.4 1516.19 816.93 1369.21 737.71C1215.49 654.875 1021.34 621.028 850.463 680.554C729.345 722.734 620.409 754.375 520.416 774.28C150.371 847.913 -88.486 741.536 -294.035 481.037" stroke="#94ACBC" stroke-width="0.9318" stroke-miterlimit="10"/>
<path opacity="0.51" d="M2241.12 908.332C1939.97 1124.96 1530.98 815.24 1370.06 737.71C1214.67 662.879 1023.55 627.412 850.725 683.535C731.438 722.288 622.854 754.211 521.1 775.947C173.753 850.167 -87.4261 775.031 -297.693 516.058" stroke="#94ACBC" stroke-width="0.8636" stroke-miterlimit="10"/>
<path opacity="0.51" d="M2242.2 864.626C1939.9 1089.54 1546.12 813.174 1370.9 737.71C1214.27 670.273 1025.83 633.867 851.004 686.54C733.548 721.913 625.316 753.976 521.825 777.637C197.106 851.857 -86.3253 808.526 -301.334 551.103" stroke="#94ACBC" stroke-width="0.7955" stroke-miterlimit="10"/>
<path opacity="0.51" d="M2243.28 820.92C1939.83 1054.1 1561.57 810.662 1371.77 737.71C1214.18 677.15 1028.16 640.416 851.289 689.544C735.711 721.631 627.76 753.671 522.556 779.327C220.394 853.007 -85.2422 842.045 -304.945 586.147" stroke="#94ACBC" stroke-width="0.7273" stroke-miterlimit="10"/>
<path opacity="0.51" d="M2244.36 777.214C1939.75 1018.65 1577.22 807.658 1372.63 737.71C1214.29 683.582 1030.52 647.082 851.59 692.549C737.936 721.42 630.244 753.249 523.303 781.017C243.581 853.664 -84.1199 875.541 -308.541 621.192" stroke="#94ACBC" stroke-width="0.6591" stroke-miterlimit="10"/>
<path opacity="0.51" d="M2245.41 733.508C1939.66 983.233 1593.04 804.137 1373.45 737.71C1214.47 689.614 1032.87 653.842 851.823 695.53C740.093 721.255 632.589 752.662 523.958 782.683C266.581 853.829 -83.0894 909.036 -312.229 656.213" stroke="#94ACBC" stroke-width="0.5909" stroke-miterlimit="10"/>
<path opacity="0.51" d="M2246.5 689.802C1939.6 947.789 1608.98 800.076 1374.33 737.71C1214.79 695.295 1035.29 660.72 852.135 698.534C742.331 721.209 634.99 751.911 524.716 784.373C289.568 853.57 -81.9554 942.531 -315.812 691.258" stroke="#94ACBC" stroke-width="0.5227" stroke-miterlimit="10"/>
<path opacity="0.51" d="M2247.58 646.096C1939.53 912.346 1625.02 795.452 1375.18 737.71C1215.09 700.717 1037.71 667.738 852.395 701.538C744.562 721.208 637.269 750.972 525.422 786.063C312.362 852.89 -80.8741 976.027 -319.449 726.302" stroke="#94ACBC" stroke-width="0.4545" stroke-miterlimit="10"/>
<path opacity="0.51" d="M2248.66 602.39C1939.45 876.902 1641.07 790.241 1376.04 737.71C1215.4 705.857 1040.17 674.897 852.698 704.543C746.813 721.279 639.496 749.728 526.171 787.753C335.081 851.857 -79.7498 1009.55 -323.066 761.347" stroke="#94ACBC" stroke-width="0.3864" stroke-miterlimit="10"/>
<path opacity="0.51" d="M2249.71 558.685C1939.33 841.482 1657.1 784.467 1376.88 737.71C1215.6 710.81 1042.61 682.197 852.952 707.524C749.015 721.42 641.511 748.085 526.847 789.396C357.516 850.401 -78.6979 1042.99 -326.732 796.344" stroke="#94ACBC" stroke-width="0.3182" stroke-miterlimit="10"/>
<path opacity="0.51" d="M2250.79 514.979C1677.64 1050.48 1258.02 506.2 527.578 791.11C379.819 848.735 -77.6147 1076.54 -330.344 831.412" stroke="#94ACBC" stroke-width="0.25" stroke-miterlimit="10"/>
</g>
<g opacity="0.19">
<path opacity="0.19" d="M-473.152 1C-221.151 306.824 278.697 635.768 800.75 358.581C944.426 282.295 1121.01 401.348 1263.32 480.122C1388.71 549.53 1810.87 889.835 2056.79 666.283" stroke="#94ACBC" stroke-miterlimit="10"/>
<path opacity="0.19" d="M2052.17 615.77C1803.08 851.341 1400.78 531.175 1261.26 462.588C1118.59 392.475 945.647 282.389 797.793 359.661C699.865 411.136 602.36 445.43 505.7 461.837C124.6 526.527 -270.772 305.017 -478.434 59.7754" stroke="#94ACBC" stroke-width="0.9318" stroke-miterlimit="10"/>
<path opacity="0.19" d="M2047.54 565.233C1795.28 812.822 1413.31 512.467 1259.19 445.054C1116.83 382.781 946.726 282.154 794.859 360.74C698.645 410.526 602.783 448.34 505.888 468.221C152.509 540.658 -272.227 361.632 -483.715 118.551" stroke="#94ACBC" stroke-width="0.8636" stroke-miterlimit="10"/>
<path opacity="0.19" d="M2042.92 514.697C1787.46 774.304 1426.22 493.36 1257.13 427.496C1115.52 372.336 947.898 282.107 791.899 361.797C697.469 410.033 603.274 451.063 506.051 474.559C180.416 553.286 -273.684 418.225 -489.021 177.326" stroke="#94ACBC" stroke-width="0.7955" stroke-miterlimit="10"/>
<path opacity="0.19" d="M2038.29 464.184C1779.67 735.808 1439.43 473.784 1255.06 409.962C1114.5 361.304 949.091 282.131 788.938 362.876C696.292 409.61 603.834 453.574 506.211 480.943C208.227 564.482 -275.167 474.84 -494.307 236.125" stroke="#94ACBC" stroke-width="0.7273" stroke-miterlimit="10"/>
<path opacity="0.19" d="M2033.67 413.648C1771.88 697.267 1452.89 453.598 1253 392.428C1113.71 349.802 950.32 282.154 786.012 363.956C695.173 409.188 604.428 455.804 506.43 487.304C235.909 574.247 -276.567 531.456 -499.557 294.9" stroke="#94ACBC" stroke-width="0.6591" stroke-miterlimit="10"/>
<path opacity="0.19" d="M2029.05 363.111C1764.09 658.748 1466.53 432.801 1250.93 374.871C1113.06 337.808 951.541 282.225 783.055 365.036C694.047 408.789 604.945 457.706 506.595 493.689C263.255 582.697 -278.046 588.096 -504.838 353.699" stroke="#94ACBC" stroke-width="0.5909" stroke-miterlimit="10"/>
<path opacity="0.19" d="M2024.42 312.598C1756.3 620.253 1480.28 411.324 1248.87 357.337C1112.45 325.508 952.785 282.342 780.12 366.116C692.943 408.413 605.344 459.184 506.783 500.05C290.225 589.879 -279.501 644.688 -510.119 412.474" stroke="#94ACBC" stroke-width="0.5227" stroke-miterlimit="10"/>
<path opacity="0.19" d="M2019.79 262.062C1748.48 581.735 1494.13 389.095 1246.8 339.779C1111.83 312.88 954.07 282.483 777.157 367.172C691.811 408.038 605.479 460.053 506.941 506.411C316.673 595.935 -280.962 701.304 -515.43 471.249" stroke="#94ACBC" stroke-width="0.4545" stroke-miterlimit="10"/>
<path opacity="0.19" d="M2015.17 211.525C1740.68 543.216 1508.02 366.092 1244.73 322.245C1111.2 299.993 955.361 282.694 774.2 368.252C690.684 407.685 605.197 460.217 507.106 512.772C342.445 601.005 -282.441 757.896 -520.711 530.024" stroke="#94ACBC" stroke-width="0.3864" stroke-miterlimit="10"/>
<path opacity="0.19" d="M2010.52 161.012C1732.86 504.721 1521.87 342.338 1242.64 304.711C1110.47 286.919 956.744 283.187 771.24 369.331C689.626 407.474 604.163 459.443 507.268 519.157C367.372 605.372 -283.922 814.535 -526.018 588.823" stroke="#94ACBC" stroke-width="0.3182" stroke-miterlimit="10"/>
<path opacity="0.19" d="M2005.9 110.476C1548.14 690.319 1333.39 -69.5819 507.458 525.518C391.175 609.291 -285.351 871.151 -531.273 647.599" stroke="#94ACBC" stroke-width="0.25" stroke-miterlimit="10"/>
</g>
<path d="M-324.387 445.923C-54.8983 736.466 206.774 830.497 711.692 523.194C850.65 438.623 1028.95 443.481 1175.63 513.782C1304.87 575.726 1746.25 890.704 1978.65 653.138" stroke="#55B282" stroke-width="3" stroke-miterlimit="10"/>
<path d="M-495.314 685.484C-216.038 404.329 48.6856 319.288 542.806 643.655C678.783 732.922 857.151 734.166 1006.15 668.912C1137.44 611.428 1589.33 311.707 1813.47 557.089" stroke="#013C76" stroke-width="3" stroke-miterlimit="10"/>
</svg>
