<svg width="558" height="228" viewBox="0 0 558 228" fill="none" xmlns="http://www.w3.org/2000/svg">
<mask id="mask0_543_59" style="mask-type:alpha" maskUnits="userSpaceOnUse" x="0" y="0" width="558" height="228">
<rect width="558" height="228" fill="#55B282"/>
</mask>
<g mask="url(#mask0_543_59)">
<g opacity="0.25">
<path d="M486.773 70.2588C689.782 -145.796 880.869 -212.488 1233.96 30.7662C1331.14 97.7086 1459.45 97.3329 1567.13 46.5848C1662.01 1.867 1989.34 -229.595 2148.77 -44.4792" stroke="#F6F9FB" stroke-width="3" stroke-miterlimit="10"/>
<path d="M419.701 -270.494C612.44 -36.5893 808.016 46.9442 1207.3 -165.058C1317.19 -223.404 1453.11 -211.699 1561.95 -151.45C1657.86 -98.3642 1980.73 161.913 2168.82 -9.06796" stroke="#F6F9FB" stroke-miterlimit="10"/>
<path d="M2166.49 -36.6611C1978.25 140.621 1667.4 -94.648 1562.69 -145.741C1452.76 -199.366 1319.23 -212.992 1207.87 -157.069C1127.51 -116.73 1054.99 -85.5102 987.79 -64.1286C744.712 13.2112 576.298 -52.9621 419.68 -237.82" stroke="#F6F9FB" stroke-width="0.9318" stroke-miterlimit="10"/>
<path d="M2164.16 -64.2543C1975.78 119.329 1677.3 -91.1653 1563.44 -140.014C1452.82 -187.481 1321.33 -202.507 1208.45 -149.08C1129.13 -111.541 1056.96 -80.1603 988.727 -57.2349C760.908 19.2791 579.461 -21.6887 419.701 -205.146" stroke="#F6F9FB" stroke-width="0.8636" stroke-miterlimit="10"/>
<path d="M2161.82 -91.8295C1973.28 98.0552 1687.42 -87.9158 1564.2 -134.287C1453.2 -176.045 1323.49 -191.969 1209.02 -141.073C1130.79 -106.299 1058.94 -74.8463 989.66 -50.3231C777.012 24.9342 582.603 9.60271 419.701 -172.473" stroke="#F6F9FB" stroke-width="0.7955" stroke-miterlimit="10"/>
<path d="M2159.49 -119.423C1970.81 76.7633 1697.75 -85.0255 1564.95 -128.561C1453.77 -165.004 1325.68 -181.359 1209.62 -133.085C1132.49 -101.003 1060.93 -69.6222 990.594 -43.4293C793.008 30.1763 585.763 40.894 419.701 -139.799" stroke="#F6F9FB" stroke-width="0.7273" stroke-miterlimit="10"/>
<path d="M2157.15 -146.998C1968.33 55.4896 1708.23 -82.4942 1565.69 -122.834C1454.47 -154.305 1327.91 -170.695 1210.17 -125.078C1134.2 -95.6534 1062.85 -64.4697 991.51 -36.4996C808.86 35.0774 588.904 72.2034 419.701 -107.107" stroke="#F6F9FB" stroke-width="0.6591" stroke-miterlimit="10"/>
<path d="M2154.82 -174.591C1965.85 34.1977 1718.82 -80.3578 1566.44 -117.107C1455.26 -143.928 1330.17 -159.924 1210.76 -117.089C1135.96 -90.2497 1064.79 -59.4431 992.443 -29.6058C824.604 39.6015 592.046 103.477 419.701 -74.4335" stroke="#F6F9FB" stroke-width="0.5909" stroke-miterlimit="10"/>
<path d="M2152.49 -202.184C1963.37 12.9059 1729.47 -78.6523 1567.2 -111.398C1456.09 -133.821 1332.47 -149.098 1211.34 -109.1C1137.72 -84.7921 1066.64 -54.524 993.377 -22.712C840.241 43.8024 595.206 134.768 419.701 -41.7777" stroke="#F6F9FB" stroke-width="0.5227" stroke-miterlimit="10"/>
<path d="M2150.15 -229.759C1960.87 -8.3679 1740.15 -77.3597 1567.95 -105.653C1456.93 -123.893 1334.8 -138.129 1211.91 -101.093C1139.49 -79.2627 1068.43 -49.7666 994.289 -15.7823C855.713 47.7519 598.326 166.078 419.68 -9.06804" stroke="#F6F9FB" stroke-width="0.4545" stroke-miterlimit="10"/>
<path d="M2147.81 -257.353C1958.4 -29.6597 1750.83 -76.5339 1568.7 -99.9441C1457.72 -114.216 1337.15 -127.071 1212.5 -93.1042C1141.28 -73.6974 1070.12 -45.2425 995.239 -8.88852C871.061 51.3784 601.503 197.351 419.715 23.6057" stroke="#F6F9FB" stroke-width="0.3864" stroke-miterlimit="10"/>
<path d="M2145.49 -284.928C1955.92 -50.9335 1761.46 -76.121 1569.44 -94.2172C1458.46 -104.666 1339.48 -115.886 1213.06 -85.1153C1143.07 -68.0782 1071.63 -40.9698 996.159 -1.99473C886.218 54.7714 604.649 228.624 419.701 56.2615" stroke="#F6F9FB" stroke-width="0.3182" stroke-miterlimit="10"/>
<path d="M2143.15 -312.521C1793.02 130.962 1471.13 -257.478 997.093 4.91709C901.19 58.0029 607.791 259.934 419.701 88.9532" stroke="#F6F9FB" stroke-width="0.25" stroke-miterlimit="10"/>
<path d="M198 102.22C402.552 -121.433 602.185 -194.77 989.997 37.5549C1096.73 101.484 1233.06 96.8165 1344.88 42.2585C1443.39 -5.80061 2028.64 -280.314 2207.65 -99.8543" stroke="#F6F9FB" stroke-miterlimit="10"/>
<path d="M2204.55 -73.5538C2022.31 -262.289 1462.15 -10.4145 1345.89 38.3807C1232.23 86.0808 1098.41 93.7465 990.806 33.4796C911.994 -10.6838 840.722 -44.8835 774.926 -69.281C535.833 -157.895 363.524 -99.7107 198.414 77.643" stroke="#F6F9FB" stroke-width="0.9318" stroke-miterlimit="10"/>
<path d="M2201.44 -47.2712C2015.99 -244.301 1481.42 -14.6513 1346.9 34.467C1232.05 76.3864 1100.12 85.9551 991.614 29.3685C913.161 -11.5455 841.908 -45.2246 775.447 -70.7532C551.111 -156.926 366.271 -123.642 198.863 53.0839" stroke="#F6F9FB" stroke-width="0.8636" stroke-miterlimit="10"/>
<path d="M2198.33 -20.9885C2009.67 -226.294 1501.02 -18.3494 1347.9 30.5534C1232.28 67.4819 1101.86 78.1278 992.42 25.2394C914.362 -12.479 843.09 -45.5477 775.947 -72.2611C566.261 -155.687 368.962 -147.59 199.256 28.5068" stroke="#F6F9FB" stroke-width="0.7955" stroke-miterlimit="10"/>
<path d="M2195.23 5.31208C2003.35 -208.27 1520.89 -21.4553 1348.91 26.6577C1232.75 59.1519 1103.62 70.2646 993.211 21.1463C915.566 -13.3945 844.258 -45.7631 776.451 -73.7332C581.342 -154.161 371.674 -171.521 199.67 3.92972" stroke="#F6F9FB" stroke-width="0.7273" stroke-miterlimit="10"/>
<path d="M2192.12 31.5946C1997.02 -190.282 1540.95 -23.9687 1349.9 22.7619C1233.33 51.2707 1105.4 62.3654 994.004 17.053C916.789 -14.3461 845.392 -45.9427 776.957 -75.2054C596.353 -152.402 374.405 -195.47 200.104 -20.6474" stroke="#F6F9FB" stroke-width="0.6591" stroke-miterlimit="10"/>
<path d="M2189.02 57.8773C1990.69 -172.275 1561.12 -25.8358 1350.92 18.8483C1233.99 43.6947 1107.25 54.3944 994.826 12.9418C918.061 -15.3515 846.538 -46.0683 777.474 -76.6775C611.251 -150.373 377.131 -219.401 200.531 -45.2246" stroke="#F6F9FB" stroke-width="0.5909" stroke-miterlimit="10"/>
<path d="M2185.91 84.1779C1984.37 -154.251 1581.39 -27.0385 1351.92 14.9526C1234.67 36.406 1109.1 46.3876 995.617 8.84871C919.319 -16.3747 847.616 -46.0683 777.978 -78.1496C626.045 -148.129 379.843 -243.331 200.945 -69.7837" stroke="#F6F9FB" stroke-width="0.5227" stroke-miterlimit="10"/>
<path d="M2182.8 110.46C1978.05 -136.262 1601.68 -27.595 1352.92 11.039C1235.32 29.3147 1110.94 38.291 996.422 4.73762C920.608 -17.4698 848.654 -45.9964 778.495 -79.6396C640.745 -145.669 382.569 -267.28 201.373 -94.3787" stroke="#F6F9FB" stroke-width="0.4545" stroke-miterlimit="10"/>
<path d="M2179.7 136.743C1971.74 -118.256 1621.99 -27.5053 1353.94 7.14324C1235.93 22.385 1112.81 30.1405 997.235 0.64438C921.906 -18.5829 849.629 -45.7631 779.003 -81.1118C655.328 -142.994 385.267 -291.193 201.773 -118.938" stroke="#F6F9FB" stroke-width="0.3864" stroke-miterlimit="10"/>
<path d="M2176.59 163.026C1965.42 -100.249 1642.27 -26.7334 1354.92 3.22949C1236.49 15.5809 1114.68 21.9182 998.004 -3.46682C923.16 -19.7498 850.452 -45.3503 779.485 -82.584C669.777 -140.158 387.993 -315.142 202.201 -143.515" stroke="#F6F9FB" stroke-width="0.3182" stroke-miterlimit="10"/>
<path d="M2173.49 189.326C1823.38 -254.157 1254.06 178.339 780.007 -84.056C684.104 -137.142 390.705 -339.073 202.615 -168.092" stroke="#F6F9FB" stroke-width="0.25" stroke-miterlimit="10"/>
<path d="M2246.84 -391.548C2054.08 -157.644 1671.78 93.9439 1272.5 -118.058C1162.61 -176.404 1027.55 -85.3488 918.706 -25.0998C822.803 27.986 499.925 288.263 311.836 117.282" stroke="#F6F9FB" stroke-miterlimit="10"/>
<path d="M314.635 82.6697C505.148 262.842 812.838 17.9685 919.548 -34.489C1028.66 -88.1134 1160.94 -172.311 1274.02 -113.211C1348.92 -73.8411 1423.5 -47.6123 1497.42 -35.0635C1788.92 14.4139 2091.3 -155.005 2250.14 -342.574" stroke="#F6F9FB" stroke-width="0.9318" stroke-miterlimit="10"/>
<path d="M317.439 48.0571C510.376 237.421 802.519 7.69964 920.396 -43.8602C1029.28 -91.4885 1159.38 -168.451 1275.53 -108.346C1349.12 -70.2685 1422.44 -41.3469 1496.55 -26.141C1766.82 29.2787 2091.66 -107.664 2253.43 -293.563" stroke="#F6F9FB" stroke-width="0.8636" stroke-miterlimit="10"/>
<path d="M320.236 13.4444C515.615 212 791.905 -2.87451 921.236 -53.2495C1029.54 -95.4381 1157.74 -164.448 1277.06 -103.499C1349.28 -66.6063 1421.32 -35.2251 1495.68 -17.2546C1744.74 42.9585 2092.05 -60.3408 2256.75 -244.588" stroke="#F6F9FB" stroke-width="0.7955" stroke-miterlimit="10"/>
<path d="M323.035 -21.1682C520.837 186.579 781.06 -13.8256 922.078 -62.6387C1029.58 -99.8545 1156.09 -160.409 1278.58 -98.6516C1349.44 -62.908 1420.15 -29.2828 1494.82 -8.35005C1722.73 55.5433 2092.44 -13.0177 2260.05 -195.596" stroke="#F6F9FB" stroke-width="0.7273" stroke-miterlimit="10"/>
<path d="M325.854 -55.7987C526.079 161.123 770.055 -25.2434 922.939 -72.0279C1029.47 -104.63 1154.44 -156.369 1280.11 -93.8044C1349.58 -59.2097 1418.99 -23.5559 1493.94 0.536528C1700.84 67.033 2092.8 34.3054 2263.35 -146.621" stroke="#F6F9FB" stroke-width="0.6591" stroke-miterlimit="10"/>
<path d="M328.66 -90.4114C531.309 135.702 758.894 -37.1101 923.789 -81.4171C1029.24 -109.764 1152.77 -152.276 1281.64 -88.9393C1349.71 -55.4756 1417.86 -18.0624 1493.08 9.45895C1679.2 77.5352 2093.2 81.6643 2266.66 -97.6104" stroke="#F6F9FB" stroke-width="0.5909" stroke-miterlimit="10"/>
<path d="M331.457 -125.024C536.53 110.281 747.634 -49.5152 924.629 -90.8062C1028.97 -115.15 1151.08 -148.165 1283.14 -84.092C1349.82 -51.7414 1416.82 -12.9099 1492.2 18.3456C1657.83 87.0502 2093.58 128.97 2269.96 -48.6356" stroke="#F6F9FB" stroke-width="0.5227" stroke-miterlimit="10"/>
<path d="M334.256 -159.655C541.77 84.842 736.304 -62.495 925.471 -100.213C1028.7 -120.787 1149.36 -144.036 1284.67 -79.2628C1349.94 -48.0073 1415.97 -8.22431 1491.34 27.2321C1636.86 95.7033 2093.95 176.293 2273.28 0.33906" stroke="#F6F9FB" stroke-width="0.4545" stroke-miterlimit="10"/>
<path d="M337.061 -194.267C546.998 59.421 724.944 -76.0493 926.319 -109.585C1028.45 -126.604 1147.64 -139.835 1286.2 -74.3977C1350.07 -44.2373 1415.46 -4.05939 1490.48 36.1365C1616.42 103.62 2094.35 223.616 2276.59 49.3317" stroke="#F6F9FB" stroke-width="0.3864" stroke-miterlimit="10"/>
<path d="M339.859 -228.88C552.221 34.0002 713.597 -90.1959 927.161 -118.974C1028.25 -132.582 1145.82 -135.436 1287.7 -69.5504C1350.12 -40.3774 1415.49 -0.63039 1489.6 45.041C1596.6 110.981 2094.73 270.957 2279.89 98.3244" stroke="#F6F9FB" stroke-width="0.3182" stroke-miterlimit="10"/>
<path d="M342.664 -263.492C692.794 179.991 857.042 -401.207 1488.72 53.9455C1577.66 118.018 2095.09 318.298 2283.18 147.317" stroke="#F6F9FB" stroke-width="0.25" stroke-miterlimit="10"/>
<g opacity="0.51">
<path opacity="0.51" d="M438.586 -112.637C630.625 137.928 841.335 239.019 1310.96 64.4658C1440.2 16.4247 1591.41 40.5171 1707.28 110.478C1809.36 172.11 2144.6 460.859 2373.18 307.813" stroke="#F6F9FB" stroke-miterlimit="10"/>
<path opacity="0.51" d="M2374 274.386C2144.56 433.751 1820.36 171.05 1707.94 110.46C1590.37 47.1057 1441.88 21.218 1311.19 66.7458C1218.55 99.0066 1135.23 123.207 1058.76 138.431C775.733 194.748 593.047 113.387 435.836 -85.8513" stroke="#F6F9FB" stroke-width="0.9318" stroke-miterlimit="10"/>
<path opacity="0.51" d="M2374.81 240.958C2144.48 406.642 1831.67 169.758 1708.59 110.46C1589.74 53.2275 1443.57 26.1011 1311.39 69.0258C1220.15 98.6656 1137.1 123.081 1059.28 139.705C793.617 196.471 593.858 139.005 433.039 -59.066" stroke="#F6F9FB" stroke-width="0.8636" stroke-miterlimit="10"/>
<path opacity="0.51" d="M2375.63 207.53C2144.42 379.552 1843.25 168.178 1709.23 110.46C1589.44 58.8826 1445.31 31.0381 1311.6 71.3237C1221.77 98.3783 1138.99 122.902 1059.83 140.998C811.477 197.764 594.7 164.623 430.254 -32.2628" stroke="#F6F9FB" stroke-width="0.7955" stroke-miterlimit="10"/>
<path opacity="0.51" d="M2376.46 174.102C2144.37 352.444 1855.07 166.257 1709.9 110.46C1589.37 64.1426 1447.09 36.0468 1311.82 73.6216C1223.42 98.1628 1140.86 122.668 1060.39 142.29C829.289 198.644 595.529 190.26 427.492 -5.45959" stroke="#F6F9FB" stroke-width="0.7273" stroke-miterlimit="10"/>
<path opacity="0.51" d="M2377.29 140.675C2144.31 325.335 1867.04 163.959 1710.56 110.46C1589.45 69.0617 1448.9 41.1455 1312.05 75.9197C1225.12 98.0014 1142.76 122.345 1060.96 143.583C847.023 199.146 596.387 215.878 424.742 21.3438" stroke="#F6F9FB" stroke-width="0.6591" stroke-miterlimit="10"/>
<path opacity="0.51" d="M2378.09 107.247C2144.24 298.245 1879.14 161.266 1711.19 110.46C1589.6 73.6755 1450.7 46.3157 1312.23 78.1995C1226.77 97.8756 1144.55 121.896 1061.47 144.858C864.617 199.272 597.177 241.496 421.924 48.1289" stroke="#F6F9FB" stroke-width="0.5909" stroke-miterlimit="10"/>
<path opacity="0.51" d="M2378.92 73.8191C2144.19 271.136 1891.33 158.16 1711.86 110.46C1589.83 78.02 1452.55 51.5758 1312.47 80.4975C1228.49 97.8397 1146.39 121.322 1062.05 146.15C882.197 199.074 598.043 267.115 419.182 74.9322" stroke="#F6F9FB" stroke-width="0.5227" stroke-miterlimit="10"/>
<path opacity="0.51" d="M2379.75 40.3914C2144.14 244.028 1903.59 154.624 1712.5 110.46C1590.07 82.1671 1454.4 56.9437 1312.66 82.7954C1230.19 97.8397 1148.13 120.604 1062.58 147.443C899.629 198.554 598.869 292.733 416.398 101.735" stroke="#F6F9FB" stroke-width="0.4545" stroke-miterlimit="10"/>
<path opacity="0.51" d="M2380.58 6.96362C2144.09 216.919 1915.87 150.638 1713.17 110.46C1590.3 86.0987 1456.29 62.4192 1312.9 85.0933C1231.91 97.8935 1149.84 119.652 1063.16 148.735C917.008 197.764 599.731 318.369 413.635 128.539" stroke="#F6F9FB" stroke-width="0.3864" stroke-miterlimit="10"/>
<path opacity="0.51" d="M2381.38 -26.4641C2143.99 189.829 1928.13 146.222 1713.81 110.46C1590.46 89.8867 1458.15 68.0025 1313.09 87.3734C1233.6 98.0013 1151.38 118.395 1063.68 149.992C934.166 196.651 600.535 343.952 410.83 155.306" stroke="#F6F9FB" stroke-width="0.3182" stroke-miterlimit="10"/>
<path opacity="0.51" d="M2382.21 -59.8918C1943.84 349.679 1622.9 -66.6061 1064.23 151.303C951.222 195.376 601.362 369.606 408.066 182.127" stroke="#F6F9FB" stroke-width="0.25" stroke-miterlimit="10"/>
</g>
<g opacity="0.19">
<path opacity="0.19" d="M298.842 -453C491.581 -219.096 873.882 32.4922 1273.17 -179.51C1383.05 -237.856 1518.11 -146.8 1626.96 -86.5515C1722.86 -33.4656 2045.74 226.811 2233.83 55.8306" stroke="#F6F9FB" stroke-miterlimit="10"/>
<path opacity="0.19" d="M2230.29 17.1967C2039.78 197.369 1732.09 -47.5045 1625.38 -99.962C1516.26 -153.586 1383.99 -237.784 1270.9 -178.684C1196.01 -139.314 1121.43 -113.085 1047.5 -100.536C756.023 -51.0591 453.629 -220.478 294.803 -408.047" stroke="#F6F9FB" stroke-width="0.9318" stroke-miterlimit="10"/>
<path opacity="0.19" d="M2226.75 -21.4554C2033.82 167.909 1741.68 -61.8128 1623.8 -113.373C1514.92 -161.001 1384.81 -237.964 1268.66 -177.858C1195.07 -139.781 1121.75 -110.859 1047.65 -95.6535C777.369 -40.2517 452.517 -177.176 290.764 -363.093" stroke="#F6F9FB" stroke-width="0.8636" stroke-miterlimit="10"/>
<path opacity="0.19" d="M2223.21 -60.1072C2027.84 138.449 1751.55 -76.4261 1622.22 -126.801C1513.91 -168.99 1385.71 -238 1266.39 -177.051C1194.17 -140.158 1122.13 -108.777 1047.77 -90.8062C798.711 -30.5931 451.4 -133.892 286.703 -318.14" stroke="#F6F9FB" stroke-width="0.7955" stroke-miterlimit="10"/>
<path opacity="0.19" d="M2205.53 -253.331C1998.02 -8.83465 1803.48 -156.172 1614.32 -193.89C1511.09 -214.464 1390.43 -237.712 1255.12 -172.939C1189.84 -141.684 1123.81 -101.901 1048.45 -66.4446C902.926 2.02666 445.834 82.6159 266.506 -93.3376" stroke="#F6F9FB" stroke-width="0.4545" stroke-miterlimit="10"/>
<path opacity="0.19" d="M2201.99 -291.983C1992.06 -38.2949 1814.11 -173.765 1612.74 -207.301C1510.6 -224.32 1391.42 -237.551 1252.86 -172.114C1188.98 -141.953 1123.6 -101.775 1048.58 -61.5795C922.638 5.90438 444.704 125.9 262.467 -48.3843" stroke="#F6F9FB" stroke-width="0.3864" stroke-miterlimit="10"/>
<path opacity="0.19" d="M2198.44 -330.617C1986.08 -67.7371 1824.7 -191.933 1611.13 -220.711C1510.04 -234.319 1392.47 -237.174 1250.59 -171.288C1188.17 -142.115 1122.81 -102.368 1048.7 -56.6962C941.7 9.24369 443.569 169.219 258.406 -3.4129" stroke="#F6F9FB" stroke-width="0.3182" stroke-miterlimit="10"/>
<path opacity="0.19" d="M2194.9 -369.269C1844.79 74.2141 1680.54 -506.983 1048.85 -51.8311C959.908 12.2418 442.478 212.521 254.389 41.5404" stroke="#F6F9FB" stroke-width="0.25" stroke-miterlimit="10"/>
</g>
<path d="M412.621 -112.708C618.735 109.509 818.871 181.427 1205.05 -53.6083C1311.33 -118.292 1447.7 -114.575 1559.88 -60.8073C1658.73 -13.4303 1996.31 227.476 2174.06 45.7773" stroke="#F6F9FB" stroke-width="3" stroke-miterlimit="10"/>
<path d="M281.891 70.516C495.491 -144.52 697.96 -209.563 1075.88 38.5245C1179.88 106.798 1316.3 107.75 1430.26 57.8415C1530.67 13.8756 1876.3 -215.361 2047.73 -27.6847" stroke="#F6F9FB" stroke-width="3" stroke-miterlimit="10"/>
</g>
</g>
</svg>
