<svg width="1436" height="682" viewBox="0 0 1436 682" fill="none" xmlns="http://www.w3.org/2000/svg">
<g clip-path="url(#clip0_1293_6)">
<g opacity="0.15">
<path d="M-250.436 499.147C14.9925 216.661 264.835 129.463 726.493 447.512C853.551 535.037 1021.31 534.546 1162.1 468.194C1286.15 409.727 1714.13 107.096 1922.59 349.13" stroke="#55B282" stroke-width="3" stroke-miterlimit="10"/>
<path d="M-138.04 172.863C131.449 463.406 393.121 557.437 898.039 250.135C1037 165.563 1215.29 170.422 1361.97 240.722C1491.21 302.666 1932.59 617.645 2164.99 380.079" stroke="#053256" stroke-width="3" stroke-miterlimit="10"/>
<path d="M-338.134 53.6222C-86.1321 359.446 169.578 468.664 691.631 191.477C835.307 115.191 1013.02 130.495 1155.33 209.269C1280.72 278.677 1702.88 618.982 1948.8 395.43" stroke="#94ACBC" stroke-miterlimit="10"/>
<path d="M1945.74 359.352C1699.63 591.144 1293.21 283.536 1156.29 216.733C1012.57 146.62 837.98 128.805 692.38 201.922C587.317 254.665 492.488 295.483 404.63 323.439C86.8115 424.559 -133.385 338.039 -338.159 96.3422" stroke="#94ACBC" stroke-width="0.9318" stroke-miterlimit="10"/>
<path d="M1942.69 323.275C1696.4 563.305 1306.14 288.089 1157.28 224.221C1012.64 162.159 840.729 142.513 693.133 212.367C589.432 261.448 495.072 302.478 405.853 332.453C107.986 432.493 -129.251 378.928 -338.134 139.062" stroke="#94ACBC" stroke-width="0.8636" stroke-miterlimit="10"/>
<path d="M1939.64 287.221C1693.14 535.49 1319.38 292.338 1158.27 231.708C1013.13 177.111 843.546 156.291 693.885 222.836C591.591 268.302 497.654 309.426 407.073 341.489C129.041 439.886 -125.144 419.841 -338.134 181.782" stroke="#94ACBC" stroke-width="0.7955" stroke-miterlimit="10"/>
<path d="M1936.59 251.144C1689.9 507.652 1332.88 296.117 1159.25 239.196C1013.89 191.547 846.409 170.163 694.659 233.281C593.821 275.227 500.259 316.257 408.294 350.503C149.955 446.741 -121.012 460.754 -338.134 224.502" stroke="#94ACBC" stroke-width="0.7273" stroke-miterlimit="10"/>
<path d="M1933.54 215.09C1686.66 479.837 1346.59 299.427 1160.21 246.684C1014.8 205.536 849.32 184.106 695.387 243.75C596.051 282.221 502.771 322.993 409.491 359.563C170.681 453.149 -116.905 501.69 -338.134 267.246" stroke="#94ACBC" stroke-width="0.6591" stroke-miterlimit="10"/>
<path d="M1930.49 179.012C1683.42 451.998 1360.43 302.22 1161.2 254.172C1015.83 219.104 852.277 198.19 696.161 254.195C598.351 289.287 505.306 329.565 410.712 368.577C191.267 459.064 -112.797 542.579 -338.134 309.966" stroke="#94ACBC" stroke-width="0.5909" stroke-miterlimit="10"/>
<path d="M1927.44 142.935C1680.18 424.16 1374.35 304.45 1162.19 261.636C1016.91 232.319 855.282 212.344 696.912 264.64C600.652 296.422 507.724 335.997 411.932 377.59C211.711 464.556 -108.666 583.492 -338.134 352.663" stroke="#94ACBC" stroke-width="0.5227" stroke-miterlimit="10"/>
<path d="M1924.38 106.881C1676.91 396.345 1388.32 306.14 1163.17 269.147C1018.01 245.299 858.331 226.685 697.661 275.109C602.973 303.652 510.069 342.217 413.127 386.651C231.942 469.72 -104.584 624.428 -338.159 395.43" stroke="#94ACBC" stroke-width="0.4545" stroke-miterlimit="10"/>
<path d="M1921.33 70.804C1673.67 368.506 1402.28 307.22 1164.15 276.611C1019.05 257.951 861.405 241.144 698.435 285.554C605.319 310.928 512.274 348.132 414.37 395.664C252.01 474.462 -100.43 665.317 -338.113 438.15" stroke="#94ACBC" stroke-width="0.3864" stroke-miterlimit="10"/>
<path d="M1918.28 34.7502C1670.44 340.691 1416.18 307.759 1165.12 284.099C1020.01 270.438 864.46 255.768 699.166 296C607.646 318.275 514.249 353.719 415.57 404.678C271.824 478.898 -96.3192 706.206 -338.134 480.846" stroke="#94ACBC" stroke-width="0.3182" stroke-miterlimit="10"/>
<path d="M1915.23 -1.32715C1457.45 578.515 1036.58 70.6397 416.791 413.715C291.4 483.123 -92.2115 747.142 -338.134 523.59" stroke="#94ACBC" stroke-width="0.25" stroke-miterlimit="10"/>
<path d="M-628 540.936C-360.554 248.515 -99.5389 152.629 407.515 456.388C547.06 539.974 725.31 533.871 871.521 462.538C1000.31 399.702 1765.52 40.7826 1999.57 276.729" stroke="#94ACBC" stroke-miterlimit="10"/>
<path d="M1995.51 311.116C1757.24 64.349 1024.85 393.669 872.837 457.468C724.232 519.834 549.268 529.857 408.573 451.059C305.529 393.317 212.343 348.602 126.316 316.703C-186.292 200.842 -411.581 276.917 -627.458 508.802" stroke="#94ACBC" stroke-width="0.9318" stroke-miterlimit="10"/>
<path d="M1991.45 345.48C1748.97 87.8686 1050.03 388.13 874.152 452.351C723.998 507.159 551.498 519.67 409.63 445.684C307.055 392.19 213.892 348.156 126.997 314.778C-166.316 202.11 -407.989 245.628 -626.871 476.692" stroke="#94ACBC" stroke-width="0.8636" stroke-miterlimit="10"/>
<path d="M1987.38 379.844C1740.71 111.412 1075.66 383.294 875.461 447.234C724.298 495.517 553.77 509.436 410.681 440.286C308.622 390.97 215.436 347.733 127.649 312.806C-146.511 203.729 -404.474 214.315 -626.36 444.558" stroke="#94ACBC" stroke-width="0.7955" stroke-miterlimit="10"/>
<path d="M1983.32 414.231C1732.45 134.978 1101.64 379.233 876.777 442.14C724.909 484.625 556.071 499.155 411.715 434.934C310.196 389.773 216.963 347.452 128.307 310.881C-126.793 205.724 -400.929 183.026 -625.819 412.424" stroke="#94ACBC" stroke-width="0.7273" stroke-miterlimit="10"/>
<path d="M1979.27 448.595C1724.17 158.498 1127.87 375.947 878.077 437.046C725.669 474.321 558.404 488.827 412.756 429.582C311.801 388.529 218.451 347.217 128.973 308.957C-107.161 208.025 -397.352 151.714 -625.247 380.29" stroke="#94ACBC" stroke-width="0.6591" stroke-miterlimit="10"/>
<path d="M1975.2 482.959C1715.9 182.041 1154.25 373.506 879.408 431.929C726.531 464.415 560.815 478.405 413.829 424.207C313.461 387.214 219.946 347.053 129.647 307.032C-87.6852 210.677 -393.791 120.425 -624.69 348.156" stroke="#94ACBC" stroke-width="0.5909" stroke-miterlimit="10"/>
<path d="M1971.14 517.346C1707.64 205.607 1180.75 371.933 880.724 426.836C727.425 454.886 563.234 467.936 414.864 418.855C315.106 385.876 221.356 347.053 130.306 305.107C-68.3422 213.611 -390.245 89.1361 -624.149 316.045" stroke="#94ACBC" stroke-width="0.5227" stroke-miterlimit="10"/>
<path d="M1967.08 551.71C1699.37 229.126 1207.27 371.206 882.036 421.719C728.268 445.614 565.65 457.35 415.918 413.48C316.794 384.444 222.716 347.146 130.985 303.159C-49.12 216.827 -386.679 57.8237 -623.587 283.888" stroke="#94ACBC" stroke-width="0.4545" stroke-miterlimit="10"/>
<path d="M1963.02 586.074C1691.12 252.67 1233.82 371.323 883.356 416.625C729.07 436.554 568.096 446.694 416.979 408.128C318.488 382.989 223.988 347.452 131.647 301.234C-30.0557 220.324 -383.153 26.5583 -623.066 251.777" stroke="#94ACBC" stroke-width="0.3864" stroke-miterlimit="10"/>
<path d="M1958.96 620.437C1682.85 276.212 1260.34 372.333 884.64 411.508C729.791 427.657 570.53 435.943 417.982 402.753C320.125 381.463 225.061 347.992 132.274 299.309C-11.167 224.033 -379.592 -4.75408 -622.51 219.644" stroke="#94ACBC" stroke-width="0.3182" stroke-miterlimit="10"/>
<path d="M1954.9 654.825C1497.13 74.9822 752.773 640.46 132.956 297.385C7.56578 227.976 -376.046 -36.043 -621.968 187.51" stroke="#94ACBC" stroke-width="0.25" stroke-miterlimit="10"/>
<path d="M2050.81 -104.653C1798.78 201.171 1298.93 530.115 776.879 252.928C633.203 176.642 456.619 295.695 314.305 374.468C188.915 443.877 -233.239 784.182 -479.161 560.629" stroke="#94ACBC" stroke-miterlimit="10"/>
<path d="M-475.504 515.374C-226.414 750.945 175.883 430.779 315.404 362.192C458.07 292.08 631.016 181.994 778.869 259.265C876.797 310.741 974.302 345.034 1070.96 361.441C1452.09 426.132 1847.43 204.621 2055.12 -40.6202" stroke="#94ACBC" stroke-width="0.9318" stroke-miterlimit="10"/>
<path d="M-471.837 470.119C-219.578 717.708 162.391 417.353 316.512 349.94C458.873 287.667 628.979 187.04 780.846 265.626C877.06 315.412 972.922 353.226 1069.82 373.107C1423.2 445.567 1847.91 266.518 2059.42 23.4599" stroke="#94ACBC" stroke-width="0.8636" stroke-miterlimit="10"/>
<path d="M-468.175 424.864C-212.723 684.471 148.519 403.528 317.616 337.664C459.226 282.503 626.843 192.274 782.842 271.964C877.272 320.2 971.467 361.23 1068.69 384.726C1394.33 463.453 1848.43 328.392 2063.76 87.493" stroke="#94ACBC" stroke-width="0.7955" stroke-miterlimit="10"/>
<path d="M-464.519 379.609C-205.898 651.233 134.337 389.209 318.714 325.387C459.268 276.729 624.679 197.556 784.832 278.301C877.478 325.035 969.936 368.999 1067.56 396.368C1365.54 479.907 1848.94 390.265 2068.08 151.55" stroke="#94ACBC" stroke-width="0.7273" stroke-miterlimit="10"/>
<path d="M-460.831 334.33C-199.042 617.949 119.95 374.281 319.843 313.111C459.129 270.485 622.522 202.837 786.829 284.639C877.668 329.871 968.413 376.487 1066.41 407.987C1336.93 494.93 1849.41 452.139 2072.4 215.583" stroke="#94ACBC" stroke-width="0.6591" stroke-miterlimit="10"/>
<path d="M-457.164 289.075C-192.206 584.712 105.356 358.765 320.951 300.835C458.829 263.772 620.344 208.189 788.83 291C877.838 334.753 966.94 383.67 1065.29 419.653C1308.63 508.661 1849.93 514.06 2076.72 279.663" stroke="#94ACBC" stroke-width="0.5909" stroke-miterlimit="10"/>
<path d="M-453.507 243.82C-185.38 551.475 90.6341 342.546 322.05 288.559C458.473 256.73 618.133 213.564 790.797 297.338C877.974 339.635 965.574 390.406 1064.13 431.272C1280.69 521.102 1850.42 575.91 2081.04 343.696" stroke="#94ACBC" stroke-width="0.5227" stroke-miterlimit="10"/>
<path d="M-449.85 198.542C-178.531 518.215 75.8179 325.575 323.148 276.259C458.115 249.36 615.874 218.963 792.787 303.652C878.133 344.518 964.465 396.533 1063 442.891C1253.27 532.415 1850.91 637.784 2085.37 407.729" stroke="#94ACBC" stroke-width="0.4545" stroke-miterlimit="10"/>
<path d="M-446.178 153.287C-171.69 484.977 60.9699 307.853 324.262 264.007C457.797 241.755 613.631 224.455 794.793 310.013C878.308 349.447 963.795 401.978 1061.89 454.533C1226.55 542.767 1851.43 699.657 2089.7 471.786" stroke="#94ACBC" stroke-width="0.3864" stroke-miterlimit="10"/>
<path d="M-442.521 108.032C-164.864 451.74 46.1308 289.357 325.36 251.731C457.534 233.938 611.256 230.206 796.76 316.35C878.374 354.493 963.837 406.462 1060.73 466.176C1200.63 552.391 1851.92 761.555 2094.02 535.842" stroke="#94ACBC" stroke-width="0.3182" stroke-miterlimit="10"/>
<path d="M-438.854 62.7764C18.9313 642.619 233.682 -117.282 1059.59 477.818C1175.87 561.592 1852.4 823.452 2098.32 599.899" stroke="#94ACBC" stroke-width="0.25" stroke-miterlimit="10"/>
<g opacity="0.51">
<path opacity="0.51" d="M-313.44 260.016C-62.354 587.623 213.143 719.797 827.162 491.573C996.141 428.76 1193.85 460.261 1345.34 551.733C1478.81 632.315 1917.13 1009.85 2215.99 809.744" stroke="#94ACBC" stroke-miterlimit="10"/>
<path opacity="0.51" d="M2217.06 766.038C1917.08 974.404 1493.19 630.93 1346.21 551.71C1192.48 468.875 998.343 435.028 827.463 494.554C706.344 536.734 597.408 568.375 497.415 588.28C127.37 661.913 -111.486 555.536 -317.036 295.037" stroke="#94ACBC" stroke-width="0.9318" stroke-miterlimit="10"/>
<path opacity="0.51" d="M2218.12 722.332C1916.97 938.96 1507.98 629.24 1347.06 551.71C1191.67 476.879 1000.55 441.412 827.726 497.535C708.439 536.288 599.855 568.211 498.101 589.947C150.754 664.167 -110.425 589.031 -320.692 330.058" stroke="#94ACBC" stroke-width="0.8636" stroke-miterlimit="10"/>
<path opacity="0.51" d="M2219.2 678.626C1916.9 903.54 1523.12 627.174 1347.9 551.71C1191.27 484.273 1002.83 447.867 828.004 500.54C710.548 535.913 602.316 567.976 498.825 591.637C174.106 665.857 -109.325 622.526 -324.334 365.103" stroke="#94ACBC" stroke-width="0.7955" stroke-miterlimit="10"/>
<path opacity="0.51" d="M2220.28 634.92C1916.83 868.096 1538.57 624.662 1348.77 551.71C1191.18 491.15 1005.16 454.416 828.29 503.544C712.711 535.631 604.761 567.671 499.557 593.327C197.394 667.007 -108.242 656.045 -327.945 400.147" stroke="#94ACBC" stroke-width="0.7273" stroke-miterlimit="10"/>
<path opacity="0.51" d="M2221.36 591.214C1916.76 832.653 1554.22 621.658 1349.63 551.71C1191.29 497.582 1007.52 461.082 828.591 506.549C714.937 535.42 607.245 567.249 500.304 595.017C220.581 667.664 -107.119 689.541 -331.54 435.192" stroke="#94ACBC" stroke-width="0.6591" stroke-miterlimit="10"/>
<path opacity="0.51" d="M2222.41 547.508C1916.66 797.233 1570.04 618.137 1350.45 551.71C1191.47 503.614 1009.87 467.842 828.823 509.53C717.094 535.255 609.59 566.662 500.959 596.683C243.582 667.828 -106.089 723.036 -335.228 470.213" stroke="#94ACBC" stroke-width="0.5909" stroke-miterlimit="10"/>
<path opacity="0.51" d="M2223.5 503.802C1916.59 761.789 1585.98 614.076 1351.33 551.71C1191.79 509.295 1012.29 474.72 829.134 512.534C719.33 535.209 611.99 565.911 501.716 598.373C266.568 667.57 -104.956 756.531 -338.813 505.258" stroke="#94ACBC" stroke-width="0.5227" stroke-miterlimit="10"/>
<path opacity="0.51" d="M2224.58 460.096C1916.53 726.346 1602.02 609.452 1352.18 551.71C1192.09 514.717 1014.71 481.738 829.394 515.538C721.561 535.208 614.268 564.972 502.422 600.063C289.361 666.89 -103.875 790.027 -342.45 540.302" stroke="#94ACBC" stroke-width="0.4545" stroke-miterlimit="10"/>
<path opacity="0.51" d="M2225.66 416.39C1916.45 690.902 1618.07 604.241 1353.04 551.71C1192.4 519.857 1017.17 488.897 829.698 518.543C723.814 535.279 616.497 563.728 503.171 601.753C312.081 665.857 -102.749 823.545 -346.066 575.347" stroke="#94ACBC" stroke-width="0.3864" stroke-miterlimit="10"/>
<path opacity="0.51" d="M2226.71 372.685C1916.33 655.482 1634.1 598.467 1353.88 551.71C1192.6 524.81 1019.61 496.197 829.951 521.524C726.015 535.42 618.51 562.085 503.847 603.396C334.516 664.401 -101.698 856.994 -349.733 610.344" stroke="#94ACBC" stroke-width="0.3182" stroke-miterlimit="10"/>
<path opacity="0.51" d="M2227.79 328.979C1654.64 864.482 1235.02 320.2 504.579 605.11C356.819 662.735 -100.614 890.536 -353.344 645.412" stroke="#94ACBC" stroke-width="0.25" stroke-miterlimit="10"/>
</g>
<g opacity="0.19">
<path opacity="0.19" d="M-496.153 -185C-244.152 120.824 255.696 449.768 777.749 172.581C921.425 96.2951 1098.01 215.348 1240.32 294.122C1365.71 363.53 1787.87 703.835 2033.79 480.283" stroke="#94ACBC" stroke-miterlimit="10"/>
<path opacity="0.19" d="M2029.17 429.77C1780.08 665.341 1377.78 345.175 1238.26 276.588C1095.59 206.475 922.646 96.3891 774.792 173.661C676.865 225.136 579.36 259.43 482.7 275.837C101.599 340.527 -293.772 119.017 -501.434 -126.225" stroke="#94ACBC" stroke-width="0.9318" stroke-miterlimit="10"/>
<path opacity="0.19" d="M2024.54 379.233C1772.28 626.822 1390.31 326.467 1236.19 259.054C1093.83 196.781 923.726 96.1543 771.859 174.74C675.645 224.526 579.783 262.34 482.888 282.221C129.509 354.658 -295.227 175.632 -506.715 -67.4495" stroke="#94ACBC" stroke-width="0.8636" stroke-miterlimit="10"/>
<path opacity="0.19" d="M2019.92 328.697C1764.46 588.304 1403.22 307.36 1234.13 241.496C1092.52 186.336 924.898 96.1074 768.899 175.797C674.469 224.033 580.274 265.063 483.051 288.559C157.416 367.286 -296.684 232.225 -512.021 -8.67407" stroke="#94ACBC" stroke-width="0.7955" stroke-miterlimit="10"/>
<path opacity="0.19" d="M2015.29 278.184C1756.67 549.808 1416.43 287.784 1232.06 223.962C1091.5 175.304 926.09 96.1308 765.937 176.876C673.291 223.61 580.833 267.574 483.21 294.943C185.226 378.482 -298.168 288.84 -517.308 50.1246" stroke="#94ACBC" stroke-width="0.7273" stroke-miterlimit="10"/>
<path opacity="0.19" d="M2010.67 227.648C1748.88 511.267 1429.89 267.598 1230 206.428C1090.71 163.802 927.318 96.1543 763.011 177.956C672.172 223.188 581.427 269.804 483.429 301.304C212.908 388.247 -299.569 345.456 -522.558 108.9" stroke="#94ACBC" stroke-width="0.6591" stroke-miterlimit="10"/>
<path opacity="0.19" d="M2006.05 177.111C1741.09 472.748 1443.53 246.801 1227.93 188.871C1090.05 151.808 928.54 96.2247 760.054 179.036C671.046 222.789 581.944 271.706 483.594 307.689C240.254 396.697 -301.047 402.096 -527.839 167.699" stroke="#94ACBC" stroke-width="0.5909" stroke-miterlimit="10"/>
<path opacity="0.19" d="M2001.42 126.598C1733.3 434.253 1457.28 225.324 1225.87 171.337C1089.44 139.508 929.784 96.3421 757.12 180.116C669.942 222.413 582.343 273.184 483.782 314.05C267.224 403.88 -302.502 458.688 -533.12 226.474" stroke="#94ACBC" stroke-width="0.5227" stroke-miterlimit="10"/>
<path opacity="0.19" d="M1996.79 76.0618C1725.47 395.735 1471.12 203.095 1223.79 153.779C1088.83 126.88 931.068 96.4829 754.155 181.172C668.809 222.038 582.477 274.053 483.939 320.411C293.671 409.935 -303.964 515.304 -538.432 285.249" stroke="#94ACBC" stroke-width="0.4545" stroke-miterlimit="10"/>
<path opacity="0.19" d="M1992.17 25.5253C1717.68 357.216 1485.02 180.092 1221.73 136.245C1088.19 113.993 932.36 96.6941 751.198 182.252C667.683 221.685 582.196 274.217 484.104 326.772C319.444 415.005 -305.442 571.896 -543.712 344.024" stroke="#94ACBC" stroke-width="0.3864" stroke-miterlimit="10"/>
<path opacity="0.19" d="M1987.52 -24.9875C1709.86 318.721 1498.87 156.338 1219.64 118.711C1087.46 100.919 933.742 97.1871 748.239 183.331C666.625 221.474 581.161 273.443 484.267 333.157C344.37 419.372 -306.923 628.535 -549.019 402.823" stroke="#94ACBC" stroke-width="0.3182" stroke-miterlimit="10"/>
<path opacity="0.19" d="M1982.9 -75.524C1525.14 504.319 1310.39 -255.582 484.457 339.518C368.174 423.291 -308.352 685.151 -554.274 461.599" stroke="#94ACBC" stroke-width="0.25" stroke-miterlimit="10"/>
</g>
<path d="M-347.386 259.923C-77.8978 550.466 183.774 644.497 688.693 337.194C827.65 252.623 1005.95 257.481 1152.63 327.782C1281.87 389.726 1723.25 704.704 1955.65 467.138" stroke="#2A9359" stroke-width="3" stroke-miterlimit="10"/>
<path d="M-518.314 499.484C-239.037 218.329 25.6861 133.288 519.807 457.655C655.783 546.922 834.152 548.166 983.155 482.912C1114.44 425.428 1566.33 125.707 1790.47 371.089" stroke="#013C76" stroke-width="3" stroke-miterlimit="10"/>
</g>
</g>
<defs>
<clipPath id="clip0_1293_6">
<rect width="1436" height="682" fill="white"/>
</clipPath>
</defs>
</svg>
