<svg width="365" height="228" viewBox="0 0 365 228" fill="none" xmlns="http://www.w3.org/2000/svg">
<mask id="mask0_320_1080" style="mask-type:alpha" maskUnits="userSpaceOnUse" x="0" y="0" width="365" height="228">
<rect width="365" height="228" rx="4" fill="#55B282"/>
</mask>
<g mask="url(#mask0_320_1080)">
<g opacity="0.25">
<path d="M-22.2881 4.27757C181.278 -212.73 372.891 -279.715 726.953 -35.3891C824.397 31.8483 953.057 31.4709 1061.03 -19.5008C1156.17 -64.4156 1484.4 -296.898 1644.28 -110.966" stroke="#F6F9FB" stroke-width="3" stroke-miterlimit="10"/>
<path d="M63.9131 -246.375C270.593 -23.1787 471.279 49.0562 858.518 -187.015C965.089 -251.983 1101.83 -248.25 1214.33 -194.245C1313.44 -146.66 1651.95 95.3075 1830.19 -87.1912" stroke="#F6F9FB" stroke-width="3" stroke-miterlimit="10"/>
<path d="M-89.5459 -337.976C103.723 -103.041 299.836 -19.1397 700.217 -232.076C810.406 -290.679 946.699 -278.922 1055.84 -218.408C1152.01 -165.088 1475.78 96.3352 1664.38 -75.3986" stroke="#F6F9FB" stroke-miterlimit="10"/>
<path d="M1652.68 -213.936C1463.34 -10.5567 1202.52 -149.148 1059.59 -189.665C948.067 -221.275 821.153 -237.738 703.097 -191.919C626.913 -162.366 555.373 -131.044 483.833 -102.951C300.682 -31.0587 80.1222 6.2308 -89.5459 -173.87" stroke="#F6F9FB" stroke-width="0.6591" stroke-miterlimit="10"/>
<path d="M1650.34 -241.651C1460.85 -31.9423 1213.15 -147.003 1060.35 -183.913C948.859 -210.853 823.422 -226.919 703.691 -183.895C628.677 -156.938 557.317 -125.996 484.77 -96.0269C316.47 -26.5148 83.2726 37.642 -89.5459 -141.052" stroke="#F6F9FB" stroke-width="0.5909" stroke-miterlimit="10"/>
<path d="M1648 -269.366C1458.37 -53.3279 1223.82 -145.29 1061.1 -178.179C949.687 -200.701 825.726 -216.046 704.267 -175.871C630.441 -151.456 559.171 -121.055 485.706 -89.1028C332.149 -22.2954 86.4409 69.0712 -89.5459 -108.252" stroke="#F6F9FB" stroke-width="0.5227" stroke-miterlimit="10"/>
<path d="M1645.66 -297.062C1455.86 -74.6955 1234.53 -143.991 1061.86 -172.409C950.532 -190.729 828.065 -205.029 704.841 -167.829C632.222 -145.903 560.97 -116.277 486.622 -82.1426C347.665 -18.3284 89.5717 100.518 -89.5654 -75.3987" stroke="#F6F9FB" stroke-width="0.4545" stroke-miterlimit="10"/>
<path d="M1643.32 -324.777C1453.38 -96.0811 1245.24 -143.162 1062.61 -166.675C951.323 -181.01 830.422 -193.921 705.435 -159.805C634.021 -140.313 562.661 -111.733 487.575 -75.2184C363.056 -14.686 92.7572 131.93 -89.5303 -42.5811" stroke="#F6F9FB" stroke-width="0.3864" stroke-miterlimit="10"/>
<path d="M1640.98 -352.474C1450.9 -117.449 1255.9 -142.747 1063.35 -160.923C952.063 -171.417 832.765 -182.687 705.995 -151.781C635.806 -134.669 564.176 -107.441 488.496 -68.2942C378.252 -11.278 95.9099 163.341 -89.5459 -9.78141" stroke="#F6F9FB" stroke-width="0.3182" stroke-miterlimit="10"/>
<path d="M1638.64 -380.188C1287.55 65.2485 964.773 -324.903 489.432 -61.352C393.266 -8.03229 99.0602 194.788 -89.5459 23.0543" stroke="#F6F9FB" stroke-width="0.25" stroke-miterlimit="10"/>
<path d="M-311.854 36.3798C-106.741 -188.259 93.4408 -261.918 482.318 -28.5704C589.34 35.6405 726.046 30.9522 838.18 -23.8461C936.957 -72.1169 1523.82 -347.839 1703.32 -166.585" stroke="#F6F9FB" stroke-miterlimit="10"/>
<path d="M1700.2 -140.168C1517.47 -329.736 955.77 -76.751 839.19 -27.7409C725.219 20.1693 591.033 27.8688 483.13 -32.6636C404.101 -77.0215 332.633 -111.372 266.656 -135.877C26.9067 -224.881 -145.876 -166.441 -311.439 11.6944" stroke="#F6F9FB" stroke-width="0.9318" stroke-miterlimit="10"/>
<path d="M1697.09 -113.77C1511.13 -311.668 975.086 -81.0066 840.198 -31.6718C725.04 10.4321 592.743 20.043 483.94 -36.7928C405.271 -77.8871 333.822 -111.715 267.179 -137.356C42.2265 -223.908 -143.121 -190.477 -310.989 -12.973" stroke="#F6F9FB" stroke-width="0.8636" stroke-miterlimit="10"/>
<path d="M1693.97 -87.3717C1504.79 -293.582 994.741 -84.721 841.202 -35.6027C725.27 1.48851 594.486 12.1813 484.746 -40.9401C406.474 -78.8247 335.006 -112.039 267.679 -138.87C57.4166 -222.663 -140.424 -214.531 -310.597 -37.6583" stroke="#F6F9FB" stroke-width="0.7955" stroke-miterlimit="10"/>
<path d="M1690.86 -60.9552C1498.45 -275.478 1014.67 -87.8405 842.212 -39.5156C725.739 -6.87819 596.251 4.28341 485.539 -45.0513C407.681 -79.7443 336.177 -112.255 268.184 -140.349C72.5393 -221.131 -137.705 -238.567 -310.182 -62.3437" stroke="#F6F9FB" stroke-width="0.7273" stroke-miterlimit="10"/>
<path d="M1681.52 18.2579C1479.43 -221.221 1075.34 -93.4484 845.238 -51.2722C727.667 -29.7244 601.744 -19.6988 487.954 -57.4031C411.446 -82.7376 339.546 -112.562 269.716 -144.785C117.366 -215.072 -129.512 -310.694 -308.901 -136.382" stroke="#F6F9FB" stroke-width="0.5227" stroke-miterlimit="10"/>
<path d="M1678.4 44.6563C1473.09 -203.153 1095.68 -94.0073 846.245 -55.2031C728.314 -36.8469 603.597 -27.831 488.763 -61.5323C412.74 -83.8375 340.589 -112.49 270.237 -146.281C132.108 -212.602 -126.777 -334.748 -308.471 -161.085" stroke="#F6F9FB" stroke-width="0.4545" stroke-miterlimit="10"/>
<path d="M1675.29 71.0548C1466.76 -185.067 1116.04 -93.9171 847.257 -59.116C728.931 -43.8071 605.473 -36.0174 489.577 -65.6435C414.041 -84.9554 341.565 -112.255 270.746 -147.76C146.73 -209.915 -124.073 -358.767 -308.07 -185.753" stroke="#F6F9FB" stroke-width="0.3864" stroke-miterlimit="10"/>
<path d="M1672.17 97.453C1460.42 -166.982 1136.38 -93.1419 848.242 -63.047C729.483 -50.6412 607.34 -44.276 490.346 -69.7728C415.296 -86.1276 342.388 -111.841 271.226 -149.239C161.217 -207.066 -121.342 -382.821 -307.644 -210.438" stroke="#F6F9FB" stroke-width="0.3182" stroke-miterlimit="10"/>
<path d="M1669.06 123.87C1317.99 -321.567 747.108 112.834 271.749 -150.717C175.583 -204.037 -118.622 -406.857 -307.229 -235.123" stroke="#F6F9FB" stroke-width="0.25" stroke-miterlimit="10"/>
<path d="M1742.61 -459.564C1549.33 -224.629 1165.98 28.067 765.595 -184.869C655.405 -243.472 519.977 -152.015 410.831 -91.5011C314.665 -38.1814 -9.0999 223.242 -197.706 51.5082" stroke="#F6F9FB" stroke-miterlimit="10"/>
<path d="M-194.901 16.7431C-3.86494 197.709 304.67 -48.2431 411.674 -100.932C521.089 -154.792 653.727 -239.361 767.122 -180.001C842.226 -140.457 917.005 -114.113 991.137 -101.509C1283.43 -51.8134 1586.64 -221.978 1745.92 -410.374" stroke="#F6F9FB" stroke-width="0.9318" stroke-miterlimit="10"/>
<path d="M-192.089 -18.0219C1.37781 172.176 294.323 -58.5572 412.524 -110.344C521.705 -158.182 652.165 -235.484 768.638 -175.114C842.428 -136.869 915.947 -107.82 990.259 -92.5469C1261.28 -36.8831 1587.01 -174.429 1749.22 -361.147" stroke="#F6F9FB" stroke-width="0.8636" stroke-miterlimit="10"/>
<path d="M-189.28 -52.787C6.63468 146.643 283.684 -69.1779 413.37 -119.775C521.976 -162.149 650.527 -231.463 770.168 -170.245C842.59 -133.19 914.832 -101.671 989.396 -83.6213C1239.14 -23.143 1587.4 -126.897 1752.55 -311.957" stroke="#F6F9FB" stroke-width="0.7955" stroke-miterlimit="10"/>
<path d="M-186.476 -87.5521C11.8696 121.111 272.808 -80.1772 414.213 -129.205C522.008 -166.585 648.868 -227.406 771.695 -165.377C842.748 -129.476 913.658 -95.7025 988.528 -74.6775C1217.06 -10.5027 1587.79 -79.3658 1755.86 -262.748" stroke="#F6F9FB" stroke-width="0.7273" stroke-miterlimit="10"/>
<path d="M-178.031 -191.865C27.6047 44.4759 239.289 -116.024 416.77 -157.497C521.397 -181.948 643.847 -215.108 776.269 -150.753C843.128 -118.26 910.311 -79.2576 985.901 -47.8644C1151.99 21.1429 1588.93 63.2469 1765.8 -115.141" stroke="#F6F9FB" stroke-width="0.5227" stroke-miterlimit="10"/>
<path d="M-175.227 -226.649C32.8577 18.9249 227.927 -129.061 417.613 -166.946C521.124 -187.61 642.115 -210.961 777.795 -145.903C843.25 -114.51 909.461 -74.5514 985.033 -38.9388C1130.96 29.8341 1589.3 110.778 1769.13 -65.9503" stroke="#F6F9FB" stroke-width="0.4545" stroke-miterlimit="10"/>
<path d="M-172.41 -261.414C38.1043 -6.60803 216.539 -142.675 418.467 -176.358C520.88 -193.452 640.395 -206.742 779.334 -141.016C843.384 -110.723 908.947 -70.3681 984.177 -29.9951C1110.46 37.786 1589.71 158.31 1772.45 -16.7418" stroke="#F6F9FB" stroke-width="0.3864" stroke-miterlimit="10"/>
<path d="M-169.605 -296.179C43.3393 -32.1408 205.159 -156.884 419.309 -185.789C520.678 -199.457 638.573 -202.324 780.842 -136.148C843.435 -106.846 908.98 -66.9239 983.292 -21.0513C1090.58 45.1791 1590.08 205.86 1775.75 32.4668" stroke="#F6F9FB" stroke-width="0.3182" stroke-miterlimit="10"/>
<path d="M-166.793 -330.944C184.299 114.493 348.998 -469.265 982.414 -12.1076C1071.6 52.2475 1590.45 253.409 1779.05 81.6752" stroke="#F6F9FB" stroke-width="0.25" stroke-miterlimit="10"/>
<g opacity="0.51">
<path opacity="0.51" d="M-70.6074 -179.424C121.959 72.2447 333.248 173.781 804.16 -1.54097C933.756 -49.7938 1085.39 -25.5952 1201.57 44.6743C1303.93 106.577 1640.1 396.599 1869.3 242.879" stroke="#F6F9FB" stroke-miterlimit="10"/>
<path opacity="0.51" d="M1870.12 209.304C1640.06 369.371 1314.96 105.513 1202.23 44.6563C1084.34 -18.9776 935.445 -44.9793 804.391 0.749085C711.501 33.152 627.954 57.4588 551.265 72.7497C267.465 129.315 84.2776 47.5955 -73.3652 -152.52" stroke="#F6F9FB" stroke-width="0.9318" stroke-miterlimit="10"/>
<path opacity="0.51" d="M1870.94 175.729C1639.97 342.143 1326.31 104.215 1202.88 44.6563C1083.71 -12.8287 937.14 -40.0746 804.592 3.03918C713.106 32.8095 629.83 57.3326 551.791 74.0299C285.399 131.046 85.0913 73.3267 -76.1699 -125.617" stroke="#F6F9FB" stroke-width="0.8636" stroke-miterlimit="10"/>
<path opacity="0.51" d="M1871.76 142.154C1639.91 314.933 1337.91 102.628 1203.53 44.6562C1083.4 -7.14879 938.884 -35.1159 804.806 5.34719C714.724 32.5209 631.717 57.1522 552.347 75.3282C303.308 132.344 85.9347 99.0579 -78.9629 -98.6957" stroke="#F6F9FB" stroke-width="0.7955" stroke-miterlimit="10"/>
<path opacity="0.51" d="M1872.59 108.579C1639.86 287.705 1349.76 100.699 1204.2 44.6562C1083.34 -1.86557 940.67 -30.0851 805.025 7.65518C716.384 32.3045 633.593 56.9178 552.908 76.6264C321.17 133.228 86.7666 124.807 -81.7314 -71.7744" stroke="#F6F9FB" stroke-width="0.7273" stroke-miterlimit="10"/>
<path opacity="0.51" d="M1873.42 75.0036C1639.81 260.478 1361.77 98.3907 1204.86 44.6562C1083.42 3.07517 942.484 -24.9641 805.256 9.9633C718.091 32.1423 635.498 56.5932 553.481 77.9247C338.952 133.733 87.6271 150.538 -84.4893 -44.853" stroke="#F6F9FB" stroke-width="0.6591" stroke-miterlimit="10"/>
<path opacity="0.51" d="M1874.23 41.4286C1639.73 233.268 1373.9 95.6859 1205.49 44.6562C1083.56 7.70927 944.283 -19.771 805.434 12.2533C719.745 32.016 637.296 56.1424 553.983 79.2049C356.592 133.859 88.4174 176.27 -87.3174 -17.9498" stroke="#F6F9FB" stroke-width="0.5909" stroke-miterlimit="10"/>
<path opacity="0.51" d="M1875.06 7.8535C1639.68 206.04 1386.13 92.5664 1206.16 44.6562C1083.8 12.0729 946.141 -14.4878 805.672 14.5613C721.459 31.9799 639.137 55.5654 554.563 80.5032C374.22 133.661 89.2858 202.001 -90.0674 8.97151" stroke="#F6F9FB" stroke-width="0.5227" stroke-miterlimit="10"/>
<path opacity="0.51" d="M1875.89 -25.7214C1639.63 178.812 1398.42 89.0142 1206.81 44.6562C1084.04 16.2383 947.997 -9.09623 805.872 16.8694C723.171 31.98 640.884 54.8442 555.105 81.8015C391.701 133.138 90.1151 227.732 -92.8564 35.8929" stroke="#F6F9FB" stroke-width="0.4545" stroke-miterlimit="10"/>
<path opacity="0.51" d="M1876.72 -59.2964C1639.58 151.584 1410.74 85.0112 1207.48 44.6563C1084.27 20.1873 949.887 -3.59651 806.106 19.1775C724.899 32.0341 642.594 53.8885 555.681 83.0999C409.127 132.344 90.9791 253.481 -95.6289 62.8142" stroke="#F6F9FB" stroke-width="0.3864" stroke-miterlimit="10"/>
<path opacity="0.51" d="M1877.52 -92.8715C1639.48 124.374 1423.03 80.5753 1208.12 44.6562C1084.43 23.9919 951.755 2.01129 806.299 21.4675C726.587 32.1422 644.138 52.6262 556.199 84.362C426.333 131.226 91.7849 279.176 -98.4414 89.6994" stroke="#F6F9FB" stroke-width="0.3182" stroke-miterlimit="10"/>
<path opacity="0.51" d="M1878.35 -126.446C1438.78 284.929 1116.96 -133.19 556.759 85.6784C443.437 129.946 92.6158 304.944 -101.211 116.639" stroke="#F6F9FB" stroke-width="0.25" stroke-miterlimit="10"/>
</g>
<g opacity="0.19">
<path opacity="0.19" d="M-210.737 -521.286C-17.4687 -286.352 365.882 -33.6554 766.263 -246.592C876.453 -305.195 1011.88 -213.738 1121.03 -153.224C1217.19 -99.9038 1540.96 161.52 1729.56 -10.2142" stroke="#F6F9FB" stroke-miterlimit="10"/>
<path opacity="0.19" d="M1726.02 -49.0183C1534.98 131.948 1226.45 -114.005 1119.44 -166.693C1010.03 -220.554 877.39 -305.122 763.996 -245.762C688.892 -206.219 614.111 -179.874 539.98 -167.27C247.7 -117.575 -55.5241 -287.74 -214.787 -476.135" stroke="#F6F9FB" stroke-width="0.9318" stroke-miterlimit="10"/>
<path opacity="0.19" d="M1722.47 -87.8406C1529 102.358 1236.06 -128.376 1117.86 -180.163C1008.68 -228.001 878.217 -305.303 761.745 -244.933C687.955 -206.687 614.435 -177.638 540.123 -162.366C269.104 -106.72 -56.6406 -244.247 -218.838 -430.984" stroke="#F6F9FB" stroke-width="0.8636" stroke-miterlimit="10"/>
<path opacity="0.19" d="M1694.08 -398.364C1481.13 -134.326 1319.31 -259.069 1105.16 -287.974C1003.79 -301.642 885.899 -304.509 743.63 -238.333C681.037 -209.031 615.492 -169.109 541.18 -123.237C433.889 -57.0063 -65.6104 103.674 -251.282 -69.7187" stroke="#F6F9FB" stroke-width="0.3182" stroke-miterlimit="10"/>
<path opacity="0.19" d="M1690.53 -437.187C1339.46 8.25034 1174.76 -575.508 541.327 -118.35C452.145 -53.995 -66.7064 147.167 -255.312 -24.5673" stroke="#F6F9FB" stroke-width="0.25" stroke-miterlimit="10"/>
</g>
<path d="M-96.6436 -179.495C110.037 43.7008 310.722 115.936 697.961 -120.135C804.533 -185.103 941.275 -181.371 1053.77 -127.366C1152.89 -79.7802 1491.4 162.187 1669.63 -20.3117" stroke="#F6F9FB" stroke-width="3" stroke-miterlimit="10"/>
<path d="M-227.733 4.53587C-13.5465 -211.448 189.479 -276.777 568.438 -27.5966C672.723 40.9779 809.52 41.9336 923.796 -8.19449C1024.48 -52.3541 1371.05 -282.601 1542.95 -94.0975" stroke="#F6F9FB" stroke-width="3" stroke-miterlimit="10"/>
</g>
</g>
</svg>
