<svg width="1384" height="257" viewBox="0 0 1384 257" fill="none" xmlns="http://www.w3.org/2000/svg">
<mask id="mask0_647_637" style="mask-type:alpha" maskUnits="userSpaceOnUse" x="-3" y="0" width="1390" height="257">
<rect x="-3" width="1390" height="257" fill="#013C76"/>
</mask>
<g mask="url(#mask0_647_637)">
<g opacity="0.25">
<path d="M-136.227 299.259C66.7817 83.2035 257.869 16.5116 610.962 259.766C708.139 326.709 836.447 326.333 944.126 275.585C1039.01 230.867 1366.34 -0.595314 1525.77 184.521" stroke="#F6F9FB" stroke-width="3" stroke-miterlimit="10"/>
<path d="M-50.2617 49.7055C155.852 271.923 355.988 343.841 742.166 108.806C848.446 44.1223 984.814 47.8385 1097 101.607C1195.85 148.983 1533.43 389.889 1711.18 208.191" stroke="#F6F9FB" stroke-width="3" stroke-miterlimit="10"/>
<path d="M-203.299 -41.4938C-10.5597 192.411 185.016 275.944 584.3 63.9418C694.188 5.59587 830.107 17.3009 938.954 77.5499C1034.86 130.636 1357.73 390.913 1545.82 219.932" stroke="#F6F9FB" stroke-miterlimit="10"/>
<path d="M1543.49 192.339C1355.25 369.621 1044.4 134.352 939.686 83.2588C829.762 29.6344 696.231 16.0084 584.871 71.9307C504.515 112.27 431.986 143.49 364.79 164.871C121.712 242.211 -46.7018 176.038 -203.32 -8.82009" stroke="#F6F9FB" stroke-width="0.9318" stroke-miterlimit="10"/>
<path d="M1541.16 164.746C1352.78 348.329 1054.3 137.835 940.444 88.9857C829.82 41.519 698.335 26.4927 585.449 79.9196C506.134 117.459 433.965 148.84 365.727 171.765C137.908 248.279 -43.5386 207.311 -203.299 23.8536" stroke="#F6F9FB" stroke-width="0.8636" stroke-miterlimit="10"/>
<path d="M1538.82 137.17C1350.28 327.055 1064.42 141.084 941.198 94.7125C830.197 52.9548 700.489 37.0308 586.023 87.9265C507.786 122.701 435.94 154.154 366.66 178.677C154.012 253.934 -40.3969 238.603 -203.299 56.5274" stroke="#F6F9FB" stroke-width="0.7955" stroke-miterlimit="10"/>
<path d="M1536.49 109.577C1347.81 305.763 1074.75 143.975 941.952 100.439C830.771 63.9957 702.679 47.6409 586.616 95.9154C509.491 127.997 437.932 159.378 367.594 185.571C170.008 259.176 -37.2372 269.894 -203.299 89.2011" stroke="#F6F9FB" stroke-width="0.7273" stroke-miterlimit="10"/>
<path d="M1534.15 82.0021C1345.33 284.49 1085.23 146.506 942.688 106.166C831.471 74.6954 704.905 58.3047 587.172 103.922C511.197 133.347 439.853 164.53 368.51 192.5C185.86 264.077 -34.0955 301.203 -203.299 121.893" stroke="#F6F9FB" stroke-width="0.6591" stroke-miterlimit="10"/>
<path d="M1531.82 54.409C1342.85 263.198 1095.82 148.642 943.442 111.893C832.261 85.072 707.167 69.0762 587.765 111.911C512.956 138.75 441.792 169.557 369.443 199.394C201.604 268.601 -30.9538 332.477 -203.299 154.567" stroke="#F6F9FB" stroke-width="0.5909" stroke-miterlimit="10"/>
<path d="M1529.49 26.8158C1340.37 241.906 1106.47 150.348 944.196 117.602C833.087 95.1793 709.465 79.9017 588.339 119.9C514.716 144.208 443.641 174.476 370.377 206.288C217.241 272.802 -27.7942 363.768 -203.299 187.222" stroke="#F6F9FB" stroke-width="0.5227" stroke-miterlimit="10"/>
<path d="M1527.15 -0.759361C1337.87 220.632 1117.15 151.64 944.946 123.347C833.927 105.107 711.796 90.8707 588.91 127.907C516.489 149.737 445.433 179.233 371.289 213.218C232.713 276.752 -24.674 395.078 -203.32 219.932" stroke="#F6F9FB" stroke-width="0.4545" stroke-miterlimit="10"/>
<path d="M1524.81 -28.3525C1335.4 199.34 1127.83 152.466 945.699 129.056C834.716 114.784 714.147 101.93 589.502 135.896C518.284 155.303 447.12 183.757 372.239 220.112C248.061 280.378 -21.4971 426.351 -203.285 252.606" stroke="#F6F9FB" stroke-width="0.3864" stroke-miterlimit="10"/>
<path d="M1522.49 -55.9277C1332.92 178.066 1138.46 152.879 946.44 134.783C835.457 124.334 716.485 113.114 590.063 143.885C520.066 160.922 448.632 188.03 373.159 227.005C263.218 283.771 -18.3511 457.624 -203.299 285.261" stroke="#F6F9FB" stroke-width="0.3182" stroke-miterlimit="10"/>
<path d="M1520.15 -83.5209C1170.02 359.962 848.131 -28.4782 374.093 233.917C278.19 287.003 -15.2094 488.934 -203.299 317.953" stroke="#F6F9FB" stroke-width="0.25" stroke-miterlimit="10"/>
<path d="M-425 331.22C-220.448 107.567 -20.8151 34.2303 366.997 266.555C473.725 330.484 610.057 325.816 721.884 271.259C820.39 223.199 1405.64 -51.3139 1584.65 129.146" stroke="#F6F9FB" stroke-miterlimit="10"/>
<path d="M1581.55 155.446C1399.31 -33.2895 839.152 218.585 722.891 267.381C609.233 315.081 475.414 322.746 367.806 262.48C288.994 218.316 217.722 184.117 151.926 159.719C-87.1667 71.1049 -259.476 129.289 -424.586 306.643" stroke="#F6F9FB" stroke-width="0.9318" stroke-miterlimit="10"/>
<path d="M1578.44 181.729C1392.99 -15.301 858.414 214.349 723.896 263.467C609.053 305.386 477.119 314.955 368.613 258.369C290.16 217.455 218.907 183.775 152.446 158.247C-71.8897 72.0743 -256.73 105.358 -424.138 282.084" stroke="#F6F9FB" stroke-width="0.8636" stroke-miterlimit="10"/>
<path d="M1575.33 208.011C1386.67 2.70548 878.016 210.65 724.898 259.553C609.284 296.482 478.858 307.128 369.419 254.239C291.361 216.521 220.089 183.452 152.946 156.739C-56.7401 73.313 -254.039 81.4097 -423.745 257.507" stroke="#F6F9FB" stroke-width="0.7955" stroke-miterlimit="10"/>
<path d="M1572.23 234.312C1380.35 20.7299 897.891 207.545 725.905 255.658C609.752 288.152 480.619 299.265 370.21 250.146C292.565 215.605 221.257 183.237 153.45 155.267C-41.6587 74.839 -251.327 57.4789 -423.331 232.93" stroke="#F6F9FB" stroke-width="0.7273" stroke-miterlimit="10"/>
<path d="M1569.12 260.595C1374.02 38.7184 917.948 205.031 726.896 251.762C610.33 280.271 482.399 291.365 371.004 246.053C293.789 214.654 222.392 183.057 153.957 153.795C-26.6466 76.5984 -248.595 33.5301 -422.896 208.353" stroke="#F6F9FB" stroke-width="0.6591" stroke-miterlimit="10"/>
<path d="M1566.02 286.877C1367.69 56.7249 938.123 203.164 727.916 247.848C610.991 272.695 484.245 283.394 371.826 241.942C295.061 213.649 223.538 182.932 154.474 152.322C-11.7491 78.627 -245.869 9.59929 -422.469 183.775" stroke="#F6F9FB" stroke-width="0.5909" stroke-miterlimit="10"/>
<path d="M1562.91 313.178C1361.37 74.7493 958.393 201.961 728.923 243.953C611.674 265.406 486.096 275.388 372.617 237.849C296.319 212.625 224.616 182.932 154.978 150.85C3.04498 80.8711 -243.157 -14.3316 -422.055 159.216" stroke="#F6F9FB" stroke-width="0.5227" stroke-miterlimit="10"/>
<path d="M1559.8 339.46C1355.05 92.7378 978.676 201.405 729.925 240.039C612.317 258.315 487.942 267.291 373.422 233.738C297.608 211.53 225.654 183.003 155.495 149.36C17.7451 83.3306 -240.431 -38.2803 -421.627 134.621" stroke="#F6F9FB" stroke-width="0.4545" stroke-miterlimit="10"/>
<path d="M1556.7 365.743C1348.74 110.744 998.985 201.495 730.935 236.143C612.932 251.385 489.813 259.14 374.234 229.644C298.905 210.417 226.628 183.237 156.003 147.888C32.327 86.0056 -237.734 -62.1932 -421.228 110.062" stroke="#F6F9FB" stroke-width="0.3864" stroke-miterlimit="10"/>
<path d="M1553.59 392.026C1342.42 128.751 1019.27 202.267 731.919 232.23C613.486 244.581 491.677 250.918 375.003 225.533C300.159 209.25 227.451 183.65 156.484 146.416C46.7757 88.842 -235.008 -86.142 -420.8 85.4849" stroke="#F6F9FB" stroke-width="0.3182" stroke-miterlimit="10"/>
<path d="M1550.49 418.326C1200.38 -25.157 631.062 407.339 157.006 144.944C61.1031 91.8581 -232.296 -110.073 -420.386 60.9078" stroke="#F6F9FB" stroke-width="0.25" stroke-miterlimit="10"/>
<path d="M1623.84 -162.548C1431.08 71.3562 1048.78 322.944 649.498 110.942C539.61 52.5958 404.552 143.651 295.706 203.9C199.803 256.986 -123.075 517.263 -311.164 346.282" stroke="#F6F9FB" stroke-miterlimit="10"/>
<path d="M-308.366 311.67C-117.853 491.842 189.837 246.969 296.547 194.511C405.663 140.887 537.938 56.689 651.021 115.789C725.919 155.159 800.494 181.388 874.423 193.937C1165.92 243.414 1468.3 73.9953 1627.14 -113.574" stroke="#F6F9FB" stroke-width="0.9318" stroke-miterlimit="10"/>
<path d="M-305.561 277.057C-112.624 466.421 179.519 236.7 297.396 185.14C406.278 137.512 536.381 60.5488 652.534 120.654C726.122 158.732 799.44 187.653 873.548 202.859C1143.82 258.279 1468.66 121.336 1630.43 -64.5629" stroke="#F6F9FB" stroke-width="0.8636" stroke-miterlimit="10"/>
<path d="M-302.763 242.445C-107.384 441 168.906 226.126 298.237 175.751C406.545 133.562 534.744 64.5522 654.057 125.501C726.281 162.394 798.324 193.775 872.684 211.746C1121.74 271.959 1469.05 168.659 1633.75 -15.5882" stroke="#F6F9FB" stroke-width="0.7955" stroke-miterlimit="10"/>
<path d="M-299.965 207.832C-102.163 415.579 158.06 215.175 299.078 166.361C406.578 129.146 533.09 68.5915 655.58 130.348C726.439 166.092 797.155 199.717 871.819 220.65C1099.73 284.543 1469.44 215.982 1637.05 33.4044" stroke="#F6F9FB" stroke-width="0.7273" stroke-miterlimit="10"/>
<path d="M-297.146 173.201C-96.9201 390.123 147.056 203.757 299.94 156.972C406.471 124.37 531.439 72.6309 657.107 135.196C726.584 169.79 795.989 205.444 870.941 229.537C1077.84 296.033 1469.8 263.305 1640.35 82.3791" stroke="#F6F9FB" stroke-width="0.6591" stroke-miterlimit="10"/>
<path d="M-294.341 138.589C-91.6918 364.702 135.893 191.89 300.788 147.583C406.242 119.236 529.773 76.7241 658.637 140.061C726.713 173.525 794.862 210.938 870.083 238.459C1056.2 306.535 1470.2 310.664 1643.66 131.39" stroke="#F6F9FB" stroke-width="0.5909" stroke-miterlimit="10"/>
<path d="M-291.542 103.976C-86.4694 339.281 124.635 179.485 301.63 138.194C405.971 113.85 528.084 80.8352 660.143 144.908C726.819 177.259 793.819 216.09 869.202 247.346C1034.83 316.05 1470.58 357.97 1646.96 180.364" stroke="#F6F9FB" stroke-width="0.5227" stroke-miterlimit="10"/>
<path d="M-288.744 69.3456C-81.23 313.842 113.304 166.505 302.471 128.787C405.699 108.213 526.358 84.9643 661.667 149.737C726.942 180.993 792.972 220.776 868.337 256.232C1013.86 324.703 1470.95 405.293 1650.28 229.339" stroke="#F6F9FB" stroke-width="0.4545" stroke-miterlimit="10"/>
<path d="M-285.939 34.7329C-76.0017 288.421 101.944 152.951 303.319 119.415C405.451 102.396 524.639 89.1652 663.197 154.602C727.072 184.763 792.455 224.941 867.479 265.137C993.417 332.62 1471.35 452.616 1653.59 278.332" stroke="#F6F9FB" stroke-width="0.3864" stroke-miterlimit="10"/>
<path d="M-283.142 0.120331C-70.7803 263 90.5957 138.804 304.16 110.026C405.251 96.4181 522.823 93.5636 664.702 159.45C727.123 188.623 792.489 228.37 866.597 274.041C973.594 339.981 1471.73 499.957 1656.89 327.324" stroke="#F6F9FB" stroke-width="0.3182" stroke-miterlimit="10"/>
<path d="M-280.336 -34.4923C69.7937 408.991 234.042 -172.207 865.722 282.946C954.66 347.019 1472.09 547.298 1660.18 376.317" stroke="#F6F9FB" stroke-width="0.25" stroke-miterlimit="10"/>
<g opacity="0.51">
<path opacity="0.51" d="M-184.414 116.363C7.62494 366.928 218.335 468.019 687.957 293.466C817.198 245.425 968.412 269.517 1084.28 339.478C1186.36 401.11 1521.6 689.859 1750.18 536.813" stroke="#F6F9FB" stroke-miterlimit="10"/>
<path opacity="0.51" d="M1751 503.386C1521.57 662.751 1197.36 400.05 1084.94 339.46C967.369 276.106 818.883 250.218 688.188 295.746C595.553 328.007 512.234 352.207 435.756 367.431C152.734 423.748 -29.9521 342.387 -187.163 143.149" stroke="#F6F9FB" stroke-width="0.9318" stroke-miterlimit="10"/>
<path opacity="0.51" d="M1751.81 469.958C1521.48 635.642 1208.67 398.758 1085.59 339.46C966.743 282.227 820.573 255.101 688.388 298.026C597.153 327.666 514.104 352.081 436.28 368.705C170.617 425.471 -29.1415 368.005 -189.961 169.934" stroke="#F6F9FB" stroke-width="0.8636" stroke-miterlimit="10"/>
<path opacity="0.51" d="M1752.63 436.53C1521.42 608.552 1220.25 397.178 1086.23 339.46C966.436 287.883 822.313 260.038 688.602 300.324C598.767 327.378 515.988 351.902 436.835 369.998C188.478 426.764 -28.2993 393.623 -192.745 196.737" stroke="#F6F9FB" stroke-width="0.7955" stroke-miterlimit="10"/>
<path opacity="0.51" d="M1753.46 403.102C1521.37 581.444 1232.06 395.257 1086.9 339.46C966.366 293.143 824.091 265.047 688.818 302.622C600.42 327.163 517.856 351.668 437.392 371.29C206.288 427.644 -27.4724 419.26 -195.509 223.54" stroke="#F6F9FB" stroke-width="0.7273" stroke-miterlimit="10"/>
<path opacity="0.51" d="M1754.29 369.675C1521.32 554.335 1244.04 392.959 1087.56 339.46C966.454 298.062 825.903 270.145 689.051 304.92C602.124 327.001 519.758 351.345 437.965 372.583C224.024 428.146 -26.612 444.878 -198.257 250.344" stroke="#F6F9FB" stroke-width="0.6591" stroke-miterlimit="10"/>
<path opacity="0.51" d="M1757.58 235.964C1521.09 445.919 1292.87 379.638 1090.17 339.46C967.302 315.099 833.286 291.419 689.899 314.093C608.914 326.894 526.835 348.652 440.16 377.735C294.008 426.764 -23.2685 547.37 -209.365 357.539" stroke="#F6F9FB" stroke-width="0.3864" stroke-miterlimit="10"/>
<path opacity="0.51" d="M1758.38 202.536C1520.99 418.829 1305.13 375.222 1090.81 339.46C967.459 318.887 835.148 297.003 690.091 316.373C610.597 327.001 528.374 347.395 440.676 378.992C311.166 425.651 -22.4657 572.952 -212.171 384.306" stroke="#F6F9FB" stroke-width="0.3182" stroke-miterlimit="10"/>
<path opacity="0.51" d="M1759.21 169.108C1320.84 578.679 999.901 162.394 441.234 380.303C328.222 424.376 -21.6379 598.606 -214.934 411.127" stroke="#F6F9FB" stroke-width="0.25" stroke-miterlimit="10"/>
</g>
<g opacity="0.19">
<path opacity="0.19" d="M-324.157 -224C-131.418 9.90445 250.883 261.492 650.167 49.4899C760.054 -8.85601 895.112 82.1996 1003.96 142.449C1099.86 195.534 1422.74 455.811 1610.83 284.831" stroke="#F6F9FB" stroke-miterlimit="10"/>
<path opacity="0.19" d="M1607.29 246.197C1416.78 426.369 1109.09 181.495 1002.38 129.038C893.262 75.4136 760.987 -8.78417 647.904 50.3158C573.006 89.6859 498.43 115.915 424.502 128.463C133.023 177.941 -169.371 8.52215 -328.197 -179.047" stroke="#F6F9FB" stroke-width="0.9318" stroke-miterlimit="10"/>
<path opacity="0.19" d="M1603.75 207.545C1410.82 396.909 1118.68 167.187 1000.8 115.627C891.916 67.9991 761.813 -8.96368 645.66 51.1416C572.072 89.2191 498.754 118.141 424.645 133.347C154.369 188.748 -170.483 51.8238 -332.236 -134.093" stroke="#F6F9FB" stroke-width="0.8636" stroke-miterlimit="10"/>
<path opacity="0.19" d="M1600.21 168.893C1404.84 367.449 1128.55 152.574 999.215 102.199C890.907 60.0102 762.708 -8.99963 643.395 51.9495C571.171 88.8421 499.128 120.223 424.768 138.194C175.711 198.407 -171.6 95.1075 -336.297 -89.14" stroke="#F6F9FB" stroke-width="0.7955" stroke-miterlimit="10"/>
<path opacity="0.19" d="M1596.68 130.259C1398.88 338.006 1138.65 137.601 997.636 88.7882C890.136 51.5725 763.623 -8.98166 641.133 52.7753C570.274 88.5189 499.559 122.144 424.894 143.077C196.985 206.97 -172.73 138.409 -340.336 -44.1688" stroke="#F6F9FB" stroke-width="0.7273" stroke-miterlimit="10"/>
<path opacity="0.19" d="M1593.14 91.6067C1392.92 308.528 1148.94 122.162 996.059 75.3776C889.528 42.7757 764.56 -8.96373 638.892 53.6011C569.415 88.1958 500.01 123.85 425.058 147.942C218.154 214.438 -173.805 181.711 -344.354 0.784531" stroke="#F6F9FB" stroke-width="0.6591" stroke-miterlimit="10"/>
<path opacity="0.19" d="M1589.61 52.9548C1386.96 279.068 1159.37 106.256 994.479 61.9491C889.026 33.6019 765.494 -8.90986 636.63 54.4269C568.554 87.8906 500.406 125.304 425.184 152.825C239.07 220.901 -174.935 225.03 -348.394 45.7558" stroke="#F6F9FB" stroke-width="0.5909" stroke-miterlimit="10"/>
<path opacity="0.19" d="M1586.07 14.3208C1381 249.626 1169.89 89.8295 992.9 48.5385C888.559 24.1947 766.445 -8.82011 634.386 55.2527C567.71 87.6033 500.711 126.435 425.328 157.69C259.697 226.395 -176.048 268.314 -352.433 90.7091" stroke="#F6F9FB" stroke-width="0.5227" stroke-miterlimit="10"/>
<path opacity="0.19" d="M1582.53 -24.3311C1375.02 220.165 1180.48 72.8283 991.317 35.1099C888.089 14.5362 767.43 -8.71237 632.121 56.0606C566.845 87.3161 500.815 127.099 425.45 162.555C279.927 231.027 -177.165 311.616 -356.493 135.662" stroke="#F6F9FB" stroke-width="0.4545" stroke-miterlimit="10"/>
<path opacity="0.19" d="M1579 -62.9831C1369.06 190.705 1191.11 55.2348 989.737 21.6993C887.605 4.68025 768.417 -8.55081 629.859 56.8864C565.984 87.0468 500.6 127.225 425.576 167.421C299.639 234.904 -178.295 354.9 -360.532 180.616" stroke="#F6F9FB" stroke-width="0.3864" stroke-miterlimit="10"/>
<path opacity="0.19" d="M1575.44 -101.617C1363.08 161.263 1201.7 37.0668 988.136 8.28876C887.045 -5.31932 769.473 -8.17378 627.594 57.7123C565.173 86.8853 499.807 126.632 425.699 172.304C318.701 238.244 -179.43 398.219 -364.593 225.587" stroke="#F6F9FB" stroke-width="0.3182" stroke-miterlimit="10"/>
<path opacity="0.19" d="M1571.9 -140.269C1221.79 303.214 1057.54 -277.983 425.845 177.169C336.908 241.242 -180.522 441.521 -368.611 270.54" stroke="#F6F9FB" stroke-width="0.25" stroke-miterlimit="10"/>
</g>
<path d="M-210.379 116.292C-4.26506 338.509 195.871 410.427 582.049 175.392C688.329 110.708 824.696 114.425 936.882 168.193C1035.73 215.57 1373.31 456.476 1551.06 274.777" stroke="#F6F9FB" stroke-width="3" stroke-miterlimit="10"/>
<path d="M-341.109 299.516C-127.509 84.4797 74.9602 19.4374 452.88 267.524C556.88 335.798 693.302 336.75 807.265 286.841C907.674 242.876 1253.3 13.6388 1424.73 201.315" stroke="#F6F9FB" stroke-width="3" stroke-miterlimit="10"/>
</g>
</g>
</svg>
