<svg width="51" height="52" viewBox="0 0 51 52" fill="none" xmlns="http://www.w3.org/2000/svg">
<path fill-rule="evenodd" clip-rule="evenodd" d="M24.0648 0.0224252C21.4016 0.176855 18.7903 0.748886 16.3058 1.72208C15.311 2.11182 13.9375 2.77145 13.0181 3.30115C8.91179 5.66693 5.56054 9.08414 3.24043 13.2713C2.90654 13.8739 2.30684 15.113 2.04275 15.746C0.852128 18.5998 0.195569 21.4769 0.023126 24.5963C-0.00800545 25.1597 -0.00762288 26.8601 0.0237716 27.4264C0.260462 31.6955 1.47093 35.734 3.60411 39.3713C4.34321 40.6316 5.33117 42.0132 6.30004 43.1415C9.83127 47.2537 14.5447 50.1345 19.737 51.354C21.1305 51.6813 22.4851 51.8804 23.9687 51.9761C24.4645 52.0081 26.537 52.0079 27.0301 51.9759C31.2197 51.7039 35.0792 50.4904 38.6024 48.3375C40.4534 47.2063 41.9765 45.9906 43.5412 44.3951C44.6407 43.274 45.4378 42.3195 46.2808 41.1146C48.7431 37.5953 50.2988 33.5369 50.8185 29.2775C50.9636 28.0886 51 27.4301 51 25.9983C51 24.5662 50.9635 23.9071 50.8185 22.719C50.0517 16.4384 47.0149 10.6202 42.3117 6.42099C40.9683 5.22153 39.3955 4.09432 37.8373 3.21428C37.2907 2.90562 36.1759 2.34939 35.6016 2.09877C32.805 0.878496 29.9509 0.197043 26.9 0.0211818C26.3998 -0.0076611 24.5696 -0.00685653 24.0648 0.0224252ZM39.0089 13.4908C39.4908 13.594 39.8747 13.9526 40.0399 14.4538C40.0723 14.5521 40.0837 14.6563 40.0827 14.8439C40.0813 15.0867 39.9648 15.6674 37.8286 26.0836C36.5896 32.1246 35.55 37.1856 35.5182 37.3301C35.4382 37.6942 35.3441 37.879 35.1238 38.1049C34.9141 38.3199 34.6966 38.4434 34.4148 38.5073C34.0794 38.5834 33.6761 38.5204 33.4015 38.349C33.3197 38.298 26.8326 33.4555 26.4541 33.1629L26.3806 33.1061L24.606 34.9575C23.6299 35.9757 22.7903 36.842 22.7401 36.8826C22.6899 36.9231 22.6419 36.9493 22.6335 36.9407C22.6251 36.9321 22.6182 36.9397 22.6182 36.9576C22.6182 36.9755 22.6115 36.9833 22.6034 36.975C22.5953 36.9667 22.5731 36.9757 22.5541 36.9951C22.4892 37.0613 22.2565 37.1131 22.0259 37.1128C21.9039 37.1126 21.7934 37.1016 21.7804 37.0883C21.7647 37.0723 21.7679 37.0398 21.7897 36.9926C21.8135 36.9412 21.8847 35.9646 22.042 33.532C22.1626 31.6681 22.2722 30.0937 22.2856 30.0333C22.2989 29.973 22.343 29.8743 22.3835 29.8139C22.4285 29.7469 24.0443 28.2747 26.5367 26.0298C28.7805 24.009 31.5847 21.4833 32.7682 20.4173C34.0528 19.2603 34.937 18.4467 34.962 18.3987C35.0173 18.2922 35.0148 18.1984 34.9538 18.0877C34.8901 17.9722 34.7965 17.9159 34.668 17.9159C34.575 17.9159 33.9674 18.2951 27.1793 22.5893C23.1161 25.1597 19.7602 27.2949 19.7216 27.3343C19.683 27.3736 19.6289 27.4508 19.6014 27.5059C19.4864 27.7358 19.4417 27.5019 20.5364 32.4068C21.0896 34.8855 21.5422 36.9346 21.5422 36.9604C21.5422 37.0058 21.5389 37.0056 21.4407 36.9545C21.301 36.8819 21.0826 36.6479 21.0077 36.4907C20.9735 36.4189 20.3738 34.5061 19.675 32.2398C18.9762 29.9736 18.3976 28.1118 18.3893 28.1024C18.3809 28.0931 16.8408 27.6243 14.9668 27.0606C13.0929 26.497 11.5063 26.0109 11.4412 25.9805C11.2827 25.9063 11.0923 25.7119 11.0155 25.5459C10.8026 25.0854 10.9319 24.552 11.323 24.2776C11.3832 24.2354 12.9754 23.5901 15.1748 22.7165C20.9561 20.4204 30.4011 16.6667 35.0278 14.8265C38.5801 13.4137 38.2739 13.5329 38.4589 13.4907C38.6493 13.4474 38.8059 13.4474 39.0089 13.4908Z" fill="#2A7ECC"/>
</svg>
