<svg width="90" height="90" viewBox="0 0 90 90" fill="none" xmlns="http://www.w3.org/2000/svg">
<circle cx="45" cy="45" r="45" fill="#D6E4ED" fill-opacity="0.6"/>
<path d="M77.75 62.5H13.75C13.34 62.5 13 62.16 13 61.75V23.75C13 22.23 14.23 21 15.75 21H21.75C22.16 21 22.5 21.34 22.5 21.75C22.5 22.16 22.16 22.5 21.75 22.5H15.75C15.06 22.5 14.5 23.06 14.5 23.75V61H77V23.75C77 23.06 76.44 22.5 75.75 22.5H69.75C69.34 22.5 69 22.16 69 21.75C69 21.34 69.34 21 69.75 21H75.75C77.27 21 78.5 22.23 78.5 23.75V61.75C78.5 62.17 78.16 62.5 77.75 62.5Z" fill="#1F1F1F"/>
<path d="M69.75 62.5H21.75C21.34 62.5 21 62.16 21 61.75V17.75C21 17.34 21.34 17 21.75 17H69.75C70.16 17 70.5 17.34 70.5 17.75V61.75C70.5 62.17 70.16 62.5 69.75 62.5ZM22.5 61H69V18.5H22.5V61Z" fill="#1F1F1F"/>
<path d="M69.75 18.5H21.75C21.34 18.5 21 18.16 21 17.75V11.75C21 10.23 22.23 9 23.75 9H67.75C69.27 9 70.5 10.23 70.5 11.75V17.75C70.5 18.17 70.16 18.5 69.75 18.5ZM22.5 17H69V11.75C69 11.06 68.44 10.5 67.75 10.5H23.75C23.06 10.5 22.5 11.06 22.5 11.75V17Z" fill="#1F1F1F"/>
<path d="M64.75 14.4999C64.65 14.4999 64.55 14.4799 64.46 14.4499C64.37 14.4099 64.29 14.3499 64.22 14.2799C64.08 14.1399 64 13.9499 64 13.7499C64 13.5499 64.08 13.3599 64.22 13.2199C64.43 13.0099 64.76 12.9499 65.04 13.0599C65.13 13.0999 65.21 13.1499 65.28 13.2199C65.42 13.3599 65.5 13.5499 65.5 13.7499C65.5 13.9499 65.42 14.1399 65.28 14.2799C65.14 14.4199 64.95 14.4999 64.75 14.4999Z" fill="#1F1F1F"/>
<path d="M59 13.75C59 13.34 59.34 13 59.75 13C60.16 13 60.5 13.34 60.5 13.75C60.5 14.17 60.16 14.5 59.75 14.5C59.34 14.5 59 14.17 59 13.75Z" fill="#1F1F1F"/>
<path d="M54.75 14.5C54.65 14.5 54.56 14.48 54.46 14.45C54.37 14.41 54.29 14.35 54.22 14.28C54.08 14.14 54 13.95 54 13.75C54 13.55 54.08 13.36 54.22 13.22C54.29 13.15 54.37 13.1 54.46 13.06C54.74 12.94 55.07 13.01 55.28 13.22C55.42 13.36 55.5 13.56 55.5 13.75C55.5 13.95 55.42 14.14 55.28 14.28C55.14 14.42 54.95 14.5 54.75 14.5Z" fill="#1F1F1F"/>
<path d="M53.6609 62.4201C53.4009 62.4201 53.1509 62.28 53.0109 62.04C52.8009 61.68 52.9309 61.2201 53.2909 61.0201C58.0509 58.3101 61.0009 53.23 61.0009 47.76C61.0009 44.51 59.9909 41.41 58.0909 38.79C57.8509 38.45 57.9209 37.9901 58.2609 37.7401C58.5909 37.5001 59.0609 37.57 59.3109 37.9C61.4009 40.78 62.5109 44.1801 62.5109 47.7501C62.5109 53.7601 59.2609 59.3401 54.0409 62.3101C53.9109 62.3801 53.7809 62.4201 53.6609 62.4201Z" fill="#1F1F1F"/>
<path d="M37.83 62.41C37.7 62.41 37.58 62.38 37.46 62.31C32.24 59.33 29 53.75 29 47.75C29 44.18 30.11 40.77 32.2 37.9C32.44 37.56 32.91 37.49 33.25 37.73C33.59 37.98 33.66 38.44 33.41 38.78C31.5 41.4 30.49 44.5 30.49 47.75C30.49 53.21 33.44 58.29 38.19 61C38.55 61.21 38.68 61.66 38.47 62.02C38.34 62.27 38.09 62.41 37.83 62.41Z" fill="#1F1F1F"/>
<path d="M43.6097 62.4001C43.4097 62.4001 43.2097 62.3201 43.0597 62.1601C40.5797 59.4701 36.4297 54.0301 36.4297 47.7501C36.4297 45.6001 36.9197 43.3601 37.8797 41.1201C38.0397 40.7401 38.4797 40.5601 38.8597 40.7201C39.2397 40.8801 39.4197 41.3201 39.2597 41.7101C38.3797 43.7701 37.9297 45.8001 37.9297 47.7501C37.9297 53.5201 41.8297 58.6201 44.1597 61.1401C44.4397 61.4401 44.4197 61.9201 44.1197 62.2001C43.9697 62.3401 43.7897 62.4001 43.6097 62.4001Z" fill="#1F1F1F"/>
<path d="M47.8907 62.4C47.7107 62.4 47.5307 62.33 47.3807 62.2C47.0807 61.92 47.0607 61.45 47.3407 61.14C49.6707 58.61 53.5707 53.52 53.5707 47.75C53.5707 45.81 53.1307 43.78 52.2507 41.73C52.0907 41.35 52.2707 40.91 52.6507 40.75C53.0307 40.59 53.4707 40.76 53.6307 41.15C54.5807 43.39 55.0707 45.62 55.0707 47.76C55.0707 54.04 50.9207 59.48 48.4407 62.17C48.3007 62.32 48.0907 62.4 47.8907 62.4Z" fill="#1F1F1F"/>
<path d="M58.0391 58.5801C57.8991 58.5801 57.7591 58.5401 57.6391 58.4601C54.8591 56.6901 50.5491 54.5801 45.7591 54.5801C40.9691 54.5801 36.6491 56.6901 33.8791 58.4601C33.5291 58.6801 33.0691 58.5801 32.8391 58.2301C32.6191 57.8801 32.7191 57.4201 33.0691 57.1901C36.0191 55.3101 40.6091 53.0701 45.7591 53.0701C50.9091 53.0701 55.4991 55.3101 58.4491 57.1901C58.7991 57.4101 58.8991 57.8801 58.6791 58.2301C58.5191 58.4601 58.2791 58.5801 58.0391 58.5801Z" fill="#1F1F1F"/>
<path d="M61.75 48.5H29.75C29.34 48.5 29 48.16 29 47.75C29 47.34 29.34 47 29.75 47H61.75C62.16 47 62.5 47.34 62.5 47.75C62.5 48.17 62.16 48.5 61.75 48.5Z" fill="#1F1F1F"/>
<path d="M45.75 62.4999C45.34 62.4999 45 62.1599 45 61.7499V41.9299C45 41.5199 45.34 41.1799 45.75 41.1799C46.16 41.1799 46.5 41.5199 46.5 41.9299V61.7499C46.5 62.1699 46.16 62.4999 45.75 62.4999Z" fill="#1F1F1F"/>
<path d="M45.75 42.69C41.62 42.69 32 42.1999 32 37.6499V32.21C32 31.8 32.34 31.46 32.75 31.46C33.16 31.46 33.5 31.8 33.5 32.21V37.6499C33.5 39.7699 38.42 41.19 45.75 41.19C53.08 41.19 58 39.7699 58 37.6499V32.21C58 31.8 58.34 31.46 58.75 31.46C59.16 31.46 59.5 31.8 59.5 32.21V37.6499C59.5 42.1899 49.88 42.69 45.75 42.69Z" fill="#1F1F1F"/>
<path d="M45.75 36.36C45.69 36.36 45.62 36.35 45.56 36.34L24.56 30.84C24.23 30.75 24 30.46 24 30.11C24 29.77 24.23 29.47 24.56 29.38L45.56 23.88C45.68 23.85 45.82 23.85 45.94 23.88L66.94 29.38C67.27 29.47 67.5 29.76 67.5 30.11C67.5 30.45 67.27 30.75 66.94 30.84L45.94 36.34C45.88 36.35 45.81 36.36 45.75 36.36ZM27.71 30.11L45.75 34.83L63.79 30.11L45.75 25.39L27.71 30.11Z" fill="#1F1F1F"/>
<path d="M59.75 74.5H31.75C31.34 74.5 31 74.16 31 73.75V67.75C31 67.34 31.34 67 31.75 67H59.75C60.16 67 60.5 67.34 60.5 67.75V73.75C60.5 74.17 60.16 74.5 59.75 74.5ZM32.5 73H59V68.5H32.5V73Z" fill="#1F1F1F"/>
<path d="M74.75 68.5H16.75C14.68 68.5 13 66.82 13 64.75V61.75C13 61.34 13.34 61 13.75 61H77.75C78.16 61 78.5 61.34 78.5 61.75V64.75C78.5 66.82 76.82 68.5 74.75 68.5ZM14.5 62.5V64.75C14.5 65.99 15.51 67 16.75 67H74.75C75.99 67 77 65.99 77 64.75V62.5H14.5Z" fill="#1F1F1F"/>
<path d="M69.75 74.5H21.75C21.34 74.5 21 74.16 21 73.75C21 73.34 21.34 73 21.75 73H69.75C70.16 73 70.5 73.34 70.5 73.75C70.5 74.17 70.16 74.5 69.75 74.5Z" fill="#1F1F1F"/>
<path d="M12.75 18.5H8.75C8.34 18.5 8 18.16 8 17.75C8 17.33 8.34 17 8.75 17H12.75C13.16 17 13.5 17.33 13.5 17.75C13.5 18.17 13.16 18.5 12.75 18.5Z" fill="#E8444D"/>
<path d="M10.75 20.5C10.34 20.5 10 20.16 10 19.75V15.75C10 15.33 10.34 15 10.75 15C11.16 15 11.5 15.33 11.5 15.75V19.75C11.5 20.17 11.16 20.5 10.75 20.5Z" fill="#E8444D"/>
<path d="M10.75 24.5C11.1642 24.5 11.5 24.1642 11.5 23.75C11.5 23.3358 11.1642 23 10.75 23C10.3358 23 10 23.3358 10 23.75C10 24.1642 10.3358 24.5 10.75 24.5Z" fill="#1F1F1F"/>
<path d="M10.75 27.5C11.1642 27.5 11.5 27.1642 11.5 26.75C11.5 26.3358 11.1642 26 10.75 26C10.3358 26 10 26.3358 10 26.75C10 27.1642 10.3358 27.5 10.75 27.5Z" fill="#1F1F1F"/>
<path d="M10.75 31.5C11.1642 31.5 11.5 31.1642 11.5 30.75C11.5 30.3358 11.1642 30 10.75 30C10.3358 30 10 30.3358 10 30.75C10 31.1642 10.3358 31.5 10.75 31.5Z" fill="#1F1F1F"/>
<path d="M10.75 37.5C11.1642 37.5 11.5 37.1642 11.5 36.75C11.5 36.3358 11.1642 36 10.75 36C10.3358 36 10 36.3358 10 36.75C10 37.1642 10.3358 37.5 10.75 37.5Z" fill="#1F1F1F"/>
<path d="M82.75 71.5H78.75C78.34 71.5 78 71.16 78 70.75C78 70.34 78.34 70 78.75 70H82.75C83.16 70 83.5 70.34 83.5 70.75C83.5 71.17 83.16 71.5 82.75 71.5Z" fill="#E8444D"/>
<path d="M80.75 73.5C80.34 73.5 80 73.16 80 72.75V68.75C80 68.34 80.34 68 80.75 68C81.16 68 81.5 68.34 81.5 68.75V72.75C81.5 73.17 81.16 73.5 80.75 73.5Z" fill="#E8444D"/>
<path d="M80.75 65.5C81.1642 65.5 81.5 65.1642 81.5 64.75C81.5 64.3358 81.1642 64 80.75 64C80.3358 64 80 64.3358 80 64.75C80 65.1642 80.3358 65.5 80.75 65.5Z" fill="#1F1F1F"/>
<path d="M80.75 62.5C81.1642 62.5 81.5 62.1642 81.5 61.75C81.5 61.3358 81.1642 61 80.75 61C80.3358 61 80 61.3358 80 61.75C80 62.1642 80.3358 62.5 80.75 62.5Z" fill="#1F1F1F"/>
<path d="M80.75 58.5C81.1642 58.5 81.5 58.1642 81.5 57.75C81.5 57.3358 81.1642 57 80.75 57C80.3358 57 80 57.3358 80 57.75C80 58.1642 80.3358 58.5 80.75 58.5Z" fill="#1F1F1F"/>
<path d="M80.75 52.5C81.1642 52.5 81.5 52.1642 81.5 51.75C81.5 51.3358 81.1642 51 80.75 51C80.3358 51 80 51.3358 80 51.75C80 52.1642 80.3358 52.5 80.75 52.5Z" fill="#1F1F1F"/>
</svg>
