<svg width="90" height="90" viewBox="0 0 90 90" fill="none" xmlns="http://www.w3.org/2000/svg">
<circle cx="45" cy="45" r="45" fill="#D6E4ED" fill-opacity="0.6"/>
<path d="M74.75 76.5H14.75C13.23 76.5 12 75.27 12 73.75V19.75C12 18.23 13.23 17 14.75 17H18.75C19.16 17 19.5 17.34 19.5 17.75C19.5 18.16 19.16 18.5 18.75 18.5H14.75C14.06 18.5 13.5 19.06 13.5 19.75V73.75C13.5 74.44 14.06 75 14.75 75H74.75C75.44 75 76 74.44 76 73.75V19.75C76 19.06 75.44 18.5 74.75 18.5H70.75C70.34 18.5 70 18.16 70 17.75C70 17.34 70.34 17 70.75 17H74.75C76.27 17 77.5 18.23 77.5 19.75V73.75C77.5 75.27 76.27 76.5 74.75 76.5Z" fill="#1F1F1F"/>
<path d="M44.75 76.5C44.34 76.5 44 76.16 44 75.75V56.04C44 55.63 44.34 55.29 44.75 55.29C45.16 55.29 45.5 55.63 45.5 56.04V71.51C46.74 69.98 48.63 69 50.75 69H70V12.5H50.75C47.85 12.5 45.5 14.86 45.5 17.75V27.46C45.5 27.87 45.16 28.21 44.75 28.21C44.34 28.21 44 27.87 44 27.46V17.75C44 14.03 47.03 11 50.75 11H70.75C71.16 11 71.5 11.34 71.5 11.75V69.75C71.5 70.16 71.16 70.5 70.75 70.5H50.75C47.86 70.5 45.5 72.85 45.5 75.75C45.5 76.16 45.16 76.5 44.75 76.5Z" fill="#1F1F1F"/>
<path d="M44.75 76.5C44.34 76.5 44 76.16 44 75.75C44 72.86 41.64 70.5 38.75 70.5H18.75C18.34 70.5 18 70.16 18 69.75V11.75C18 11.34 18.34 11 18.75 11H38.75C42.47 11 45.5 14.03 45.5 17.75C45.5 18.16 45.16 18.5 44.75 18.5C44.34 18.5 44 18.16 44 17.75C44 14.86 41.64 12.5 38.75 12.5H19.5V69H38.75C42.47 69 45.5 72.03 45.5 75.75C45.5 76.16 45.16 76.5 44.75 76.5Z" fill="#1F1F1F"/>
<path d="M27.75 48.5H25.75C24.23 48.5 23 47.27 23 45.75V37.75C23 36.23 24.23 35 25.75 35H27.75C28.16 35 28.5 35.34 28.5 35.75V47.75C28.5 48.16 28.16 48.5 27.75 48.5ZM25.75 36.5C25.06 36.5 24.5 37.06 24.5 37.75V45.75C24.5 46.44 25.06 47 25.75 47H27V36.5H25.75Z" fill="#1F1F1F"/>
<path d="M47.75 58.5C47.62 58.5 47.49 58.47 47.38 58.4L33.38 50.4C33.15 50.27 33 50.02 33 49.75V33.75C33 33.48 33.14 33.23 33.38 33.1L47.38 25.1C47.61 24.97 47.9 24.97 48.13 25.1C48.36 25.23 48.5 25.48 48.5 25.75V57.75C48.5 58.02 48.36 58.26 48.13 58.4C48.01 58.47 47.88 58.5 47.75 58.5ZM34.5 49.31L47 56.45V27.03L34.5 34.17V49.31Z" fill="#1F1F1F"/>
<path d="M54.7502 46.8298C54.5602 46.8298 54.3702 46.7598 54.2302 46.6198C53.9302 46.3298 53.9302 45.8598 54.2202 45.5598C56.2802 43.4598 56.2802 40.0398 54.2202 37.9398C53.9302 37.6398 53.9402 37.1698 54.2302 36.8798C54.5302 36.5898 55.0002 36.5898 55.2902 36.8898C57.9102 39.5698 57.9102 43.9298 55.2902 46.5998C55.1402 46.7598 54.9402 46.8298 54.7502 46.8298Z" fill="#1F1F1F"/>
<path d="M58.1095 51.17C57.9195 51.17 57.7296 51.1 57.5896 50.96C57.2896 50.67 57.2895 50.2 57.5795 49.9C61.9695 45.41 61.9695 38.11 57.5795 33.61C57.2895 33.31 57.2996 32.84 57.5896 32.55C57.8896 32.26 58.3595 32.26 58.6495 32.56C63.6095 37.63 63.6095 45.87 58.6495 50.94C58.4995 51.09 58.2995 51.17 58.1095 51.17Z" fill="#1F1F1F"/>
<path d="M61.4709 55.5002C61.2809 55.5002 61.0909 55.4302 60.9509 55.2902C60.6509 55.0002 60.6509 54.5302 60.9409 54.2302C67.6709 47.3502 67.6709 36.1602 60.9409 29.2802C60.6509 28.9802 60.6609 28.5102 60.9509 28.2202C61.2409 27.9302 61.7209 27.9302 62.0109 28.2302C69.3109 35.6902 69.3109 47.8202 62.0109 55.2802C61.8609 55.4202 61.6709 55.5002 61.4709 55.5002Z" fill="#1F1F1F"/>
<path d="M33.75 50.5H27.75C27.34 50.5 27 50.16 27 49.75V33.75C27 33.34 27.34 33 27.75 33H33.75C34.16 33 34.5 33.34 34.5 33.75V49.75C34.5 50.16 34.16 50.5 33.75 50.5ZM28.5 49H33V34.5H28.5V49Z" fill="#1F1F1F"/>
<path d="M27.75 20.5C27.34 20.5 27 20.16 27 19.75V15.75C27 15.34 27.34 15 27.75 15C28.16 15 28.5 15.34 28.5 15.75V19.75C28.5 20.16 28.16 20.5 27.75 20.5Z" fill="#E8444D"/>
<path d="M29.75 18.5H25.75C25.34 18.5 25 18.16 25 17.75C25 17.34 25.34 17 25.75 17H29.75C30.16 17 30.5 17.34 30.5 17.75C30.5 18.16 30.16 18.5 29.75 18.5Z" fill="#E8444D"/>
<path d="M33.75 18.5C34.1642 18.5 34.5 18.1642 34.5 17.75C34.5 17.3358 34.1642 17 33.75 17C33.3358 17 33 17.3358 33 17.75C33 18.1642 33.3358 18.5 33.75 18.5Z" fill="#1F1F1F"/>
<path d="M36.75 18.5C37.1642 18.5 37.5 18.1642 37.5 17.75C37.5 17.3358 37.1642 17 36.75 17C36.3358 17 36 17.3358 36 17.75C36 18.1642 36.3358 18.5 36.75 18.5Z" fill="#1F1F1F"/>
<path d="M40.75 18.5C41.1642 18.5 41.5 18.1642 41.5 17.75C41.5 17.3358 41.1642 17 40.75 17C40.3358 17 40 17.3358 40 17.75C40 18.1642 40.3358 18.5 40.75 18.5Z" fill="#1F1F1F"/>
<path d="M50.75 18.5C51.1642 18.5 51.5 18.1642 51.5 17.75C51.5 17.3358 51.1642 17 50.75 17C50.3358 17 50 17.3358 50 17.75C50 18.1642 50.3358 18.5 50.75 18.5Z" fill="#1F1F1F"/>
<path d="M61.5 66.5C61.09 66.5 60.75 66.16 60.75 65.75V61.75C60.75 61.34 61.09 61 61.5 61C61.91 61 62.25 61.34 62.25 61.75V65.75C62.25 66.17 61.91 66.5 61.5 66.5Z" fill="#E8444D"/>
<path d="M63.5 64.5H59.5C59.09 64.5 58.75 64.16 58.75 63.75C58.75 63.34 59.09 63 59.5 63H63.5C63.91 63 64.25 63.34 64.25 63.75C64.25 64.17 63.91 64.5 63.5 64.5Z" fill="#E8444D"/>
<path d="M55.5 64.5C55.9142 64.5 56.25 64.1642 56.25 63.75C56.25 63.3358 55.9142 63 55.5 63C55.0858 63 54.75 63.3358 54.75 63.75C54.75 64.1642 55.0858 64.5 55.5 64.5Z" fill="#1F1F1F"/>
<path d="M52.5 64.5C52.9142 64.5 53.25 64.1642 53.25 63.75C53.25 63.3358 52.9142 63 52.5 63C52.0858 63 51.75 63.3358 51.75 63.75C51.75 64.1642 52.0858 64.5 52.5 64.5Z" fill="#1F1F1F"/>
<path d="M48.5 64.5C48.9142 64.5 49.25 64.1642 49.25 63.75C49.25 63.3358 48.9142 63 48.5 63C48.0858 63 47.75 63.3358 47.75 63.75C47.75 64.1642 48.0858 64.5 48.5 64.5Z" fill="#1F1F1F"/>
<path d="M41.5 64.5C41.9142 64.5 42.25 64.1642 42.25 63.75C42.25 63.3358 41.9142 63 41.5 63C41.0858 63 40.75 63.3358 40.75 63.75C40.75 64.1642 41.0858 64.5 41.5 64.5Z" fill="#1F1F1F"/>
<path d="M22.75 55.2C22.34 55.2 22 54.86 22 54.45V51.75C22 51.34 22.34 51 22.75 51C23.16 51 23.5 51.34 23.5 51.75V54.45C23.5 54.87 23.16 55.2 22.75 55.2Z" fill="#1F1F1F"/>
<path d="M22.75 65.5C22.34 65.5 22 65.16 22 64.75V58.45C22 58.04 22.34 57.7 22.75 57.7C23.16 57.7 23.5 58.04 23.5 58.45V64.75C23.5 65.17 23.16 65.5 22.75 65.5Z" fill="#1F1F1F"/>
</svg>
