<svg width="90" height="90" viewBox="0 0 90 90" fill="none" xmlns="http://www.w3.org/2000/svg">
<circle cx="45" cy="45" r="45" fill="#D6E4ED" fill-opacity="0.6"/>
<path d="M61.75 79.5C61.46 79.5 61.19 79.33 61.07 79.06L56.27 68.5H53.75C52.23 68.5 51 67.27 51 65.75V26.11C51 25.7 51.34 25.36 51.75 25.36C52.16 25.36 52.5 25.7 52.5 26.11V65.75C52.5 66.44 53.06 67 53.75 67H56.75C57.04 67 57.31 67.17 57.43 67.44L61.75 76.94L66.07 67.44C66.19 67.17 66.46 67 66.75 67H73.75C74.44 67 75 66.44 75 65.75V16.75C75 16.06 74.44 15.5 73.75 15.5H53.75C53.06 15.5 52.5 16.06 52.5 16.75V23.39C52.5 23.8 52.16 24.14 51.75 24.14C51.34 24.14 51 23.8 51 23.39V16.75C51 15.24 52.24 14 53.75 14H73.75C75.27 14 76.5 15.23 76.5 16.75V65.75C76.5 67.27 75.27 68.5 73.75 68.5H67.23L62.43 79.06C62.31 79.33 62.05 79.5 61.75 79.5Z" fill="#1F1F1F"/>
<path d="M41.75 39.5H23.11C22.7 39.5 22.36 39.16 22.36 38.75C22.36 38.34 22.7 38 23.11 38H41.75C42.44 38 43 37.44 43 36.75V29.75C43 29.46 43.17 29.19 43.44 29.07L52.94 24.75L43.44 20.43C43.17 20.31 43 20.04 43 19.75V16.75C43 16.06 42.44 15.5 41.75 15.5H13.75C13.06 15.5 12.5 16.06 12.5 16.75V36.75C12.5 37.44 13.06 38 13.75 38H20.39C20.8 38 21.14 38.34 21.14 38.75C21.14 39.16 20.8 39.5 20.39 39.5H13.75C12.23 39.5 11 38.27 11 36.75V16.75C11 15.23 12.23 14 13.75 14H41.75C43.27 14 44.5 15.23 44.5 16.75V19.27L55.06 24.07C55.33 24.19 55.5 24.46 55.5 24.75C55.5 25.04 55.33 25.31 55.06 25.43L44.5 30.23V36.75C44.5 38.27 43.27 39.5 41.75 39.5Z" fill="#1F1F1F"/>
<path d="M41.75 79.5H13.75C12.23 79.5 11 78.27 11 76.75V48.75C11 47.24 12.23 46 13.75 46H16.27L21.07 35.44C21.31 34.9 22.19 34.9 22.43 35.44L27.23 46H41.75C43.27 46 44.5 47.23 44.5 48.75V76.75C44.5 78.27 43.27 79.5 41.75 79.5ZM13.75 47.5C13.06 47.5 12.5 48.06 12.5 48.75V76.75C12.5 77.44 13.06 78 13.75 78H41.75C42.44 78 43 77.44 43 76.75V48.75C43 48.06 42.44 47.5 41.75 47.5H26.75C26.46 47.5 26.19 47.33 26.07 47.06L21.75 37.56L17.43 47.06C17.31 47.33 17.04 47.5 16.75 47.5H13.75Z" fill="#1F1F1F"/>
<path d="M38.7498 22.5H30.0898C29.6798 22.5 29.3398 22.16 29.3398 21.75C29.3398 21.34 29.6798 21 30.0898 21H38.7498C39.1598 21 39.4998 21.34 39.4998 21.75C39.4998 22.16 39.1598 22.5 38.7498 22.5Z" fill="#1F1F1F"/>
<path d="M26.09 22.5H16.75C16.34 22.5 16 22.16 16 21.75C16 21.33 16.34 21 16.75 21H26.09C26.5 21 26.84 21.34 26.84 21.75C26.84 22.16 26.5 22.5 26.09 22.5Z" fill="#1F1F1F"/>
<path d="M32.7498 29.5H26.0898C25.6798 29.5 25.3398 29.16 25.3398 28.75C25.3398 28.34 25.6798 28 26.0898 28H32.7498C33.1598 28 33.4998 28.34 33.4998 28.75C33.4998 29.16 33.1598 29.5 32.7498 29.5Z" fill="#1F1F1F"/>
<path d="M22.09 29.5H16.75C16.34 29.5 16 29.16 16 28.75C16 28.34 16.34 28 16.75 28H22.09C22.5 28 22.84 28.34 22.84 28.75C22.84 29.16 22.5 29.5 22.09 29.5Z" fill="#1F1F1F"/>
<path d="M70.75 22.5H66.75C66.34 22.5 66 22.16 66 21.75C66 21.33 66.34 21 66.75 21H70.75C71.16 21 71.5 21.34 71.5 21.75C71.5 22.16 71.17 22.5 70.75 22.5Z" fill="#1F1F1F"/>
<path d="M62.75 22.5H56.75C56.34 22.5 56 22.16 56 21.75C56 21.33 56.34 21 56.75 21H62.75C63.16 21 63.5 21.34 63.5 21.75C63.5 22.16 63.17 22.5 62.75 22.5Z" fill="#1F1F1F"/>
<path d="M70.75 29.5H64.75C64.34 29.5 64 29.16 64 28.75C64 28.34 64.34 28 64.75 28H70.75C71.16 28 71.5 28.34 71.5 28.75C71.5 29.16 71.17 29.5 70.75 29.5Z" fill="#1F1F1F"/>
<path d="M60.75 29.5H56.75C56.34 29.5 56 29.16 56 28.75C56 28.34 56.34 28 56.75 28H60.75C61.16 28 61.5 28.34 61.5 28.75C61.5 29.16 61.17 29.5 60.75 29.5Z" fill="#1F1F1F"/>
<path d="M66.75 36.5H56.75C56.34 36.5 56 36.16 56 35.75C56 35.34 56.34 35 56.75 35H66.75C67.16 35 67.5 35.34 67.5 35.75C67.5 36.16 67.17 36.5 66.75 36.5Z" fill="#1F1F1F"/>
<path d="M70.75 43.5H63.75C63.34 43.5 63 43.16 63 42.75C63 42.34 63.34 42 63.75 42H70.75C71.16 42 71.5 42.34 71.5 42.75C71.5 43.16 71.17 43.5 70.75 43.5Z" fill="#1F1F1F"/>
<path d="M59.75 43.5H56.75C56.34 43.5 56 43.16 56 42.75C56 42.34 56.34 42 56.75 42H59.75C60.16 42 60.5 42.34 60.5 42.75C60.5 43.16 60.17 43.5 59.75 43.5Z" fill="#1F1F1F"/>
<path d="M70.75 50.5H65.75C65.34 50.5 65 50.16 65 49.75C65 49.34 65.34 49 65.75 49H70.75C71.16 49 71.5 49.34 71.5 49.75C71.5 50.17 71.17 50.5 70.75 50.5Z" fill="#1F1F1F"/>
<path d="M61.75 50.5H56.75C56.34 50.5 56 50.16 56 49.75C56 49.34 56.34 49 56.75 49H61.75C62.16 49 62.5 49.34 62.5 49.75C62.5 50.17 62.17 50.5 61.75 50.5Z" fill="#1F1F1F"/>
<path d="M66.75 57.5H56.75C56.34 57.5 56 57.16 56 56.75C56 56.34 56.34 56 56.75 56H66.75C67.16 56 67.5 56.34 67.5 56.75C67.5 57.17 67.17 57.5 66.75 57.5Z" fill="#1F1F1F"/>
<path d="M38.7498 54.5H31.0898C30.6798 54.5 30.3398 54.16 30.3398 53.75C30.3398 53.34 30.6798 53 31.0898 53H38.7498C39.1598 53 39.4998 53.34 39.4998 53.75C39.4998 54.17 39.1598 54.5 38.7498 54.5Z" fill="#1F1F1F"/>
<path d="M27.09 54.5H16.75C16.34 54.5 16 54.16 16 53.75C16 53.34 16.34 53 16.75 53H27.09C27.5 53 27.84 53.34 27.84 53.75C27.84 54.17 27.5 54.5 27.09 54.5Z" fill="#1F1F1F"/>
<path d="M38.75 61.5H26.75C26.34 61.5 26 61.16 26 60.75C26 60.34 26.34 60 26.75 60H38.75C39.16 60 39.5 60.34 39.5 60.75C39.5 61.17 39.16 61.5 38.75 61.5Z" fill="#1F1F1F"/>
<path d="M22.75 61.5H16.75C16.34 61.5 16 61.16 16 60.75C16 60.34 16.34 60 16.75 60H22.75C23.16 60 23.5 60.34 23.5 60.75C23.5 61.17 23.16 61.5 22.75 61.5Z" fill="#1F1F1F"/>
<path d="M32.75 68.5H16.75C16.34 68.5 16 68.16 16 67.75C16 67.34 16.34 67 16.75 67H32.75C33.16 67 33.5 67.34 33.5 67.75C33.5 68.17 33.16 68.5 32.75 68.5Z" fill="#1F1F1F"/>
<path d="M81.75 72.88H77.75C77.34 72.88 77 72.54 77 72.13C77 71.72 77.34 71.38 77.75 71.38H81.75C82.16 71.38 82.5 71.72 82.5 72.13C82.5 72.54 82.17 72.88 81.75 72.88Z" fill="#E8444D"/>
<path d="M79.75 74.88C79.34 74.88 79 74.54 79 74.13V70.13C79 69.72 79.34 69.38 79.75 69.38C80.16 69.38 80.5 69.72 80.5 70.13V74.13C80.5 74.54 80.17 74.88 79.75 74.88Z" fill="#E8444D"/>
<path d="M79.75 66.88C80.1642 66.88 80.5 66.5442 80.5 66.13C80.5 65.7158 80.1642 65.38 79.75 65.38C79.3358 65.38 79 65.7158 79 66.13C79 66.5442 79.3358 66.88 79.75 66.88Z" fill="#1F1F1F"/>
<path d="M79.75 63.88C80.1642 63.88 80.5 63.5442 80.5 63.13C80.5 62.7158 80.1642 62.38 79.75 62.38C79.3358 62.38 79 62.7158 79 63.13C79 63.5442 79.3358 63.88 79.75 63.88Z" fill="#1F1F1F"/>
<path d="M79.75 58.88C80.1642 58.88 80.5 58.5442 80.5 58.13C80.5 57.7158 80.1642 57.38 79.75 57.38C79.3358 57.38 79 57.7158 79 58.13C79 58.5442 79.3358 58.88 79.75 58.88Z" fill="#1F1F1F"/>
<path d="M79.75 52.88C80.1642 52.88 80.5 52.5442 80.5 52.13C80.5 51.7158 80.1642 51.38 79.75 51.38C79.3358 51.38 79 51.7158 79 52.13C79 52.5442 79.3358 52.88 79.75 52.88Z" fill="#1F1F1F"/>
<path d="M9.75 42.88H5.75C5.34 42.88 5 42.54 5 42.13C5 41.72 5.34 41.38 5.75 41.38H9.75C10.16 41.38 10.5 41.72 10.5 42.13C10.5 42.54 10.16 42.88 9.75 42.88Z" fill="#E8444D"/>
<path d="M7.75 44.88C7.34 44.88 7 44.54 7 44.13V40.13C7 39.72 7.34 39.38 7.75 39.38C8.16 39.38 8.5 39.72 8.5 40.13V44.13C8.5 44.54 8.16 44.88 7.75 44.88Z" fill="#E8444D"/>
<path d="M7.75 36.88C8.16421 36.88 8.5 36.5442 8.5 36.13C8.5 35.7158 8.16421 35.38 7.75 35.38C7.33579 35.38 7 35.7158 7 36.13C7 36.5442 7.33579 36.88 7.75 36.88Z" fill="#1F1F1F"/>
<path d="M7.75 33.87C8.16421 33.87 8.5 33.5342 8.5 33.12C8.5 32.7058 8.16421 32.37 7.75 32.37C7.33579 32.37 7 32.7058 7 33.12C7 33.5342 7.33579 33.87 7.75 33.87Z" fill="#1F1F1F"/>
<path d="M7.75 28.87C8.16421 28.87 8.5 28.5342 8.5 28.12C8.5 27.7058 8.16421 27.37 7.75 27.37C7.33579 27.37 7 27.7058 7 28.12C7 28.5342 7.33579 28.87 7.75 28.87Z" fill="#1F1F1F"/>
<path d="M7.75 22.87C8.16421 22.87 8.5 22.5342 8.5 22.12C8.5 21.7058 8.16421 21.37 7.75 21.37C7.33579 21.37 7 21.7058 7 22.12C7 22.5342 7.33579 22.87 7.75 22.87Z" fill="#1F1F1F"/>
</svg>
