<svg width="295" height="235" viewBox="0 0 295 235" fill="none" xmlns="http://www.w3.org/2000/svg">
<mask id="mask0_543_56" style="mask-type:alpha" maskUnits="userSpaceOnUse" x="4" y="0" width="287" height="227">
<rect x="4" width="287" height="227" fill="#55B282"/>
</mask>
<g mask="url(#mask0_543_56)">
<g opacity="0.25">
<path d="M287.773 407.464C490.782 192.356 681.869 125.957 1034.96 368.144C1132.14 434.793 1260.45 434.419 1368.13 383.894C1463.01 339.372 1790.34 108.925 1949.77 293.229" stroke="#F6F9FB" stroke-width="3" stroke-miterlimit="10"/>
<path d="M220.701 68.2057C413.44 301.084 609.016 384.251 1008.3 173.179C1118.19 115.089 1254.11 126.743 1362.95 186.727C1458.86 239.58 1781.73 498.716 1969.82 328.485" stroke="#F6F9FB" stroke-miterlimit="10"/>
<path d="M1967.49 301.013C1779.25 477.517 1468.4 243.28 1363.69 192.411C1253.76 139.022 1120.23 125.456 1008.87 181.133C928.515 221.295 855.986 252.378 788.79 273.666C545.712 350.666 377.298 284.783 220.68 100.736" stroke="#F6F9FB" stroke-width="0.9318" stroke-miterlimit="10"/>
<path d="M1965.16 273.541C1776.78 456.319 1478.3 246.748 1364.44 198.113C1253.82 150.854 1122.33 135.894 1009.45 189.087C930.134 226.461 857.965 257.704 789.727 280.529C561.908 356.708 380.461 315.92 220.701 133.266" stroke="#F6F9FB" stroke-width="0.8636" stroke-miterlimit="10"/>
<path d="M1962.82 246.086C1774.28 435.138 1488.42 249.983 1365.2 203.815C1254.2 162.24 1124.49 146.386 1010.02 197.058C931.786 231.68 859.94 262.995 790.66 287.411C578.012 362.338 383.603 347.074 220.701 165.797" stroke="#F6F9FB" stroke-width="0.7955" stroke-miterlimit="10"/>
<path d="M1960.49 218.614C1771.81 413.94 1498.75 252.86 1365.95 209.516C1254.77 173.232 1126.68 156.949 1010.62 205.012C933.491 236.953 861.932 268.196 791.594 294.274C594.008 367.557 386.763 378.228 220.701 198.327" stroke="#F6F9FB" stroke-width="0.7273" stroke-miterlimit="10"/>
<path d="M1958.15 191.16C1769.33 392.759 1509.23 255.381 1366.69 215.218C1255.47 183.885 1128.91 167.566 1011.17 212.984C935.197 242.279 863.853 273.326 792.51 301.174C609.86 372.437 389.904 409.4 220.701 230.876" stroke="#F6F9FB" stroke-width="0.6591" stroke-miterlimit="10"/>
<path d="M1955.82 163.688C1766.85 371.561 1519.82 257.508 1367.44 220.92C1256.26 194.216 1131.17 178.291 1011.76 220.938C936.956 247.659 865.792 278.331 793.443 308.037C625.604 376.941 393.046 440.536 220.701 263.406" stroke="#F6F9FB" stroke-width="0.5909" stroke-miterlimit="10"/>
<path d="M1953.49 136.216C1764.37 350.362 1530.47 259.206 1368.2 226.604C1257.09 204.279 1133.47 189.069 1012.34 228.892C938.716 253.093 867.641 283.228 794.377 314.901C641.241 381.123 396.206 471.69 220.701 295.919" stroke="#F6F9FB" stroke-width="0.5227" stroke-miterlimit="10"/>
<path d="M1951.15 108.761C1761.87 329.182 1541.15 260.493 1368.95 232.323C1257.93 214.164 1135.8 199.99 1012.91 236.863C940.489 258.598 869.433 287.965 795.289 321.8C656.713 385.056 399.326 502.862 220.68 328.485" stroke="#F6F9FB" stroke-width="0.4545" stroke-miterlimit="10"/>
<path d="M1948.81 81.2892C1759.4 307.983 1551.83 261.315 1369.7 238.007C1258.72 223.797 1138.15 211 1013.5 244.817C942.284 264.139 871.12 292.469 796.239 328.663C672.061 388.666 402.503 533.998 220.715 361.015" stroke="#F6F9FB" stroke-width="0.3864" stroke-miterlimit="10"/>
<path d="M1946.49 53.8352C1756.92 286.803 1562.46 261.726 1370.44 243.709C1259.46 233.307 1140.48 222.136 1014.06 252.771C944.066 269.734 872.632 296.723 797.159 335.527C687.218 392.044 405.649 565.135 220.701 393.528" stroke="#F6F9FB" stroke-width="0.3182" stroke-miterlimit="10"/>
<path d="M1944.15 26.3628C1594.02 467.901 1272.13 81.1641 798.093 342.408C702.19 395.261 408.791 596.307 220.701 426.076" stroke="#F6F9FB" stroke-width="0.25" stroke-miterlimit="10"/>
<path d="M-1 439.285C203.552 216.612 403.185 143.598 790.997 374.903C897.725 438.552 1034.06 433.905 1145.88 379.586C1244.39 331.738 1829.64 58.4288 2008.65 238.097" stroke="#F6F9FB" stroke-miterlimit="10"/>
<path d="M2005.55 264.282C1823.31 76.3741 1263.15 327.144 1146.89 375.726C1033.23 423.216 899.414 430.849 791.806 370.846C712.994 326.876 641.722 292.827 575.926 268.536C336.833 180.311 164.524 238.24 -0.585938 414.816" stroke="#F6F9FB" stroke-width="0.9318" stroke-miterlimit="10"/>
<path d="M2002.44 290.449C1816.99 94.2836 1282.42 322.926 1147.9 371.829C1033.05 413.564 901.12 423.091 792.614 366.753C714.161 326.018 642.908 292.487 576.447 267.07C352.111 181.276 167.271 214.414 -0.136719 390.364" stroke="#F6F9FB" stroke-width="0.8636" stroke-miterlimit="10"/>
<path d="M1999.33 316.617C1810.67 112.211 1302.02 319.244 1148.9 367.933C1033.28 404.699 902.859 415.298 793.42 362.642C715.362 325.089 644.09 292.165 576.947 265.569C367.261 182.509 169.962 190.57 0.255859 365.895" stroke="#F6F9FB" stroke-width="0.7955" stroke-miterlimit="10"/>
<path d="M1996.23 342.802C1804.35 130.157 1321.89 316.152 1149.91 364.054C1033.75 396.406 904.619 407.47 794.211 358.567C716.566 324.177 645.258 291.951 577.451 264.103C382.342 184.028 172.674 166.744 0.669922 341.426" stroke="#F6F9FB" stroke-width="0.7273" stroke-miterlimit="10"/>
<path d="M1993.12 368.969C1798.02 148.066 1341.95 313.65 1150.9 360.175C1034.33 388.559 906.399 399.605 795.004 354.491C717.789 323.23 646.392 291.772 577.957 262.638C397.353 185.78 175.405 142.901 1.10352 316.956" stroke="#F6F9FB" stroke-width="0.6591" stroke-miterlimit="10"/>
<path d="M1990.02 395.137C1791.69 165.994 1362.12 311.791 1151.92 356.279C1034.99 381.016 908.245 391.669 795.826 350.398C719.061 322.229 647.538 291.647 578.474 261.172C412.251 187.8 178.131 119.075 1.53125 292.487" stroke="#F6F9FB" stroke-width="0.5909" stroke-miterlimit="10"/>
<path d="M1986.91 421.322C1785.37 183.939 1382.39 310.593 1152.92 352.4C1035.67 373.759 910.096 383.697 796.617 346.323C720.319 321.21 648.616 291.647 578.978 259.706C427.045 190.034 180.843 95.2489 1.94531 268.036" stroke="#F6F9FB" stroke-width="0.5227" stroke-miterlimit="10"/>
<path d="M1983.8 447.489C1779.05 201.849 1402.68 310.039 1153.92 348.504C1036.32 366.699 911.942 375.636 797.422 342.23C721.608 320.12 649.654 291.718 579.495 258.223C441.745 192.483 183.569 71.4052 2.37305 243.548" stroke="#F6F9FB" stroke-width="0.4545" stroke-miterlimit="10"/>
<path d="M1980.7 473.657C1772.74 219.776 1422.99 310.129 1154.94 344.625C1036.93 359.8 913.814 367.521 798.235 338.155C722.906 319.012 650.629 291.951 580.003 256.757C456.328 195.146 186.267 47.5972 2.77344 219.097" stroke="#F6F9FB" stroke-width="0.3864" stroke-miterlimit="10"/>
<path d="M1977.59 499.824C1766.42 237.704 1443.27 310.897 1155.92 340.729C1037.49 353.026 915.678 359.335 799.004 334.062C724.16 317.85 651.452 292.362 580.485 255.291C470.777 197.97 188.993 23.7534 3.20117 194.628" stroke="#F6F9FB" stroke-width="0.3182" stroke-miterlimit="10"/>
<path d="M1974.49 526.009C1624.38 84.4709 1055.06 515.07 581.007 253.826C485.104 200.973 191.705 -0.0724081 3.61523 170.158" stroke="#F6F9FB" stroke-width="0.25" stroke-miterlimit="10"/>
<path d="M2047.84 -52.3179C1855.08 180.561 1472.78 431.045 1073.5 219.973C963.61 161.883 828.552 252.539 719.706 312.523C623.803 365.376 300.925 624.512 112.836 454.281" stroke="#F6F9FB" stroke-miterlimit="10"/>
<path d="M115.635 419.82C306.148 599.202 613.838 355.403 720.548 303.175C829.664 249.786 961.939 165.958 1075.02 224.798C1149.92 263.996 1224.5 290.109 1298.42 302.603C1589.92 351.864 1892.3 183.188 2051.14 -3.55811" stroke="#F6F9FB" stroke-width="0.9318" stroke-miterlimit="10"/>
<path d="M118.439 385.36C311.376 573.893 603.519 345.179 721.396 293.845C830.278 246.426 960.381 169.801 1076.53 229.642C1150.12 267.553 1223.44 296.348 1297.55 311.487C1567.82 366.663 1892.66 230.322 2054.43 45.2378" stroke="#F6F9FB" stroke-width="0.8636" stroke-miterlimit="10"/>
<path d="M121.236 350.899C316.615 548.584 592.905 334.651 722.236 284.497C830.544 242.494 958.743 173.786 1078.06 234.468C1150.28 271.199 1222.32 302.443 1296.68 320.334C1545.74 380.283 1893.05 277.437 2057.75 93.9976" stroke="#F6F9FB" stroke-width="0.7955" stroke-miterlimit="10"/>
<path d="M124.035 316.438C321.837 523.274 582.06 323.748 723.078 275.149C830.578 238.097 957.09 177.808 1079.58 239.294C1150.44 274.881 1221.15 308.359 1295.82 329.2C1523.73 392.813 1893.44 324.553 2061.05 142.775" stroke="#F6F9FB" stroke-width="0.7273" stroke-miterlimit="10"/>
<path d="M126.854 281.959C327.079 497.929 571.055 312.38 723.939 265.801C830.47 233.342 955.438 181.83 1081.11 244.12C1150.58 278.563 1219.99 314.061 1294.94 338.047C1501.84 404.252 1893.8 371.668 2064.35 191.535" stroke="#F6F9FB" stroke-width="0.6591" stroke-miterlimit="10"/>
<path d="M129.66 247.498C332.309 472.62 559.894 300.566 724.789 256.453C830.243 228.23 953.774 185.905 1082.64 248.964C1150.71 282.281 1218.86 319.53 1294.08 346.931C1480.2 414.708 1894.2 418.819 2067.66 240.331" stroke="#F6F9FB" stroke-width="0.5909" stroke-miterlimit="10"/>
<path d="M132.457 213.038C337.53 447.31 548.634 288.215 725.629 247.105C829.97 222.868 952.083 189.998 1084.14 253.79C1150.82 285.999 1217.82 324.66 1293.2 355.778C1458.83 424.182 1894.58 465.917 2070.96 289.091" stroke="#F6F9FB" stroke-width="0.5227" stroke-miterlimit="10"/>
<path d="M135.256 178.559C342.77 421.983 537.304 275.292 726.471 237.739C829.699 217.256 950.358 194.109 1085.67 258.598C1150.94 289.716 1216.97 329.325 1292.34 364.626C1437.86 432.797 1894.95 513.032 2074.28 337.851" stroke="#F6F9FB" stroke-width="0.4545" stroke-miterlimit="10"/>
<path d="M138.061 144.098C347.998 396.674 525.944 261.797 727.319 228.409C829.451 211.465 948.639 198.292 1087.2 263.442C1151.07 293.47 1216.46 333.472 1291.48 373.491C1417.42 440.679 1895.35 560.148 2077.59 386.628" stroke="#F6F9FB" stroke-width="0.3864" stroke-miterlimit="10"/>
<path d="M140.859 109.637C353.221 371.364 514.597 247.713 728.161 219.061C829.252 205.513 946.823 202.671 1088.7 268.268C1151.12 297.313 1216.49 336.885 1290.6 382.357C1397.6 448.007 1895.73 607.281 2080.89 435.406" stroke="#F6F9FB" stroke-width="0.3182" stroke-miterlimit="10"/>
<path d="M143.664 75.1764C493.794 516.714 658.042 -61.934 1289.72 391.222C1378.66 455.014 1896.09 654.415 2084.18 484.184" stroke="#F6F9FB" stroke-width="0.25" stroke-miterlimit="10"/>
<g opacity="0.51">
<path opacity="0.51" d="M239.586 225.371C431.625 474.836 642.335 575.484 1111.96 401.696C1241.2 353.866 1392.41 377.853 1508.28 447.507C1610.36 508.868 1945.6 796.351 2174.18 643.976" stroke="#F6F9FB" stroke-miterlimit="10"/>
</g>
<g opacity="0.19">
<path opacity="0.19" d="M99.8418 -113.5C292.581 119.379 674.882 369.863 1074.17 158.79C1184.05 100.7 1319.11 191.357 1427.96 251.341C1523.86 304.194 1846.74 563.33 2034.83 393.099" stroke="#F6F9FB" stroke-miterlimit="10"/>
<path opacity="0.19" d="M2031.29 354.634C1840.78 534.016 1533.09 290.217 1426.38 237.989C1317.26 184.6 1184.99 100.772 1071.9 159.613C997.006 198.81 922.43 224.924 848.502 237.418C557.023 286.678 254.629 118.002 95.8027 -68.7439" stroke="#F6F9FB" stroke-width="0.9318" stroke-miterlimit="10"/>
<path opacity="0.19" d="M2027.75 316.152C1834.82 504.686 1542.68 275.972 1424.8 224.638C1315.92 177.219 1185.81 100.593 1069.66 160.435C996.072 198.345 922.754 227.14 848.645 242.279C578.369 297.438 253.517 161.114 91.7637 -23.9875" stroke="#F6F9FB" stroke-width="0.8636" stroke-miterlimit="10"/>
<path opacity="0.19" d="M2024.21 277.669C1828.84 475.354 1552.55 261.422 1423.22 211.268C1314.91 169.264 1186.71 100.557 1067.39 161.239C995.171 197.97 923.128 229.213 848.768 247.105C599.711 307.054 252.4 204.208 87.7031 20.7683" stroke="#F6F9FB" stroke-width="0.7955" stroke-miterlimit="10"/>
<path opacity="0.19" d="M2020.68 239.205C1822.88 446.041 1562.65 246.515 1421.64 197.916C1314.14 160.864 1187.62 100.575 1065.13 162.061C994.274 197.648 923.559 231.126 848.894 251.967C620.985 315.58 251.27 247.32 83.6641 65.5425" stroke="#F6F9FB" stroke-width="0.7273" stroke-miterlimit="10"/>
<path opacity="0.19" d="M2017.15 200.722C1816.92 416.692 1572.94 231.144 1420.06 184.564C1313.53 152.106 1188.56 100.593 1062.89 162.883C993.416 197.326 924.011 232.824 849.059 256.811C642.155 323.015 250.196 290.431 79.6465 110.299" stroke="#F6F9FB" stroke-width="0.6591" stroke-miterlimit="10"/>
<path opacity="0.19" d="M2013.61 162.24C1810.96 387.361 1583.37 215.308 1418.48 171.195C1313.02 142.972 1189.49 100.647 1060.63 163.706C992.553 197.023 924.405 234.272 849.183 261.672C663.069 329.45 249.064 333.561 75.6055 155.073" stroke="#F6F9FB" stroke-width="0.5909" stroke-miterlimit="10"/>
<path opacity="0.19" d="M2010.07 123.776C1805 358.048 1593.89 198.953 1416.9 157.843C1312.56 133.606 1190.44 100.736 1058.39 164.528C991.709 196.737 924.71 235.398 849.327 266.516C683.696 334.919 247.951 376.655 71.5664 199.829" stroke="#F6F9FB" stroke-width="0.5227" stroke-miterlimit="10"/>
<path opacity="0.19" d="M2006.53 85.2931C1799.02 328.717 1604.48 182.026 1415.32 144.473C1312.09 123.99 1191.43 100.843 1056.12 165.332C990.844 196.451 924.815 236.059 849.449 271.36C703.926 339.531 246.834 419.767 67.5059 244.585" stroke="#F6F9FB" stroke-width="0.4545" stroke-miterlimit="10"/>
<path opacity="0.19" d="M2002.99 46.8105C1793.06 299.386 1615.11 164.51 1413.74 131.122C1311.6 114.177 1192.42 101.004 1053.86 166.154C989.983 196.182 924.599 236.184 849.575 276.204C723.638 343.392 245.704 462.86 63.4668 289.341" stroke="#F6F9FB" stroke-width="0.3864" stroke-miterlimit="10"/>
<path opacity="0.19" d="M1999.44 8.34595C1787.08 270.073 1625.7 146.422 1412.13 117.77C1311.04 104.221 1193.47 101.379 1051.59 166.976C989.172 196.022 923.806 235.594 849.698 281.065C742.7 346.716 244.569 505.99 59.4062 334.115" stroke="#F6F9FB" stroke-width="0.3182" stroke-miterlimit="10"/>
<path opacity="0.19" d="M1995.9 -30.1362C1645.79 411.402 1481.54 -167.247 849.845 285.909C760.908 349.701 243.478 549.102 55.3887 378.871" stroke="#F6F9FB" stroke-width="0.25" stroke-miterlimit="10"/>
</g>
<path d="M213.621 225.299C419.735 446.542 619.871 518.145 1006.05 284.14C1112.33 219.741 1248.7 223.44 1360.88 276.973C1459.73 324.142 1797.31 563.991 1975.06 383.09" stroke="#F6F9FB" stroke-width="3" stroke-miterlimit="10"/>
<path d="M82.8906 407.72C296.491 193.627 498.96 128.87 876.88 375.869C980.88 443.843 1117.3 444.79 1231.26 395.101C1331.67 351.328 1677.3 123.096 1848.73 309.95" stroke="#F6F9FB" stroke-width="3" stroke-miterlimit="10"/>
</g>
</g>
</svg>
