<svg width="335" height="228" viewBox="0 0 335 228" fill="none" xmlns="http://www.w3.org/2000/svg">
<mask id="mask0_576_613" style="mask-type:alpha" maskUnits="userSpaceOnUse" x="0" y="0" width="335" height="228">
<rect width="335" height="228" fill="#013C76"/>
</mask>
<g mask="url(#mask0_576_613)">
<g opacity="0.25">
<path d="M-1001.23 48.3451C-798.218 -239.729 -607.131 -328.651 -254.038 -4.31172C-156.861 84.9449 -28.5534 84.4439 79.1264 16.7797C174.006 -42.844 501.336 -351.46 660.773 -104.639" stroke="#F6F9FB" stroke-width="3" stroke-miterlimit="10"/>
<path d="M-915.262 -284.393C-709.148 11.8972 -509.012 107.788 -122.834 -205.593C-16.5543 -291.837 119.814 -286.882 231.999 -215.191C330.846 -152.022 668.427 169.186 846.176 -73.0785" stroke="#F6F9FB" stroke-width="3" stroke-miterlimit="10"/>
<path d="M-1068.3 -405.992C-875.56 -94.1192 -679.984 17.2588 -280.7 -265.411C-170.812 -343.206 -34.8931 -327.599 73.9536 -247.267C169.856 -176.486 492.734 170.55 680.823 -57.4241" stroke="#F6F9FB" stroke-miterlimit="10"/>
<path d="M666.82 -278.121C477.851 0.263631 230.823 -152.477 78.4417 -201.476C-32.7388 -237.237 -157.833 -258.565 -277.235 -201.452C-352.044 -165.666 -423.208 -124.591 -495.557 -84.8078C-663.396 7.46862 -895.954 92.6358 -1068.3 -144.578" stroke="#F6F9FB" stroke-width="0.5909" stroke-miterlimit="10"/>
<path d="M664.487 -314.912C475.374 -28.1256 241.469 -150.203 79.1956 -193.864C-31.913 -223.761 -155.535 -244.131 -276.661 -190.8C-350.284 -158.39 -421.359 -118.032 -494.623 -75.6162C-647.759 13.0696 -892.794 134.357 -1068.3 -101.037" stroke="#F6F9FB" stroke-width="0.5227" stroke-miterlimit="10"/>
<path d="M662.149 -351.679C472.875 -56.4907 252.148 -148.48 79.9462 -186.204C-31.0727 -210.524 -153.204 -229.506 -276.09 -180.124C-348.511 -151.017 -419.567 -111.689 -493.711 -66.3766C-632.287 18.3358 -889.674 176.103 -1068.32 -57.4242" stroke="#F6F9FB" stroke-width="0.4545" stroke-miterlimit="10"/>
<path d="M659.814 -388.47C470.396 -84.8796 262.829 -147.379 80.6994 -178.592C-30.2836 -197.622 -150.853 -214.761 -275.498 -169.472C-346.716 -143.597 -417.88 -105.657 -492.761 -57.1847C-616.939 23.1711 -886.497 217.801 -1068.29 -13.8592" stroke="#F6F9FB" stroke-width="0.3864" stroke-miterlimit="10"/>
<path d="M657.485 -425.237C467.924 -113.245 273.461 -146.828 81.4398 -170.956C-29.5432 -184.888 -148.515 -199.848 -274.937 -158.82C-344.934 -136.104 -416.368 -99.9597 -491.841 -47.9929C-601.782 27.6952 -883.351 259.499 -1068.3 29.682" stroke="#F6F9FB" stroke-width="0.3182" stroke-miterlimit="10"/>
<path d="M655.151 -462.028C305.021 129.283 -16.8688 -388.638 -490.907 -38.7774C-586.81 32.0037 -880.209 301.245 -1068.3 73.2708" stroke="#F6F9FB" stroke-width="0.25" stroke-miterlimit="10"/>
<path d="M-1290 90.9604C-1085.45 -207.244 -885.815 -305.026 -498.003 4.74006C-391.275 89.979 -254.943 83.7554 -143.116 11.0115C-44.6099 -53.0673 540.645 -419.085 719.65 -178.472" stroke="#F6F9FB" stroke-miterlimit="10"/>
<path d="M716.546 -143.405C534.309 -395.053 -25.8482 -59.2194 -142.109 5.8408C-255.767 69.4409 -389.586 79.6619 -497.194 -0.693974C-576.006 -59.5785 -647.278 -105.178 -713.074 -137.708C-952.167 -255.86 -1124.48 -178.281 -1289.59 58.1906" stroke="#F6F9FB" stroke-width="0.9318" stroke-miterlimit="10"/>
<path d="M713.44 -108.361C527.99 -371.068 -6.58464 -64.8682 -141.104 0.622861C-255.946 56.5153 -387.88 69.2736 -496.386 -6.17518C-574.839 -60.7272 -646.092 -105.633 -712.553 -139.671C-936.889 -254.567 -1121.73 -210.189 -1289.14 25.4453" stroke="#F6F9FB" stroke-width="0.8636" stroke-miterlimit="10"/>
<path d="M710.332 -73.318C521.668 -347.059 13.0171 -69.7992 -140.101 -4.59538C-255.715 44.6426 -386.141 58.8371 -495.58 -11.6807C-573.638 -61.972 -644.91 -106.064 -712.053 -141.682C-921.739 -252.916 -1119.04 -242.12 -1288.74 -7.32421" stroke="#F6F9FB" stroke-width="0.7955" stroke-miterlimit="10"/>
<path d="M707.227 -38.2506C515.35 -323.027 32.8919 -73.9404 -139.094 -9.78973C-255.247 33.5359 -384.381 48.3527 -494.789 -17.1383C-572.434 -63.1928 -643.742 -106.351 -711.549 -143.644C-906.658 -250.881 -1116.33 -274.028 -1288.33 -40.0937" stroke="#F6F9FB" stroke-width="0.7273" stroke-miterlimit="10"/>
<path d="M704.124 -3.20698C509.016 -299.042 52.9477 -77.2914 -138.104 -14.9839C-254.67 23.0277 -382.601 37.8207 -493.996 -22.5958C-571.211 -64.4613 -642.608 -106.59 -711.043 -145.607C-891.647 -248.535 -1113.59 -305.96 -1287.9 -72.8631" stroke="#F6F9FB" stroke-width="0.6591" stroke-miterlimit="10"/>
<path d="M701.016 31.8364C502.693 -275.033 73.1232 -79.781 -137.084 -20.2023C-254.009 12.9262 -380.755 27.1925 -493.174 -28.0775C-569.939 -65.8019 -641.462 -106.758 -710.526 -147.57C-876.749 -245.831 -1110.87 -337.868 -1287.47 -105.633" stroke="#F6F9FB" stroke-width="0.5909" stroke-miterlimit="10"/>
<path d="M697.911 66.9038C496.375 -251.001 93.3928 -81.3847 -136.077 -25.3965C-253.326 3.208 -378.904 16.5168 -492.383 -33.535C-568.681 -67.1663 -640.384 -106.758 -710.022 -149.533C-861.955 -242.838 -1108.16 -369.775 -1287.05 -138.378" stroke="#F6F9FB" stroke-width="0.5227" stroke-miterlimit="10"/>
<path d="M694.802 101.947C490.052 -227.016 113.676 -82.1269 -135.075 -30.6149C-252.683 -6.24721 -377.058 5.72121 -491.578 -39.0167C-567.392 -68.6265 -639.346 -106.662 -709.505 -151.52C-847.255 -239.559 -1105.43 -401.707 -1286.63 -171.172" stroke="#F6F9FB" stroke-width="0.4545" stroke-miterlimit="10"/>
<path d="M691.701 136.991C483.739 -203.008 133.986 -82.007 -134.064 -35.809C-252.067 -15.4866 -375.186 -5.14595 -490.765 -44.4741C-566.094 -70.1104 -638.371 -106.351 -708.997 -153.482C-832.672 -235.992 -1102.73 -433.591 -1286.23 -203.917" stroke="#F6F9FB" stroke-width="0.3864" stroke-miterlimit="10"/>
<path d="M688.593 172.034C477.416 -178.999 154.269 -80.9779 -133.08 -41.0273C-251.514 -24.5588 -373.322 -16.1091 -489.996 -49.9558C-564.84 -71.6664 -637.548 -105.8 -708.515 -155.445C-818.223 -232.211 -1100.01 -465.523 -1285.8 -236.687" stroke="#F6F9FB" stroke-width="0.3182" stroke-miterlimit="10"/>
<path d="M685.488 207.102C335.376 -384.209 -233.937 192.452 -707.993 -157.408C-803.896 -228.189 -1097.3 -497.43 -1285.38 -269.456" stroke="#F6F9FB" stroke-width="0.25" stroke-miterlimit="10"/>
<path d="M758.839 -567.398C566.082 -255.525 183.782 79.9252 -215.502 -202.745C-325.39 -280.539 -460.448 -159.132 -569.294 -78.7998C-665.197 -8.01863 -988.075 339.017 -1176.16 111.043" stroke="#F6F9FB" stroke-miterlimit="10"/>
<path d="M-1173.37 64.8929C-982.852 305.123 -675.162 -21.3754 -568.452 -91.3187C-459.336 -162.818 -327.061 -275.082 -213.978 -196.282C-139.08 -143.788 -64.5047 -108.817 9.42409 -92.0847C300.921 -26.1149 603.296 -252.007 762.141 -502.098" stroke="#F6F9FB" stroke-width="0.9318" stroke-miterlimit="10"/>
<path d="M-1170.56 18.7429C-977.624 271.228 -685.481 -35.0671 -567.604 -103.814C-458.722 -167.318 -328.619 -269.935 -212.466 -189.795C-138.878 -139.025 -65.5599 -100.462 8.54843 -80.188C278.825 -6.29505 603.659 -188.885 765.43 -436.751" stroke="#F6F9FB" stroke-width="0.8636" stroke-miterlimit="10"/>
<path d="M-1167.76 -27.4074C-972.385 237.334 -696.095 -49.166 -566.764 -116.333C-458.456 -172.584 -330.257 -264.597 -210.944 -183.332C-138.72 -134.142 -66.6766 -92.3002 7.68309 -68.3394C256.74 11.9446 604.051 -125.788 768.748 -371.451" stroke="#F6F9FB" stroke-width="0.7955" stroke-miterlimit="10"/>
<path d="M-1164.96 -73.5576C-967.163 203.439 -706.94 -63.7674 -565.922 -128.852C-458.422 -178.473 -331.91 -259.211 -209.42 -176.869C-138.561 -129.211 -67.8454 -84.377 6.81944 -56.4667C234.728 28.7244 604.444 -62.6903 772.049 -306.128" stroke="#F6F9FB" stroke-width="0.7273" stroke-miterlimit="10"/>
<path d="M-1162.15 -119.732C-961.921 169.497 -717.945 -78.9914 -565.061 -141.371C-458.53 -184.84 -333.562 -253.826 -207.894 -170.406C-138.417 -124.28 -69.0124 -76.7413 5.93968 -44.6181C212.843 44.0438 604.803 0.407 775.352 -240.828" stroke="#F6F9FB" stroke-width="0.6591" stroke-miterlimit="10"/>
<path d="M-1159.34 -165.882C-956.691 135.602 -729.106 -94.8133 -564.211 -153.889C-458.757 -191.686 -335.226 -248.368 -206.362 -163.919C-138.286 -119.301 -70.1374 -69.4164 5.084 -32.7212C191.199 58.0471 605.204 63.5526 778.662 -175.48" stroke="#F6F9FB" stroke-width="0.5909" stroke-miterlimit="10"/>
<path d="M-1156.54 -212.032C-951.47 101.708 -740.366 -111.354 -563.371 -166.408C-459.03 -198.867 -336.917 -242.886 -204.857 -157.456C-138.182 -114.322 -71.1824 -62.5465 4.20061 -20.8725C169.831 70.7336 605.577 126.626 781.961 -110.181" stroke="#F6F9FB" stroke-width="0.5227" stroke-miterlimit="10"/>
<path d="M-1153.74 -258.206C-946.23 67.7893 -751.696 -128.66 -562.529 -178.951C-459.301 -206.383 -338.642 -237.381 -203.333 -151.017C-138.058 -109.343 -72.028 -56.2991 3.33704 -9.02389C148.861 82.2711 605.952 189.723 785.281 -44.8813" stroke="#F6F9FB" stroke-width="0.4545" stroke-miterlimit="10"/>
<path d="M-1150.94 -304.356C-941.002 33.8949 -763.056 -146.732 -561.681 -191.446C-459.549 -214.138 -340.361 -231.78 -201.803 -144.53C-137.928 -104.316 -72.5446 -50.7457 2.47936 2.84885C128.417 92.8273 606.351 252.821 788.588 20.4424" stroke="#F6F9FB" stroke-width="0.3864" stroke-miterlimit="10"/>
<path d="M-1148.14 -350.506C-935.779 0.000124063 -774.403 -165.595 -560.839 -203.965C-459.748 -222.109 -342.177 -225.915 -200.297 -138.067C-137.876 -99.17 -72.5104 -46.174 1.59792 14.7212C108.595 102.641 606.726 315.942 791.89 85.7657" stroke="#F6F9FB" stroke-width="0.3182" stroke-miterlimit="10"/>
<path d="M-1145.34 -396.657C-795.206 194.654 -630.958 -580.276 0.722348 26.594C89.6595 112.024 607.09 379.063 795.179 151.089" stroke="#F6F9FB" stroke-width="0.25" stroke-miterlimit="10"/>
<g opacity="0.51">
<path opacity="0.51" d="M-1049.41 -195.516C-857.375 138.57 -646.665 273.359 -177.043 40.621C-47.8024 -23.4338 103.412 8.68936 219.278 101.971C321.357 184.146 656.604 569.146 885.176 365.084" stroke="#F6F9FB" stroke-miterlimit="10"/>
<path opacity="0.51" d="M885.999 320.514C656.565 533.001 332.359 182.734 219.939 101.947C102.368 17.4742 -46.1181 -17.0427 -176.813 43.6611C-269.448 86.6755 -352.767 118.942 -429.245 139.241C-712.267 214.331 -894.953 105.849 -1052.16 -159.802" stroke="#F6F9FB" stroke-width="0.9318" stroke-miterlimit="10"/>
<path opacity="0.51" d="M886.811 275.944C656.479 496.857 343.673 181.01 220.59 101.947C101.743 25.6366 -44.4268 -10.5319 -176.612 46.701C-267.847 86.2207 -350.896 118.775 -428.72 140.94C-694.383 216.628 -894.142 140.007 -1054.96 -124.088" stroke="#F6F9FB" stroke-width="0.8636" stroke-miterlimit="10"/>
<path opacity="0.51" d="M887.634 231.374C656.422 460.736 355.249 178.904 221.233 101.947C101.435 33.1768 -42.688 -3.9492 -176.399 49.765C-266.234 85.8378 -349.013 118.535 -428.166 142.664C-676.523 218.352 -893.3 174.165 -1057.75 -88.3504" stroke="#F6F9FB" stroke-width="0.7955" stroke-miterlimit="10"/>
<path opacity="0.51" d="M888.463 186.803C656.372 424.591 367.065 176.343 221.901 101.947C101.367 40.1902 -40.9077 2.72911 -176.181 52.8288C-264.579 85.5505 -347.143 118.224 -427.607 144.387C-658.711 219.525 -892.471 208.346 -1060.51 -52.6128" stroke="#F6F9FB" stroke-width="0.7273" stroke-miterlimit="10"/>
<path opacity="0.51" d="M889.285 142.233C656.314 388.447 379.036 173.279 222.562 101.947C101.453 46.749 -39.0977 9.52728 -175.95 55.8929C-262.877 85.3351 -345.243 117.793 -427.035 146.111C-640.977 220.195 -891.613 242.504 -1063.26 -16.875" stroke="#F6F9FB" stroke-width="0.6591" stroke-miterlimit="10"/>
<path opacity="0.51" d="M890.093 97.6625C656.243 352.326 391.137 169.688 223.19 101.947C101.597 52.9006 -37.3022 16.4209 -175.771 58.9327C-261.225 85.1675 -343.448 117.195 -426.533 147.81C-623.383 220.363 -890.823 276.662 -1066.08 18.8386" stroke="#F6F9FB" stroke-width="0.5909" stroke-miterlimit="10"/>
<path opacity="0.51" d="M890.924 53.0921C656.193 316.182 403.331 165.547 223.859 101.947C101.835 58.6933 -35.4485 23.4344 -175.533 61.9966C-259.515 85.1196 -341.612 116.429 -425.954 149.534C-605.803 220.099 -889.957 310.82 -1068.82 54.5763" stroke="#F6F9FB" stroke-width="0.5227" stroke-miterlimit="10"/>
<path opacity="0.51" d="M891.749 8.52179C656.139 280.037 415.592 160.832 224.505 101.947C102.068 64.2227 -33.6 30.5915 -175.336 65.0605C-257.81 85.1196 -339.871 115.471 -425.416 151.257C-588.371 219.405 -889.131 344.978 -1071.6 90.3139" stroke="#F6F9FB" stroke-width="0.4545" stroke-miterlimit="10"/>
<path opacity="0.51" d="M892.576 -36.0485C656.086 243.892 427.873 155.518 225.17 101.947C102.302 69.4649 -31.7139 37.8922 -175.101 68.1244C-256.086 85.1914 -338.165 114.203 -424.84 152.98C-570.992 218.352 -888.269 379.159 -1074.37 126.052" stroke="#F6F9FB" stroke-width="0.3864" stroke-miterlimit="10"/>
<path opacity="0.51" d="M893.38 -80.6188C655.992 207.772 440.13 149.629 225.812 101.947C102.46 74.5156 -29.8509 45.3366 -174.908 71.1644C-254.402 85.335 -336.625 112.527 -424.323 154.656C-553.834 216.868 -887.465 413.269 -1077.17 161.741" stroke="#F6F9FB" stroke-width="0.3182" stroke-miterlimit="10"/>
<path opacity="0.51" d="M894.206 -125.189C455.84 420.905 134.901 -134.142 -423.766 156.403C-536.778 215.168 -886.638 447.475 -1079.93 197.503" stroke="#F6F9FB" stroke-width="0.25" stroke-miterlimit="10"/>
</g>
<g opacity="0.19">
<path opacity="0.19" d="M-1189.16 -649.333C-996.419 -337.461 -614.118 -2.01023 -214.834 -284.68C-104.947 -362.475 30.1109 -241.067 138.957 -160.735C234.86 -89.9541 557.738 257.082 745.827 29.1076" stroke="#F6F9FB" stroke-miterlimit="10"/>
<path opacity="0.19" d="M742.291 -22.4044C551.778 217.825 244.088 -108.673 137.378 -178.616C28.2621 -250.115 -104.013 -362.379 -217.096 -283.579C-291.994 -231.085 -366.57 -196.114 -440.498 -179.382C-731.977 -113.412 -1034.37 -339.304 -1193.2 -589.396" stroke="#F6F9FB" stroke-width="0.9318" stroke-miterlimit="10"/>
<path opacity="0.19" d="M738.754 -73.9403C545.818 178.545 253.675 -127.75 135.798 -196.497C26.9158 -260.001 -103.187 -362.618 -219.34 -282.478C-292.928 -231.708 -366.246 -193.146 -440.355 -172.871C-710.631 -99.0021 -1035.48 -281.568 -1197.24 -529.458" stroke="#F6F9FB" stroke-width="0.8636" stroke-miterlimit="10"/>
<path opacity="0.19" d="M713.994 -434.644C504.056 -96.3932 326.11 -277.02 124.736 -321.734C22.6036 -344.426 -96.5837 -362.068 -235.142 -274.818C-299.017 -234.604 -364.401 -181.034 -439.425 -127.439C-565.362 -37.4608 -1043.3 122.533 -1225.53 -109.846" stroke="#F6F9FB" stroke-width="0.3864" stroke-miterlimit="10"/>
<path opacity="0.19" d="M710.436 -486.156C498.075 -135.65 336.699 -301.244 123.135 -339.615C22.0438 -357.759 -95.5278 -361.565 -237.407 -273.717C-299.828 -234.82 -365.194 -181.824 -439.302 -120.928C-546.3 -33.0086 -1044.43 180.292 -1229.59 -49.884" stroke="#F6F9FB" stroke-width="0.3182" stroke-miterlimit="10"/>
<path opacity="0.19" d="M706.903 -537.692C356.792 53.6189 192.544 -721.311 -439.155 -114.441C-528.092 -29.0109 -1045.52 238.028 -1233.61 10.0539" stroke="#F6F9FB" stroke-width="0.25" stroke-miterlimit="10"/>
</g>
<path d="M-1075.38 -195.611C-869.265 100.679 -669.129 196.57 -282.951 -116.811C-176.671 -203.055 -40.3036 -198.1 71.8822 -126.41C170.729 -63.2404 508.31 257.968 686.059 15.7032" stroke="#F6F9FB" stroke-width="3" stroke-miterlimit="10"/>
<path d="M-1206.11 48.688C-992.509 -238.027 -790.04 -324.75 -412.12 6.03256C-308.12 97.0642 -171.698 98.3329 -57.7351 31.7886C42.6739 -26.8326 388.297 -332.482 559.727 -82.2463" stroke="#F6F9FB" stroke-width="3" stroke-miterlimit="10"/>
</g>
</g>
</svg>
