<svg width="90" height="90" viewBox="0 0 90 90" fill="none" xmlns="http://www.w3.org/2000/svg">
<circle cx="45" cy="45" r="45" fill="#D6E4ED" fill-opacity="0.6"/>
<path d="M66 25C66.5467 25 67 24.6291 67 24.1818V19.8182C67 19.3709 66.5467 19 66 19C65.4533 19 65 19.3709 65 19.8182V24.1818C65 24.6291 65.4533 25 66 25Z" fill="#E8444D"/>
<path d="M20 68C20.5467 68 21 67.6291 21 67.1818V62.8182C21 62.3709 20.5467 62 20 62C19.4533 62 19 62.3709 19 62.8182V67.1818C19 67.6291 19.4533 68 20 68Z" fill="#E8444D"/>
<path d="M63.8182 23H68.1818C68.6291 23 69 22.5467 69 22C69 21.4533 68.6291 21 68.1818 21H63.8182C63.3709 21 63 21.4533 63 22C63 22.5467 63.3709 23 63.8182 23Z" fill="#E8444D"/>
<path d="M17.8182 66H22.1818C22.6291 66 23 65.5467 23 65C23 64.4533 22.6291 64 22.1818 64H17.8182C17.3709 64 17 64.4533 17 65C17 65.5467 17.3709 66 17.8182 66Z" fill="#E8444D"/>
<path d="M60 23C59.4477 23 59 22.5523 59 22C59 21.4477 59.4477 21 60 21C60.5523 21 61 21.4477 61 22C61 22.5523 60.5523 23 60 23Z" fill="#1B2C4E"/>
<path d="M57 23C56.4477 23 56 22.5523 56 22C56 21.4477 56.4477 21 57 21C57.5523 21 58 21.4477 58 22C58 22.5523 57.5523 23 57 23Z" fill="#1B2C4E"/>
<path d="M53 23C52.4477 23 52 22.5523 52 22C52 21.4477 52.4477 21 53 21C53.5523 21 54 21.4477 54 22C54 22.5523 53.5523 23 53 23Z" fill="#1B2C4E"/>
<path d="M22 37C21.4533 37 21 36.6762 21 36.2857V33.7143C21 33.3238 21.4533 33 22 33C22.5467 33 23 33.3238 23 33.7143V36.2857C23 36.6857 22.5467 37 22 37Z" fill="#1B2C4E"/>
<path d="M22 48C21.4533 48 21 47.6513 21 47.2308V40.7692C21 40.3487 21.4533 40 22 40C22.5467 40 23 40.3487 23 40.7692V47.2308C23 47.6615 22.5467 48 22 48Z" fill="#1B2C4E"/>
<mask id="path-11-outside-1_593_64" maskUnits="userSpaceOnUse" x="11" y="8" width="67" height="77" fill="black">
<rect fill="white" x="11" y="8" width="67" height="77"/>
<path d="M32.361 57.2034C32.0368 57.2034 31.8275 57.2034 31.617 57.2034C26.233 57.2034 20.8478 57.2034 15.4637 57.2045C13.5198 57.2045 12.0107 55.7097 12.0001 53.7728C11.9894 51.8871 13.4508 50.4 15.3595 50.3553C15.519 50.352 15.6794 50.34 15.8378 50.3542C16.1779 50.3847 16.3362 50.2417 16.3086 49.8858C16.299 49.7591 16.3075 49.6314 16.3075 49.5036C16.3075 38.6407 16.3075 27.7767 16.3075 16.9138C16.3075 15.8667 16.3075 15.8667 15.3085 15.8481C13.7377 15.8187 12.4199 14.7312 12.0893 13.1916C11.7535 11.6303 12.4624 10.0471 13.8759 9.37451C14.3424 9.15286 14.8951 9.01965 15.4095 9.01856C34.7512 9.00109 54.0929 9.00546 73.4347 9C74.8833 9 75.9843 9.61035 76.6262 10.9359C77.2512 12.2275 77.0811 13.493 76.2011 14.6154C75.4997 15.5108 74.5495 15.8798 73.4347 15.8514C72.6865 15.8329 72.6812 15.8503 72.6812 16.6135C72.6801 27.6042 72.6801 38.5948 72.6812 49.5855C72.6812 50.3367 72.6875 50.3804 73.4368 50.3422C75.9875 50.21 77.7985 52.9473 76.6018 55.3221C75.9556 56.6051 74.879 57.2034 73.4836 57.2034C68.2057 57.2045 62.9269 57.2034 57.649 57.2034C57.4609 57.2034 57.2728 57.2034 56.971 57.2034C57.3812 58.007 57.7362 58.7102 58.0986 59.41C62.1138 67.1841 66.1301 74.9581 70.1464 82.7311C70.1793 82.7955 70.2134 82.8599 70.2474 82.9232C70.4567 83.3108 70.4589 83.6897 70.0497 83.9092C69.6554 84.121 69.3408 83.9474 69.1336 83.5434C68.6978 82.6896 68.2493 81.8434 67.8083 80.9928C66.2555 77.9902 64.6922 74.992 63.1649 71.9762C62.9385 71.5297 62.6814 71.4118 62.2201 71.4118C52.0715 71.4249 41.9219 71.4216 31.7733 71.4216C30.1972 71.4216 28.62 71.4358 27.0439 71.4096C26.6326 71.403 26.4179 71.5373 26.2255 71.914C24.3401 75.6001 22.4345 79.2753 20.5343 82.9527C20.4514 83.1132 20.3653 83.2726 20.2792 83.4309C19.9976 83.9507 19.6862 84.1101 19.3184 83.9245C18.9528 83.741 18.8891 83.3622 19.1569 82.8402C19.8403 81.5049 20.5311 80.1717 21.2198 78.8397C24.846 71.8212 28.4733 64.8027 32.0985 57.7832C32.1782 57.6292 32.243 57.4643 32.361 57.2034ZM44.5385 15.8481C35.7545 15.8481 26.9716 15.8514 18.1876 15.8394C17.7168 15.8383 17.5553 15.9508 17.5563 16.4694C17.5712 27.5485 17.5723 38.6287 17.5574 49.7078C17.5563 50.2504 17.7253 50.3662 18.2206 50.3629C22.1869 50.3411 26.1543 50.3465 30.1206 50.3465C36.8672 50.3465 43.6128 50.3454 50.3594 50.3585C50.7823 50.3596 50.9056 50.2188 50.8918 49.7929C50.8621 48.8845 50.8663 47.9739 50.8876 47.0644C50.9131 45.954 51.8388 44.9516 52.8537 44.9484C56.2706 44.9353 59.6864 44.9309 63.1033 44.9418C64.3319 44.9451 65.2055 45.8568 65.2246 47.1157C65.2374 47.9521 65.2246 48.7895 65.2278 49.6259C65.231 50.3498 65.2331 50.352 65.9176 50.352C67.5117 50.3531 69.1049 50.3531 70.699 50.352C71.4037 50.352 71.4047 50.3498 71.4047 49.5997C71.4047 38.5752 71.3994 27.5496 71.4175 16.5251C71.4186 15.9508 71.2464 15.8372 70.7288 15.8372C61.999 15.8514 53.2682 15.847 44.5385 15.8481ZM44.4811 51.6491C34.9712 51.6491 25.4603 51.6491 15.9504 51.6491C15.7028 51.6491 15.4541 51.6415 15.2065 51.6557C14.234 51.7135 13.437 52.4756 13.3009 53.4681C13.1075 54.8799 14.1076 55.9074 15.6741 55.9074C34.8182 55.9074 53.9633 55.9074 73.1073 55.9052C73.407 55.9052 73.7121 55.903 74.0065 55.8495C74.7175 55.7185 75.2382 55.3101 75.5252 54.6222C76.1469 53.1329 75.1341 51.6513 73.4899 51.6502C63.8207 51.648 54.1503 51.6491 44.4811 51.6491ZM44.4832 14.5565C53.8517 14.5565 63.2191 14.5565 72.5876 14.5565C72.9777 14.5565 73.3677 14.5739 73.7556 14.551C75.1298 14.4669 76.0311 13.0694 75.5826 11.7318C75.2605 10.771 74.507 10.3004 73.2646 10.3004C54.0685 10.2993 34.8713 10.3004 15.6741 10.3015C15.4446 10.3015 15.2129 10.3124 14.9865 10.3495C13.9407 10.5231 13.2095 11.4873 13.2903 12.5747C13.3796 13.7823 14.2457 14.5554 15.5285 14.5554C25.1808 14.5576 34.832 14.5565 44.4832 14.5565ZM59.4632 64.8934C59.3888 64.7154 59.3601 64.6324 59.3208 64.5549C58.1188 62.2259 56.9104 59.9014 55.7211 57.5659C55.5585 57.2471 55.3438 57.199 55.0378 57.199C48.1318 57.2045 41.2268 57.2056 34.3208 57.1968C33.9786 57.1968 33.7777 57.2918 33.613 57.6172C32.4577 59.8883 31.2812 62.1495 30.1143 64.414C30.0441 64.5505 29.9942 64.6968 29.9123 64.8923C39.7857 64.8934 49.5846 64.8934 59.4632 64.8934ZM27.1969 70.0775C38.8908 70.0775 50.4826 70.0775 62.1638 70.0775C61.5867 68.9573 61.0266 67.9287 60.526 66.8707C60.3028 66.3979 60.0339 66.2331 59.5153 66.2342C51.2107 66.2527 42.9049 66.2473 34.6003 66.2473C32.953 66.2473 31.3067 66.2582 29.6594 66.2396C29.2885 66.2352 29.077 66.3554 28.9207 66.7026C28.6752 67.2463 28.3808 67.766 28.1088 68.2967C27.8165 68.8688 27.5242 69.4399 27.1969 70.0775ZM58.0359 50.352C59.7863 50.352 61.5367 50.3345 63.2871 50.3629C63.8015 50.3716 64.0237 50.2614 63.9769 49.6772C63.9227 48.9915 63.9641 48.2971 63.9641 47.607C63.9631 46.4322 63.7824 46.2422 62.6463 46.2422C59.5344 46.2422 56.4215 46.252 53.3097 46.2422C52.419 46.2389 52.1257 46.4966 52.1236 47.4083C52.1215 48.189 52.1597 48.9719 52.1193 49.7515C52.0928 50.2592 52.2905 50.364 52.7326 50.3596C54.5 50.3421 56.2685 50.352 58.0359 50.352Z"/>
</mask>
<path d="M32.361 57.2034C32.0368 57.2034 31.8275 57.2034 31.617 57.2034C26.233 57.2034 20.8478 57.2034 15.4637 57.2045C13.5198 57.2045 12.0107 55.7097 12.0001 53.7728C11.9894 51.8871 13.4508 50.4 15.3595 50.3553C15.519 50.352 15.6794 50.34 15.8378 50.3542C16.1779 50.3847 16.3362 50.2417 16.3086 49.8858C16.299 49.7591 16.3075 49.6314 16.3075 49.5036C16.3075 38.6407 16.3075 27.7767 16.3075 16.9138C16.3075 15.8667 16.3075 15.8667 15.3085 15.8481C13.7377 15.8187 12.4199 14.7312 12.0893 13.1916C11.7535 11.6303 12.4624 10.0471 13.8759 9.37451C14.3424 9.15286 14.8951 9.01965 15.4095 9.01856C34.7512 9.00109 54.0929 9.00546 73.4347 9C74.8833 9 75.9843 9.61035 76.6262 10.9359C77.2512 12.2275 77.0811 13.493 76.2011 14.6154C75.4997 15.5108 74.5495 15.8798 73.4347 15.8514C72.6865 15.8329 72.6812 15.8503 72.6812 16.6135C72.6801 27.6042 72.6801 38.5948 72.6812 49.5855C72.6812 50.3367 72.6875 50.3804 73.4368 50.3422C75.9875 50.21 77.7985 52.9473 76.6018 55.3221C75.9556 56.6051 74.879 57.2034 73.4836 57.2034C68.2057 57.2045 62.9269 57.2034 57.649 57.2034C57.4609 57.2034 57.2728 57.2034 56.971 57.2034C57.3812 58.007 57.7362 58.7102 58.0986 59.41C62.1138 67.1841 66.1301 74.9581 70.1464 82.7311C70.1793 82.7955 70.2134 82.8599 70.2474 82.9232C70.4567 83.3108 70.4589 83.6897 70.0497 83.9092C69.6554 84.121 69.3408 83.9474 69.1336 83.5434C68.6978 82.6896 68.2493 81.8434 67.8083 80.9928C66.2555 77.9902 64.6922 74.992 63.1649 71.9762C62.9385 71.5297 62.6814 71.4118 62.2201 71.4118C52.0715 71.4249 41.9219 71.4216 31.7733 71.4216C30.1972 71.4216 28.62 71.4358 27.0439 71.4096C26.6326 71.403 26.4179 71.5373 26.2255 71.914C24.3401 75.6001 22.4345 79.2753 20.5343 82.9527C20.4514 83.1132 20.3653 83.2726 20.2792 83.4309C19.9976 83.9507 19.6862 84.1101 19.3184 83.9245C18.9528 83.741 18.8891 83.3622 19.1569 82.8402C19.8403 81.5049 20.5311 80.1717 21.2198 78.8397C24.846 71.8212 28.4733 64.8027 32.0985 57.7832C32.1782 57.6292 32.243 57.4643 32.361 57.2034ZM44.5385 15.8481C35.7545 15.8481 26.9716 15.8514 18.1876 15.8394C17.7168 15.8383 17.5553 15.9508 17.5563 16.4694C17.5712 27.5485 17.5723 38.6287 17.5574 49.7078C17.5563 50.2504 17.7253 50.3662 18.2206 50.3629C22.1869 50.3411 26.1543 50.3465 30.1206 50.3465C36.8672 50.3465 43.6128 50.3454 50.3594 50.3585C50.7823 50.3596 50.9056 50.2188 50.8918 49.7929C50.8621 48.8845 50.8663 47.9739 50.8876 47.0644C50.9131 45.954 51.8388 44.9516 52.8537 44.9484C56.2706 44.9353 59.6864 44.9309 63.1033 44.9418C64.3319 44.9451 65.2055 45.8568 65.2246 47.1157C65.2374 47.9521 65.2246 48.7895 65.2278 49.6259C65.231 50.3498 65.2331 50.352 65.9176 50.352C67.5117 50.3531 69.1049 50.3531 70.699 50.352C71.4037 50.352 71.4047 50.3498 71.4047 49.5997C71.4047 38.5752 71.3994 27.5496 71.4175 16.5251C71.4186 15.9508 71.2464 15.8372 70.7288 15.8372C61.999 15.8514 53.2682 15.847 44.5385 15.8481ZM44.4811 51.6491C34.9712 51.6491 25.4603 51.6491 15.9504 51.6491C15.7028 51.6491 15.4541 51.6415 15.2065 51.6557C14.234 51.7135 13.437 52.4756 13.3009 53.4681C13.1075 54.8799 14.1076 55.9074 15.6741 55.9074C34.8182 55.9074 53.9633 55.9074 73.1073 55.9052C73.407 55.9052 73.7121 55.903 74.0065 55.8495C74.7175 55.7185 75.2382 55.3101 75.5252 54.6222C76.1469 53.1329 75.1341 51.6513 73.4899 51.6502C63.8207 51.648 54.1503 51.6491 44.4811 51.6491ZM44.4832 14.5565C53.8517 14.5565 63.2191 14.5565 72.5876 14.5565C72.9777 14.5565 73.3677 14.5739 73.7556 14.551C75.1298 14.4669 76.0311 13.0694 75.5826 11.7318C75.2605 10.771 74.507 10.3004 73.2646 10.3004C54.0685 10.2993 34.8713 10.3004 15.6741 10.3015C15.4446 10.3015 15.2129 10.3124 14.9865 10.3495C13.9407 10.5231 13.2095 11.4873 13.2903 12.5747C13.3796 13.7823 14.2457 14.5554 15.5285 14.5554C25.1808 14.5576 34.832 14.5565 44.4832 14.5565ZM59.4632 64.8934C59.3888 64.7154 59.3601 64.6324 59.3208 64.5549C58.1188 62.2259 56.9104 59.9014 55.7211 57.5659C55.5585 57.2471 55.3438 57.199 55.0378 57.199C48.1318 57.2045 41.2268 57.2056 34.3208 57.1968C33.9786 57.1968 33.7777 57.2918 33.613 57.6172C32.4577 59.8883 31.2812 62.1495 30.1143 64.414C30.0441 64.5505 29.9942 64.6968 29.9123 64.8923C39.7857 64.8934 49.5846 64.8934 59.4632 64.8934ZM27.1969 70.0775C38.8908 70.0775 50.4826 70.0775 62.1638 70.0775C61.5867 68.9573 61.0266 67.9287 60.526 66.8707C60.3028 66.3979 60.0339 66.2331 59.5153 66.2342C51.2107 66.2527 42.9049 66.2473 34.6003 66.2473C32.953 66.2473 31.3067 66.2582 29.6594 66.2396C29.2885 66.2352 29.077 66.3554 28.9207 66.7026C28.6752 67.2463 28.3808 67.766 28.1088 68.2967C27.8165 68.8688 27.5242 69.4399 27.1969 70.0775ZM58.0359 50.352C59.7863 50.352 61.5367 50.3345 63.2871 50.3629C63.8015 50.3716 64.0237 50.2614 63.9769 49.6772C63.9227 48.9915 63.9641 48.2971 63.9641 47.607C63.9631 46.4322 63.7824 46.2422 62.6463 46.2422C59.5344 46.2422 56.4215 46.252 53.3097 46.2422C52.419 46.2389 52.1257 46.4966 52.1236 47.4083C52.1215 48.189 52.1597 48.9719 52.1193 49.7515C52.0928 50.2592 52.2905 50.364 52.7326 50.3596C54.5 50.3421 56.2685 50.352 58.0359 50.352Z" fill="#1B2C4E"/>
<path d="M32.361 57.2034C32.0368 57.2034 31.8275 57.2034 31.617 57.2034C26.233 57.2034 20.8478 57.2034 15.4637 57.2045C13.5198 57.2045 12.0107 55.7097 12.0001 53.7728C11.9894 51.8871 13.4508 50.4 15.3595 50.3553C15.519 50.352 15.6794 50.34 15.8378 50.3542C16.1779 50.3847 16.3362 50.2417 16.3086 49.8858C16.299 49.7591 16.3075 49.6314 16.3075 49.5036C16.3075 38.6407 16.3075 27.7767 16.3075 16.9138C16.3075 15.8667 16.3075 15.8667 15.3085 15.8481C13.7377 15.8187 12.4199 14.7312 12.0893 13.1916C11.7535 11.6303 12.4624 10.0471 13.8759 9.37451C14.3424 9.15286 14.8951 9.01965 15.4095 9.01856C34.7512 9.00109 54.0929 9.00546 73.4347 9C74.8833 9 75.9843 9.61035 76.6262 10.9359C77.2512 12.2275 77.0811 13.493 76.2011 14.6154C75.4997 15.5108 74.5495 15.8798 73.4347 15.8514C72.6865 15.8329 72.6812 15.8503 72.6812 16.6135C72.6801 27.6042 72.6801 38.5948 72.6812 49.5855C72.6812 50.3367 72.6875 50.3804 73.4368 50.3422C75.9875 50.21 77.7985 52.9473 76.6018 55.3221C75.9556 56.6051 74.879 57.2034 73.4836 57.2034C68.2057 57.2045 62.9269 57.2034 57.649 57.2034C57.4609 57.2034 57.2728 57.2034 56.971 57.2034C57.3812 58.007 57.7362 58.7102 58.0986 59.41C62.1138 67.1841 66.1301 74.9581 70.1464 82.7311C70.1793 82.7955 70.2134 82.8599 70.2474 82.9232C70.4567 83.3108 70.4589 83.6897 70.0497 83.9092C69.6554 84.121 69.3408 83.9474 69.1336 83.5434C68.6978 82.6896 68.2493 81.8434 67.8083 80.9928C66.2555 77.9902 64.6922 74.992 63.1649 71.9762C62.9385 71.5297 62.6814 71.4118 62.2201 71.4118C52.0715 71.4249 41.9219 71.4216 31.7733 71.4216C30.1972 71.4216 28.62 71.4358 27.0439 71.4096C26.6326 71.403 26.4179 71.5373 26.2255 71.914C24.3401 75.6001 22.4345 79.2753 20.5343 82.9527C20.4514 83.1132 20.3653 83.2726 20.2792 83.4309C19.9976 83.9507 19.6862 84.1101 19.3184 83.9245C18.9528 83.741 18.8891 83.3622 19.1569 82.8402C19.8403 81.5049 20.5311 80.1717 21.2198 78.8397C24.846 71.8212 28.4733 64.8027 32.0985 57.7832C32.1782 57.6292 32.243 57.4643 32.361 57.2034ZM44.5385 15.8481C35.7545 15.8481 26.9716 15.8514 18.1876 15.8394C17.7168 15.8383 17.5553 15.9508 17.5563 16.4694C17.5712 27.5485 17.5723 38.6287 17.5574 49.7078C17.5563 50.2504 17.7253 50.3662 18.2206 50.3629C22.1869 50.3411 26.1543 50.3465 30.1206 50.3465C36.8672 50.3465 43.6128 50.3454 50.3594 50.3585C50.7823 50.3596 50.9056 50.2188 50.8918 49.7929C50.8621 48.8845 50.8663 47.9739 50.8876 47.0644C50.9131 45.954 51.8388 44.9516 52.8537 44.9484C56.2706 44.9353 59.6864 44.9309 63.1033 44.9418C64.3319 44.9451 65.2055 45.8568 65.2246 47.1157C65.2374 47.9521 65.2246 48.7895 65.2278 49.6259C65.231 50.3498 65.2331 50.352 65.9176 50.352C67.5117 50.3531 69.1049 50.3531 70.699 50.352C71.4037 50.352 71.4047 50.3498 71.4047 49.5997C71.4047 38.5752 71.3994 27.5496 71.4175 16.5251C71.4186 15.9508 71.2464 15.8372 70.7288 15.8372C61.999 15.8514 53.2682 15.847 44.5385 15.8481ZM44.4811 51.6491C34.9712 51.6491 25.4603 51.6491 15.9504 51.6491C15.7028 51.6491 15.4541 51.6415 15.2065 51.6557C14.234 51.7135 13.437 52.4756 13.3009 53.4681C13.1075 54.8799 14.1076 55.9074 15.6741 55.9074C34.8182 55.9074 53.9633 55.9074 73.1073 55.9052C73.407 55.9052 73.7121 55.903 74.0065 55.8495C74.7175 55.7185 75.2382 55.3101 75.5252 54.6222C76.1469 53.1329 75.1341 51.6513 73.4899 51.6502C63.8207 51.648 54.1503 51.6491 44.4811 51.6491ZM44.4832 14.5565C53.8517 14.5565 63.2191 14.5565 72.5876 14.5565C72.9777 14.5565 73.3677 14.5739 73.7556 14.551C75.1298 14.4669 76.0311 13.0694 75.5826 11.7318C75.2605 10.771 74.507 10.3004 73.2646 10.3004C54.0685 10.2993 34.8713 10.3004 15.6741 10.3015C15.4446 10.3015 15.2129 10.3124 14.9865 10.3495C13.9407 10.5231 13.2095 11.4873 13.2903 12.5747C13.3796 13.7823 14.2457 14.5554 15.5285 14.5554C25.1808 14.5576 34.832 14.5565 44.4832 14.5565ZM59.4632 64.8934C59.3888 64.7154 59.3601 64.6324 59.3208 64.5549C58.1188 62.2259 56.9104 59.9014 55.7211 57.5659C55.5585 57.2471 55.3438 57.199 55.0378 57.199C48.1318 57.2045 41.2268 57.2056 34.3208 57.1968C33.9786 57.1968 33.7777 57.2918 33.613 57.6172C32.4577 59.8883 31.2812 62.1495 30.1143 64.414C30.0441 64.5505 29.9942 64.6968 29.9123 64.8923C39.7857 64.8934 49.5846 64.8934 59.4632 64.8934ZM27.1969 70.0775C38.8908 70.0775 50.4826 70.0775 62.1638 70.0775C61.5867 68.9573 61.0266 67.9287 60.526 66.8707C60.3028 66.3979 60.0339 66.2331 59.5153 66.2342C51.2107 66.2527 42.9049 66.2473 34.6003 66.2473C32.953 66.2473 31.3067 66.2582 29.6594 66.2396C29.2885 66.2352 29.077 66.3554 28.9207 66.7026C28.6752 67.2463 28.3808 67.766 28.1088 68.2967C27.8165 68.8688 27.5242 69.4399 27.1969 70.0775ZM58.0359 50.352C59.7863 50.352 61.5367 50.3345 63.2871 50.3629C63.8015 50.3716 64.0237 50.2614 63.9769 49.6772C63.9227 48.9915 63.9641 48.2971 63.9641 47.607C63.9631 46.4322 63.7824 46.2422 62.6463 46.2422C59.5344 46.2422 56.4215 46.252 53.3097 46.2422C52.419 46.2389 52.1257 46.4966 52.1236 47.4083C52.1215 48.189 52.1597 48.9719 52.1193 49.7515C52.0928 50.2592 52.2905 50.364 52.7326 50.3596C54.5 50.3421 56.2685 50.352 58.0359 50.352Z" stroke="#1B2C4E" stroke-width="0.6" mask="url(#path-11-outside-1_593_64)"/>
</svg>
