<svg width="90" height="90" viewBox="0 0 90 90" fill="none" xmlns="http://www.w3.org/2000/svg">
<circle cx="45" cy="45" r="45" fill="#D6E4ED" fill-opacity="0.6"/>
<mask id="path-2-inside-1_320_1387" fill="white">
<path d="M4 53.1502C4.05636 52.9774 4.12211 52.8064 4.1672 52.6298C4.99379 49.3987 8.22126 47.5013 11.4487 48.3504C11.6479 48.403 11.8489 48.4481 12.0273 48.4932C12.1607 47.5408 12.2096 46.6034 12.4294 45.7073C13.4476 41.5369 17.1973 38.5593 21.4806 38.5368C26.6825 38.5086 31.8844 38.5142 37.0863 38.5368C39.427 38.5462 41.4672 39.4103 43.3759 41.0409C43.3759 40.6596 43.3759 40.4022 43.3759 40.143C43.3759 30.4195 43.3759 20.696 43.3759 10.9725C43.3759 9.4208 43.7892 9 45.3184 9C54.9012 9 64.4841 9 74.0688 9C75.5642 9 76 9.43019 76 10.9161C76 24.3648 76 37.8135 76 51.2641C76 52.7106 75.5566 53.1539 74.1139 53.1558C70.6929 53.1558 67.2719 53.1615 63.851 53.1521C62.752 53.1483 62.07 52.3405 62.3293 51.39C62.5153 50.708 63.0338 50.3474 63.8791 50.3455C66.7854 50.3398 69.6897 50.3436 72.5959 50.3436C72.7575 50.3436 72.9209 50.3436 73.1351 50.3436C73.1351 49.0417 73.1351 47.7681 73.1351 46.4512C64.2267 46.4512 55.3126 46.4512 46.3347 46.4512C46.3836 47.1275 46.4305 47.7906 46.4831 48.527C47.7362 48.1288 48.9723 47.986 50.2197 48.3636C52.5097 49.0549 53.9694 50.5822 54.4259 52.9078C54.8881 55.2561 54.1761 57.2699 52.2242 58.7446C51.8597 59.0188 51.732 59.2931 51.7376 59.7327C51.7583 61.4892 51.7489 63.2475 51.7451 65.004C51.7376 70.2865 48.8013 73.9948 43.6727 75.2027C43.5825 75.2234 43.4924 75.2459 43.3026 75.291C43.7873 76.4764 44.3114 77.6148 44.7078 78.7964C44.8619 79.2586 44.8187 79.8409 44.6928 80.3218C44.6214 80.5942 44.2025 80.7746 43.9395 80.9981C41.595 80.9981 39.2523 80.9981 36.9078 80.9981C36.5415 80.6168 36.1319 80.2692 35.8163 79.8503C34.8188 78.5203 33.8738 77.1527 32.8669 75.8302C32.6903 75.5972 32.3146 75.3962 32.0271 75.3887C30.2011 75.3493 28.3732 75.3493 26.5472 75.3887C26.2579 75.3943 25.8803 75.586 25.7056 75.8151C24.6573 77.194 23.6729 78.6199 22.6303 80.0044C22.3447 80.3838 21.9352 80.6712 21.582 81C19.2375 81 16.8948 81 14.5503 81C13.4983 80.1847 13.4063 79.8221 13.9266 78.5541C14.37 77.4758 14.8077 76.3956 15.2586 75.2948C15.0313 75.2365 14.8509 75.1877 14.6706 75.1464C10.4493 74.1827 7.46418 71.0811 6.95883 66.8112C6.70521 64.6621 6.81793 62.4641 6.83484 60.2888C6.84047 59.5148 6.71461 58.9625 6.0214 58.4741C4.88295 57.67 4.39075 56.4076 4 55.1189C4 54.4633 4 53.8058 4 53.1502ZM73.1351 43.5544C73.1351 32.9499 73.1351 22.3961 73.1351 11.8442C64.1403 11.8442 55.198 11.8442 46.2295 11.8442C46.2295 18.56 46.2295 25.2421 46.2295 32.0238C46.4662 31.8021 46.6372 31.6537 46.7968 31.494C51.206 27.0869 52.2876 26.0034 56.6949 21.5962C57.3242 20.9669 57.9423 20.3226 58.5885 19.712C59.2216 19.1146 60.0388 19.1203 60.5987 19.6876C61.1547 20.2512 61.1397 21.0533 60.5573 21.7014C60.4164 21.8574 60.2624 22.002 60.114 22.1523C54.8933 27.3728 53.0357 29.3036 47.7512 34.4565C46.5808 35.5968 46.0153 36.707 46.1544 38.3452C46.3009 40.0603 46.1863 41.798 46.1863 43.5582C55.198 43.5544 64.1422 43.5544 73.1351 43.5544ZM15.8128 56.4433C17.2894 55.4702 18.8392 55.5341 20.3853 55.5378C25.8427 55.5472 31.3001 55.5247 36.7575 55.551C38.7488 55.5604 40.7947 55.2298 42.6338 56.3381C42.6864 56.2198 42.7202 56.1784 42.7221 56.1352C42.7334 55.9718 42.7428 55.8084 42.739 55.6449C42.7146 54.0481 42.6789 52.4514 43.5656 51.0142C43.6333 50.9053 43.6295 50.7437 43.6295 50.6066C43.6314 49.6692 43.6633 48.7318 43.6126 47.7962C43.4153 44.1838 40.6218 41.3866 37.0881 41.3584C31.8656 41.3152 26.6411 41.3189 21.4186 41.3603C18.3451 41.3847 15.6662 43.6352 15.112 46.6672C14.9091 47.7831 14.9561 48.9516 14.9636 50.0937C14.9674 50.5859 15.1571 51.0781 15.2642 51.5684C15.4464 52.4081 15.6907 53.2385 15.7959 54.0876C15.8823 54.8127 15.8128 55.5604 15.8128 56.4433ZM9.62459 59.9337C9.62459 61.6676 9.62271 63.3978 9.62459 65.1298C9.62835 69.5388 12.6285 72.5446 17.032 72.5502C20.7817 72.5539 24.5296 72.5502 28.2793 72.5502C32.8011 72.5502 37.3248 72.569 41.8467 72.5446C45.433 72.5239 48.5383 69.8845 48.8276 66.4824C49.0005 64.4348 48.9084 62.3627 48.9122 60.3019C48.9122 60.1479 48.7581 59.9187 48.6154 59.851C47.7136 59.4171 47.3529 58.9362 47.4713 58.2374C47.5784 57.6043 48.172 56.958 49.0587 57.0463C49.1263 57.0538 49.1977 57.0276 49.2672 57.0144C50.9805 56.712 51.9612 55.2861 51.6831 53.5015C51.4333 51.9028 49.8515 50.7362 48.2565 50.9767C46.5864 51.2284 45.5663 52.4589 45.5607 54.2867C45.5494 57.7076 45.5645 61.1285 45.5551 64.5494C45.5476 67.4611 43.8211 69.1744 40.913 69.1744C33.1562 69.1763 25.4012 69.1763 17.6444 69.1744C14.7382 69.1744 13.0042 67.4461 13.0023 64.5494C13.0005 61.0345 13.0174 57.5197 12.9911 54.0049C12.9817 52.6899 12.3185 51.7187 11.1087 51.2021C9.89699 50.6836 8.74915 50.8997 7.79106 51.8032C6.83296 52.7068 6.56244 53.8528 6.98137 55.087C7.42097 56.387 8.42791 56.9731 9.76924 57.0726C10.5226 57.129 11.0073 57.6174 11.0749 58.3031C11.1444 59.0132 10.7875 59.5411 10.0661 59.7928C9.93268 59.8417 9.7993 59.8792 9.62459 59.9337ZM27.8829 58.4027C27.7044 58.3782 27.6143 58.3557 27.5241 58.3557C24.6197 58.3538 21.7154 58.3313 18.811 58.3632C17.1541 58.382 15.856 59.7233 15.8203 61.3915C15.7959 62.5149 15.8053 63.6401 15.8165 64.7635C15.8259 65.8155 16.367 66.3584 17.434 66.3584C25.328 66.3641 33.2219 66.3641 41.1159 66.3584C42.1905 66.3584 42.7146 65.8456 42.7353 64.7673C42.7559 63.6908 42.7616 62.6125 42.7353 61.5342C42.6864 59.5974 41.4071 58.3595 39.4665 58.352C37.5465 58.3444 35.6247 58.3501 33.7047 58.3501C32.726 58.3501 31.7491 58.3501 30.6971 58.3501C30.6971 59.4641 30.7102 60.5123 30.6933 61.5587C30.6783 62.5243 30.1072 63.1404 29.2731 63.1367C28.4258 63.1329 27.8979 62.5336 27.8885 61.5436C27.8754 60.5179 27.8829 59.4904 27.8829 58.4027ZM36.0324 75.3643C36.7199 76.3148 37.2985 77.132 37.9035 77.9342C37.9974 78.06 38.204 78.1671 38.36 78.1709C39.3556 78.1915 40.3532 78.1821 41.4334 78.1821C41.0633 77.2748 40.7421 76.452 40.3851 75.6442C40.3288 75.5146 40.1127 75.3812 39.9681 75.3793C38.7075 75.3549 37.4488 75.3643 36.0324 75.3643ZM22.527 75.3643C21.1255 75.3643 19.91 75.3549 18.6946 75.3756C18.5217 75.3774 18.255 75.4751 18.1949 75.6047C17.8191 76.4257 17.4904 77.2692 17.1128 78.1821C18.2024 78.1821 19.1811 78.1878 20.1599 78.1746C20.3064 78.1728 20.5093 78.1202 20.5863 78.015C21.2176 77.1827 21.8225 76.3336 22.527 75.3643Z"/>
</mask>
<path d="M4 53.1502C4.05636 52.9774 4.12211 52.8064 4.1672 52.6298C4.99379 49.3987 8.22126 47.5013 11.4487 48.3504C11.6479 48.403 11.8489 48.4481 12.0273 48.4932C12.1607 47.5408 12.2096 46.6034 12.4294 45.7073C13.4476 41.5369 17.1973 38.5593 21.4806 38.5368C26.6825 38.5086 31.8844 38.5142 37.0863 38.5368C39.427 38.5462 41.4672 39.4103 43.3759 41.0409C43.3759 40.6596 43.3759 40.4022 43.3759 40.143C43.3759 30.4195 43.3759 20.696 43.3759 10.9725C43.3759 9.4208 43.7892 9 45.3184 9C54.9012 9 64.4841 9 74.0688 9C75.5642 9 76 9.43019 76 10.9161C76 24.3648 76 37.8135 76 51.2641C76 52.7106 75.5566 53.1539 74.1139 53.1558C70.6929 53.1558 67.2719 53.1615 63.851 53.1521C62.752 53.1483 62.07 52.3405 62.3293 51.39C62.5153 50.708 63.0338 50.3474 63.8791 50.3455C66.7854 50.3398 69.6897 50.3436 72.5959 50.3436C72.7575 50.3436 72.9209 50.3436 73.1351 50.3436C73.1351 49.0417 73.1351 47.7681 73.1351 46.4512C64.2267 46.4512 55.3126 46.4512 46.3347 46.4512C46.3836 47.1275 46.4305 47.7906 46.4831 48.527C47.7362 48.1288 48.9723 47.986 50.2197 48.3636C52.5097 49.0549 53.9694 50.5822 54.4259 52.9078C54.8881 55.2561 54.1761 57.2699 52.2242 58.7446C51.8597 59.0188 51.732 59.2931 51.7376 59.7327C51.7583 61.4892 51.7489 63.2475 51.7451 65.004C51.7376 70.2865 48.8013 73.9948 43.6727 75.2027C43.5825 75.2234 43.4924 75.2459 43.3026 75.291C43.7873 76.4764 44.3114 77.6148 44.7078 78.7964C44.8619 79.2586 44.8187 79.8409 44.6928 80.3218C44.6214 80.5942 44.2025 80.7746 43.9395 80.9981C41.595 80.9981 39.2523 80.9981 36.9078 80.9981C36.5415 80.6168 36.1319 80.2692 35.8163 79.8503C34.8188 78.5203 33.8738 77.1527 32.8669 75.8302C32.6903 75.5972 32.3146 75.3962 32.0271 75.3887C30.2011 75.3493 28.3732 75.3493 26.5472 75.3887C26.2579 75.3943 25.8803 75.586 25.7056 75.8151C24.6573 77.194 23.6729 78.6199 22.6303 80.0044C22.3447 80.3838 21.9352 80.6712 21.582 81C19.2375 81 16.8948 81 14.5503 81C13.4983 80.1847 13.4063 79.8221 13.9266 78.5541C14.37 77.4758 14.8077 76.3956 15.2586 75.2948C15.0313 75.2365 14.8509 75.1877 14.6706 75.1464C10.4493 74.1827 7.46418 71.0811 6.95883 66.8112C6.70521 64.6621 6.81793 62.4641 6.83484 60.2888C6.84047 59.5148 6.71461 58.9625 6.0214 58.4741C4.88295 57.67 4.39075 56.4076 4 55.1189C4 54.4633 4 53.8058 4 53.1502ZM73.1351 43.5544C73.1351 32.9499 73.1351 22.3961 73.1351 11.8442C64.1403 11.8442 55.198 11.8442 46.2295 11.8442C46.2295 18.56 46.2295 25.2421 46.2295 32.0238C46.4662 31.8021 46.6372 31.6537 46.7968 31.494C51.206 27.0869 52.2876 26.0034 56.6949 21.5962C57.3242 20.9669 57.9423 20.3226 58.5885 19.712C59.2216 19.1146 60.0388 19.1203 60.5987 19.6876C61.1547 20.2512 61.1397 21.0533 60.5573 21.7014C60.4164 21.8574 60.2624 22.002 60.114 22.1523C54.8933 27.3728 53.0357 29.3036 47.7512 34.4565C46.5808 35.5968 46.0153 36.707 46.1544 38.3452C46.3009 40.0603 46.1863 41.798 46.1863 43.5582C55.198 43.5544 64.1422 43.5544 73.1351 43.5544ZM15.8128 56.4433C17.2894 55.4702 18.8392 55.5341 20.3853 55.5378C25.8427 55.5472 31.3001 55.5247 36.7575 55.551C38.7488 55.5604 40.7947 55.2298 42.6338 56.3381C42.6864 56.2198 42.7202 56.1784 42.7221 56.1352C42.7334 55.9718 42.7428 55.8084 42.739 55.6449C42.7146 54.0481 42.6789 52.4514 43.5656 51.0142C43.6333 50.9053 43.6295 50.7437 43.6295 50.6066C43.6314 49.6692 43.6633 48.7318 43.6126 47.7962C43.4153 44.1838 40.6218 41.3866 37.0881 41.3584C31.8656 41.3152 26.6411 41.3189 21.4186 41.3603C18.3451 41.3847 15.6662 43.6352 15.112 46.6672C14.9091 47.7831 14.9561 48.9516 14.9636 50.0937C14.9674 50.5859 15.1571 51.0781 15.2642 51.5684C15.4464 52.4081 15.6907 53.2385 15.7959 54.0876C15.8823 54.8127 15.8128 55.5604 15.8128 56.4433ZM9.62459 59.9337C9.62459 61.6676 9.62271 63.3978 9.62459 65.1298C9.62835 69.5388 12.6285 72.5446 17.032 72.5502C20.7817 72.5539 24.5296 72.5502 28.2793 72.5502C32.8011 72.5502 37.3248 72.569 41.8467 72.5446C45.433 72.5239 48.5383 69.8845 48.8276 66.4824C49.0005 64.4348 48.9084 62.3627 48.9122 60.3019C48.9122 60.1479 48.7581 59.9187 48.6154 59.851C47.7136 59.4171 47.3529 58.9362 47.4713 58.2374C47.5784 57.6043 48.172 56.958 49.0587 57.0463C49.1263 57.0538 49.1977 57.0276 49.2672 57.0144C50.9805 56.712 51.9612 55.2861 51.6831 53.5015C51.4333 51.9028 49.8515 50.7362 48.2565 50.9767C46.5864 51.2284 45.5663 52.4589 45.5607 54.2867C45.5494 57.7076 45.5645 61.1285 45.5551 64.5494C45.5476 67.4611 43.8211 69.1744 40.913 69.1744C33.1562 69.1763 25.4012 69.1763 17.6444 69.1744C14.7382 69.1744 13.0042 67.4461 13.0023 64.5494C13.0005 61.0345 13.0174 57.5197 12.9911 54.0049C12.9817 52.6899 12.3185 51.7187 11.1087 51.2021C9.89699 50.6836 8.74915 50.8997 7.79106 51.8032C6.83296 52.7068 6.56244 53.8528 6.98137 55.087C7.42097 56.387 8.42791 56.9731 9.76924 57.0726C10.5226 57.129 11.0073 57.6174 11.0749 58.3031C11.1444 59.0132 10.7875 59.5411 10.0661 59.7928C9.93268 59.8417 9.7993 59.8792 9.62459 59.9337ZM27.8829 58.4027C27.7044 58.3782 27.6143 58.3557 27.5241 58.3557C24.6197 58.3538 21.7154 58.3313 18.811 58.3632C17.1541 58.382 15.856 59.7233 15.8203 61.3915C15.7959 62.5149 15.8053 63.6401 15.8165 64.7635C15.8259 65.8155 16.367 66.3584 17.434 66.3584C25.328 66.3641 33.2219 66.3641 41.1159 66.3584C42.1905 66.3584 42.7146 65.8456 42.7353 64.7673C42.7559 63.6908 42.7616 62.6125 42.7353 61.5342C42.6864 59.5974 41.4071 58.3595 39.4665 58.352C37.5465 58.3444 35.6247 58.3501 33.7047 58.3501C32.726 58.3501 31.7491 58.3501 30.6971 58.3501C30.6971 59.4641 30.7102 60.5123 30.6933 61.5587C30.6783 62.5243 30.1072 63.1404 29.2731 63.1367C28.4258 63.1329 27.8979 62.5336 27.8885 61.5436C27.8754 60.5179 27.8829 59.4904 27.8829 58.4027ZM36.0324 75.3643C36.7199 76.3148 37.2985 77.132 37.9035 77.9342C37.9974 78.06 38.204 78.1671 38.36 78.1709C39.3556 78.1915 40.3532 78.1821 41.4334 78.1821C41.0633 77.2748 40.7421 76.452 40.3851 75.6442C40.3288 75.5146 40.1127 75.3812 39.9681 75.3793C38.7075 75.3549 37.4488 75.3643 36.0324 75.3643ZM22.527 75.3643C21.1255 75.3643 19.91 75.3549 18.6946 75.3756C18.5217 75.3774 18.255 75.4751 18.1949 75.6047C17.8191 76.4257 17.4904 77.2692 17.1128 78.1821C18.2024 78.1821 19.1811 78.1878 20.1599 78.1746C20.3064 78.1728 20.5093 78.1202 20.5863 78.015C21.2176 77.1827 21.8225 76.3336 22.527 75.3643Z" fill="#1B2C4E" stroke="white" stroke-width="0.6" mask="url(#path-2-inside-1_320_1387)"/>
<path d="M58.5334 52.8498L58.533 52.8498C57.7827 52.8625 57.1323 52.2111 57.1504 51.4714C57.1686 50.7495 57.7977 50.1428 58.5219 50.1501L58.5223 50.1501C59.2654 50.1555 59.8482 50.7414 59.85 51.4943C59.8518 52.2461 59.2738 52.839 58.5334 52.8498Z" fill="#1B2C4E" stroke="white" stroke-width="0.3"/>
<path d="M53.8707 40.6437C53.4757 41.0216 52.8918 41.0671 52.5825 40.7439L49.5657 37.5911C49.2564 37.268 49.3275 36.6866 49.7225 36.3086C50.1175 35.9307 50.7014 35.8853 51.0107 36.2084L54.0275 39.3612C54.3368 39.6843 54.2657 40.2657 53.8707 40.6437Z" fill="#E8444D"/>
<path d="M54.1266 37.8625L50.9739 40.8794C50.6507 41.1886 50.0693 41.1175 49.6914 40.7225C49.3134 40.3275 49.268 39.7436 49.5911 39.4343L52.7439 36.4175C53.0671 36.1082 53.6485 36.1794 54.0264 36.5743C54.4043 36.9693 54.4498 37.5533 54.1266 37.8625Z" fill="#E8444D"/>
<path d="M57.1052 34.7536C57.5043 34.3718 57.5182 33.7388 57.1364 33.3398C56.7545 32.9407 56.1215 32.9268 55.7225 33.3086C55.3235 33.6905 55.3095 34.3235 55.6914 34.7225C56.0732 35.1215 56.7062 35.1355 57.1052 34.7536Z" fill="#1B2C4E"/>
<path d="M59.1052 32.7536C59.5043 32.3718 59.5182 31.7388 59.1364 31.3398C58.7545 30.9407 58.1215 30.9268 57.7225 31.3086C57.3235 31.6905 57.3095 32.3235 57.6914 32.7225C58.0732 33.1215 58.7062 33.1355 59.1052 32.7536Z" fill="#1B2C4E"/>
<path d="M62.1052 29.7536C62.5043 29.3718 62.5182 28.7388 62.1364 28.3398C61.7545 27.9407 61.1215 27.9268 60.7225 28.3086C60.3235 28.6905 60.3095 29.3235 60.6914 29.7225C61.0732 30.1215 61.7062 30.1355 62.1052 29.7536Z" fill="#1B2C4E"/>
<path d="M62.1052 19.7536C62.5043 19.3718 62.5182 18.7388 62.1364 18.3398C61.7545 17.9407 61.1215 17.9268 60.7225 18.3086C60.3235 18.6905 60.3095 19.3235 60.6914 19.7225C61.0732 20.1215 61.7062 20.1355 62.1052 19.7536Z" fill="#1B2C4E"/>
</svg>
