<svg width="1384" height="263" viewBox="0 0 1384 263" fill="none" xmlns="http://www.w3.org/2000/svg">
<mask id="mask0_542_42" style="mask-type:alpha" maskUnits="userSpaceOnUse" x="-3" y="0" width="1390" height="263">
<rect x="-3" width="1390" height="263" fill="#013C76"/>
</mask>
<g mask="url(#mask0_542_42)">
<g opacity="0.25">
<path d="M-136.227 354.259C66.7817 138.204 257.869 71.5116 610.962 314.766C708.139 381.709 836.447 381.333 944.126 330.585C1039.01 285.867 1366.34 54.4047 1525.77 239.521" stroke="#F6F9FB" stroke-width="3" stroke-miterlimit="10"/>
<path d="M-50.2617 104.706C155.852 326.923 355.988 398.841 742.166 163.806C848.446 99.1223 984.814 102.839 1097 156.607C1195.85 203.983 1533.43 444.889 1711.18 263.191" stroke="#F6F9FB" stroke-width="3" stroke-miterlimit="10"/>
<path d="M-203.299 13.5062C-10.5597 247.411 185.016 330.944 584.3 118.942C694.188 60.5959 830.107 72.301 938.954 132.55C1034.86 185.636 1357.73 445.913 1545.82 274.932" stroke="#F6F9FB" stroke-miterlimit="10"/>
<path d="M1543.49 247.339C1355.25 424.621 1044.4 189.352 939.686 138.259C829.762 84.6344 696.231 71.0084 584.871 126.931C504.515 167.27 431.986 198.49 364.79 219.871C121.712 297.211 -46.7018 231.038 -203.32 46.1799" stroke="#F6F9FB" stroke-width="0.9318" stroke-miterlimit="10"/>
<path d="M1541.16 219.746C1352.78 403.329 1054.3 192.835 940.444 143.986C829.82 96.5191 698.335 81.4928 585.449 134.92C506.134 172.459 433.965 203.84 365.727 226.765C137.908 303.279 -43.5386 262.311 -203.299 78.8538" stroke="#F6F9FB" stroke-width="0.8636" stroke-miterlimit="10"/>
<path d="M1538.82 192.171C1350.28 382.055 1064.42 196.084 941.198 149.713C830.197 107.955 700.489 92.0309 586.023 142.927C507.786 177.701 435.94 209.154 366.66 233.677C154.012 308.934 -40.3969 293.603 -203.299 111.527" stroke="#F6F9FB" stroke-width="0.7955" stroke-miterlimit="10"/>
<path d="M1536.49 164.577C1347.81 360.763 1074.75 198.974 941.952 155.439C830.771 118.996 702.679 102.641 586.616 150.915C509.491 182.997 437.932 214.378 367.594 240.571C170.008 314.176 -37.2372 324.894 -203.299 144.201" stroke="#F6F9FB" stroke-width="0.7273" stroke-miterlimit="10"/>
<path d="M1534.15 137.002C1345.33 339.49 1085.23 201.506 942.688 161.166C831.471 129.695 704.905 113.305 587.172 158.922C511.197 188.347 439.853 219.53 368.51 247.5C185.86 319.077 -34.0955 356.203 -203.299 176.893" stroke="#F6F9FB" stroke-width="0.6591" stroke-miterlimit="10"/>
<path d="M1531.82 109.409C1342.85 318.198 1095.82 203.642 943.442 166.893C832.261 140.072 707.167 124.076 587.765 166.911C512.956 193.75 441.792 224.557 369.443 254.394C201.604 323.601 -30.9538 387.477 -203.299 209.567" stroke="#F6F9FB" stroke-width="0.5909" stroke-miterlimit="10"/>
<path d="M1529.49 81.8159C1340.37 296.906 1106.47 205.348 944.196 172.602C833.087 150.179 709.465 134.902 588.339 174.9C514.716 199.208 443.641 229.476 370.377 261.288C217.241 327.803 -27.7942 418.768 -203.299 242.222" stroke="#F6F9FB" stroke-width="0.5227" stroke-miterlimit="10"/>
<path d="M1527.15 54.2407C1337.87 275.632 1117.15 206.64 944.946 178.347C833.927 160.107 711.796 145.871 588.91 182.907C516.489 204.737 445.433 234.234 371.289 268.218C232.713 331.752 -24.674 450.078 -203.32 274.932" stroke="#F6F9FB" stroke-width="0.4545" stroke-miterlimit="10"/>
<path d="M1524.81 26.6475C1335.4 254.34 1127.83 207.466 945.699 184.056C834.716 169.784 714.147 156.929 589.502 190.896C518.284 210.303 447.12 238.757 372.239 275.111C248.061 335.378 -21.4971 481.351 -203.285 307.606" stroke="#F6F9FB" stroke-width="0.3864" stroke-miterlimit="10"/>
<path d="M1522.49 -0.927734C1332.92 233.066 1138.46 207.879 946.44 189.783C835.457 179.334 716.485 168.114 590.063 198.885C520.066 215.922 448.632 243.03 373.159 282.005C263.218 338.771 -18.3511 512.624 -203.299 340.261" stroke="#F6F9FB" stroke-width="0.3182" stroke-miterlimit="10"/>
<path d="M1520.15 -28.5209C1170.02 414.962 848.131 26.5218 374.093 288.917C278.19 342.003 -15.2094 543.934 -203.299 372.953" stroke="#F6F9FB" stroke-width="0.25" stroke-miterlimit="10"/>
<path d="M-425 386.22C-220.448 162.567 -20.8151 89.2304 366.997 321.555C473.725 385.484 610.057 380.817 721.884 326.259C820.39 278.2 1405.64 3.68624 1584.65 184.146" stroke="#F6F9FB" stroke-miterlimit="10"/>
<path d="M1581.55 210.446C1399.31 21.7104 839.152 273.585 722.891 322.381C609.233 370.081 475.414 377.746 367.806 317.48C288.994 273.316 217.722 239.116 151.926 214.719C-87.1667 126.105 -259.476 184.289 -424.586 361.643" stroke="#F6F9FB" stroke-width="0.9318" stroke-miterlimit="10"/>
<path d="M1578.44 236.729C1392.99 39.6991 858.415 269.349 723.896 318.467C609.054 360.386 477.12 369.955 368.614 313.369C290.161 272.455 218.908 238.776 152.447 213.247C-71.8887 127.074 -256.729 160.359 -424.137 337.084" stroke="#F6F9FB" stroke-width="0.8636" stroke-miterlimit="10"/>
<path d="M1575.33 263.012C1386.67 57.7055 878.017 265.651 724.899 314.553C609.285 351.482 478.859 362.128 369.42 309.239C291.362 271.521 220.09 238.452 152.947 211.739C-56.7391 128.313 -254.038 136.41 -423.744 312.507" stroke="#F6F9FB" stroke-width="0.7955" stroke-miterlimit="10"/>
<path d="M1572.23 289.312C1380.35 75.73 897.892 262.545 725.906 310.658C609.753 343.152 480.619 354.265 370.211 305.146C292.566 270.605 221.258 238.237 153.451 210.267C-41.6577 129.839 -251.326 112.479 -423.33 287.93" stroke="#F6F9FB" stroke-width="0.7273" stroke-miterlimit="10"/>
<path d="M1569.12 315.595C1374.02 93.7186 917.948 260.031 726.896 306.762C610.33 335.271 482.399 346.366 371.004 301.053C293.789 269.654 222.392 238.057 153.957 208.795C-26.6466 131.599 -248.595 88.5302 -422.896 263.353" stroke="#F6F9FB" stroke-width="0.6591" stroke-miterlimit="10"/>
<path d="M1566.02 341.877C1367.69 111.725 938.123 258.164 727.916 302.848C610.991 327.695 484.245 338.394 371.826 296.942C295.061 268.649 223.538 237.932 154.474 207.322C-11.7491 133.627 -245.869 64.5993 -422.469 238.775" stroke="#F6F9FB" stroke-width="0.5909" stroke-miterlimit="10"/>
<path d="M1562.91 368.178C1361.37 129.749 958.393 256.961 728.923 298.953C611.674 320.406 486.096 330.388 372.617 292.849C296.319 267.625 224.616 237.932 154.978 205.85C3.04498 135.871 -243.157 40.6685 -422.055 214.216" stroke="#F6F9FB" stroke-width="0.5227" stroke-miterlimit="10"/>
<path d="M1559.8 394.46C1355.05 147.738 978.676 256.405 729.925 295.039C612.317 313.315 487.942 322.291 373.422 288.737C297.608 266.53 225.654 238.003 155.495 204.36C17.7451 138.331 -240.431 16.7197 -421.627 189.621" stroke="#F6F9FB" stroke-width="0.4545" stroke-miterlimit="10"/>
<path d="M1556.7 420.743C1348.74 165.744 998.986 256.495 730.936 291.143C612.933 306.385 489.814 314.141 374.235 284.644C298.906 265.417 226.629 238.237 156.003 202.888C32.328 141.006 -237.733 -7.19315 -421.227 165.062" stroke="#F6F9FB" stroke-width="0.3864" stroke-miterlimit="10"/>
<path d="M1553.59 447.026C1342.42 183.751 1019.27 257.267 731.92 287.229C613.486 299.581 491.678 305.918 375.004 280.533C300.16 264.25 227.452 238.65 156.485 201.416C46.7767 143.842 -235.007 -31.142 -420.799 140.485" stroke="#F6F9FB" stroke-width="0.3182" stroke-miterlimit="10"/>
<path d="M1550.49 473.326C1200.38 29.8431 631.063 462.339 157.007 199.944C61.1041 146.858 -232.295 -55.0727 -420.385 115.908" stroke="#F6F9FB" stroke-width="0.25" stroke-miterlimit="10"/>
<path d="M1623.84 -107.548C1431.08 126.356 1048.78 377.944 649.498 165.942C539.61 107.596 404.552 198.651 295.706 258.9C199.803 311.986 -123.075 572.263 -311.164 401.282" stroke="#F6F9FB" stroke-miterlimit="10"/>
<path d="M-308.365 366.67C-117.852 546.842 189.838 301.969 296.548 249.511C405.664 195.887 537.939 111.689 651.022 170.789C725.92 210.159 800.495 236.388 874.424 248.937C1165.92 298.414 1468.3 128.995 1627.14 -58.5735" stroke="#F6F9FB" stroke-width="0.9318" stroke-miterlimit="10"/>
<path d="M-305.561 332.057C-112.624 521.421 179.519 291.7 297.396 240.14C406.278 192.512 536.381 115.549 652.534 175.654C726.122 213.732 799.44 242.653 873.548 257.859C1143.82 313.279 1468.66 176.336 1630.43 -9.56287" stroke="#F6F9FB" stroke-width="0.8636" stroke-miterlimit="10"/>
<path d="M-302.764 297.445C-107.385 496 168.905 281.126 298.236 230.751C406.544 188.562 534.743 119.552 654.056 180.501C726.28 217.394 798.323 248.775 872.683 266.746C1121.74 326.959 1469.05 223.659 1633.75 39.4119" stroke="#F6F9FB" stroke-width="0.7955" stroke-miterlimit="10"/>
<path d="M-299.965 262.832C-102.163 470.58 158.06 270.175 299.078 221.362C406.578 184.146 533.09 123.592 655.58 185.349C726.439 221.092 797.155 254.717 871.819 275.65C1099.73 339.544 1469.44 270.983 1637.05 88.4045" stroke="#F6F9FB" stroke-width="0.7273" stroke-miterlimit="10"/>
<path d="M-297.146 228.201C-96.9211 445.123 147.055 258.757 299.939 211.972C406.47 179.37 531.438 127.631 657.106 190.196C726.583 224.79 795.988 260.444 870.94 284.537C1077.84 351.033 1469.8 318.305 1640.35 137.379" stroke="#F6F9FB" stroke-width="0.6591" stroke-miterlimit="10"/>
<path d="M-294.34 193.589C-91.6909 419.702 135.894 246.89 300.789 202.583C406.243 174.236 529.774 131.724 658.638 195.061C726.714 228.524 794.863 265.938 870.084 293.459C1056.2 361.535 1470.2 365.664 1643.66 186.39" stroke="#F6F9FB" stroke-width="0.5909" stroke-miterlimit="10"/>
<path d="M-291.543 158.976C-86.4704 394.281 124.634 234.485 301.629 193.194C405.97 168.85 528.083 135.835 660.143 199.908C726.818 232.259 793.818 271.09 869.201 302.346C1034.83 371.05 1470.58 412.97 1646.96 235.364" stroke="#F6F9FB" stroke-width="0.5227" stroke-miterlimit="10"/>
<path d="M-288.744 124.345C-81.23 368.842 113.304 221.505 302.471 183.787C405.699 163.213 526.358 139.964 661.667 204.737C726.942 235.993 792.972 275.776 868.337 311.232C1013.86 379.703 1470.95 460.293 1650.28 284.339" stroke="#F6F9FB" stroke-width="0.4545" stroke-miterlimit="10"/>
<path d="M-285.939 89.7329C-76.0017 343.421 101.944 207.951 303.319 174.415C405.451 157.396 524.639 144.165 663.197 209.602C727.072 239.763 792.455 279.941 867.479 320.137C993.417 387.62 1471.35 507.616 1653.59 333.332" stroke="#F6F9FB" stroke-width="0.3864" stroke-miterlimit="10"/>
<path d="M-283.141 55.1204C-70.7793 318 90.5967 193.804 304.161 165.026C405.252 151.418 522.823 148.564 664.703 214.45C727.124 243.623 792.49 283.37 866.598 329.041C973.595 394.981 1471.73 554.957 1656.89 382.325" stroke="#F6F9FB" stroke-width="0.3182" stroke-miterlimit="10"/>
<path d="M-280.336 20.5078C69.7937 463.991 234.042 -117.207 865.722 337.946C954.66 402.019 1472.09 602.298 1660.18 431.317" stroke="#F6F9FB" stroke-width="0.25" stroke-miterlimit="10"/>
<g opacity="0.51">
<path opacity="0.51" d="M-184.414 171.363C7.62494 421.928 218.335 523.019 687.957 348.466C817.198 300.425 968.412 324.517 1084.28 394.478C1186.36 456.11 1521.6 744.859 1750.18 591.813" stroke="#F6F9FB" stroke-miterlimit="10"/>
<path opacity="0.51" d="M1751 558.386C1521.56 717.751 1197.36 455.05 1084.94 394.46C967.368 331.106 818.882 305.218 688.187 350.746C595.552 383.007 512.233 407.207 435.755 422.431C152.733 478.748 -29.9531 397.387 -187.164 198.149" stroke="#F6F9FB" stroke-width="0.9318" stroke-miterlimit="10"/>
<path opacity="0.51" d="M1751.81 524.958C1521.48 690.642 1208.67 453.758 1085.59 394.46C966.743 337.227 820.573 310.101 688.388 353.026C597.153 382.665 514.104 407.081 436.28 423.705C170.617 480.471 -29.1415 423.005 -189.961 224.934" stroke="#F6F9FB" stroke-width="0.8636" stroke-miterlimit="10"/>
<path opacity="0.51" d="M1752.63 491.53C1521.42 663.552 1220.25 452.178 1086.23 394.46C966.435 342.882 822.312 315.038 688.601 355.324C598.766 382.378 515.987 406.901 436.834 424.998C188.477 481.764 -28.3003 448.623 -192.746 251.737" stroke="#F6F9FB" stroke-width="0.7955" stroke-miterlimit="10"/>
<path opacity="0.51" d="M1758.38 257.536C1520.99 473.829 1305.13 430.222 1090.81 394.46C967.46 373.887 835.149 352.002 690.092 371.373C610.598 382.001 528.375 402.395 440.677 433.992C311.166 480.651 -22.4648 627.952 -212.17 439.306" stroke="#F6F9FB" stroke-width="0.3182" stroke-miterlimit="10"/>
<path opacity="0.51" d="M1759.21 224.108C1320.84 633.679 999.901 217.394 441.234 435.302C328.222 479.376 -21.6379 653.606 -214.934 466.127" stroke="#F6F9FB" stroke-width="0.25" stroke-miterlimit="10"/>
</g>
<g opacity="0.19">
<path opacity="0.19" d="M-324.158 -169C-131.419 64.9045 250.882 316.492 650.166 104.49C760.053 46.144 895.111 137.2 1003.96 197.449C1099.86 250.534 1422.74 510.811 1610.83 339.831" stroke="#F6F9FB" stroke-miterlimit="10"/>
<path opacity="0.19" d="M1607.29 301.197C1416.78 481.369 1109.09 236.496 1002.38 184.038C893.262 130.414 760.987 46.2159 647.904 105.316C573.006 144.686 498.43 170.915 424.502 183.464C133.023 232.941 -169.371 63.5222 -328.197 -124.047" stroke="#F6F9FB" stroke-width="0.9318" stroke-miterlimit="10"/>
<path opacity="0.19" d="M1603.75 262.545C1410.82 451.909 1118.68 222.187 1000.8 170.627C891.916 122.999 761.813 46.0363 645.66 106.142C572.072 144.219 498.754 173.141 424.645 188.347C154.369 243.748 -170.483 106.824 -332.236 -79.0934" stroke="#F6F9FB" stroke-width="0.8636" stroke-miterlimit="10"/>
<path opacity="0.19" d="M1600.21 223.893C1404.84 422.449 1128.55 207.574 999.215 157.199C890.907 115.01 762.708 46.0004 643.395 106.949C571.171 143.842 499.128 175.223 424.768 193.194C175.711 253.407 -171.6 150.108 -336.297 -34.14" stroke="#F6F9FB" stroke-width="0.7955" stroke-miterlimit="10"/>
<path opacity="0.19" d="M1596.68 185.259C1398.88 393.006 1138.65 192.601 997.636 143.788C890.136 106.572 763.623 46.0183 641.133 107.775C570.274 143.519 499.559 177.144 424.894 198.077C196.985 261.97 -172.73 193.409 -340.336 10.8312" stroke="#F6F9FB" stroke-width="0.7273" stroke-miterlimit="10"/>
<path opacity="0.19" d="M1593.15 146.607C1392.92 363.528 1148.94 177.162 996.06 130.378C889.529 97.7756 764.561 46.0362 638.893 108.601C569.416 143.196 500.011 178.85 425.059 202.942C218.155 269.438 -173.804 236.711 -344.354 55.7844" stroke="#F6F9FB" stroke-width="0.6591" stroke-miterlimit="10"/>
<path opacity="0.19" d="M1589.61 107.955C1386.96 334.068 1159.37 161.256 994.478 116.949C889.025 88.602 765.493 46.0903 636.629 109.427C568.553 142.891 500.405 180.304 425.183 207.825C239.069 275.902 -174.936 280.031 -348.395 100.756" stroke="#F6F9FB" stroke-width="0.5909" stroke-miterlimit="10"/>
<path opacity="0.19" d="M1586.07 69.3208C1381 304.626 1169.89 144.829 992.899 103.538C888.558 79.1947 766.444 46.1799 634.385 110.253C567.709 142.603 500.71 181.435 425.327 212.69C259.696 281.395 -176.049 323.314 -352.434 145.709" stroke="#F6F9FB" stroke-width="0.5227" stroke-miterlimit="10"/>
<path opacity="0.19" d="M1582.53 30.6689C1375.02 275.165 1180.48 127.828 991.316 90.11C888.088 69.5363 767.429 46.2877 632.12 111.061C566.844 142.316 500.815 182.099 425.449 217.556C279.926 286.027 -177.166 366.616 -356.494 190.663" stroke="#F6F9FB" stroke-width="0.4545" stroke-miterlimit="10"/>
<path opacity="0.19" d="M1578.99 -7.98315C1369.06 245.705 1191.11 110.235 989.736 76.6993C887.604 59.6802 768.416 46.4491 629.858 111.886C565.983 142.047 500.599 182.225 425.575 222.421C299.638 289.904 -178.296 409.9 -360.533 235.616" stroke="#F6F9FB" stroke-width="0.3864" stroke-miterlimit="10"/>
<path opacity="0.19" d="M1575.44 -46.6171C1363.08 216.263 1201.7 92.0668 988.135 63.2888C887.044 49.6807 769.472 46.8262 627.593 112.712C565.172 141.885 499.806 181.632 425.698 227.304C318.7 293.244 -179.431 453.219 -364.594 280.587" stroke="#F6F9FB" stroke-width="0.3182" stroke-miterlimit="10"/>
<path opacity="0.19" d="M1571.9 -85.269C1221.79 358.214 1057.54 -222.983 425.845 232.169C336.908 296.242 -180.522 496.521 -368.611 325.54" stroke="#F6F9FB" stroke-width="0.25" stroke-miterlimit="10"/>
</g>
<path d="M-210.379 171.292C-4.26506 393.509 195.871 465.427 582.049 230.392C688.329 165.708 824.696 169.425 936.882 223.193C1035.73 270.57 1373.31 511.476 1551.06 329.777" stroke="#F6F9FB" stroke-width="3" stroke-miterlimit="10"/>
<path d="M-341.109 354.516C-127.509 139.48 74.9602 74.4374 452.88 322.524C556.88 390.798 693.302 391.75 807.265 341.841C907.674 297.876 1253.3 68.6388 1424.73 256.315" stroke="#F6F9FB" stroke-width="3" stroke-miterlimit="10"/>
</g>
</g>
</svg>
