<svg width="335" height="193" viewBox="0 0 335 193" fill="none" xmlns="http://www.w3.org/2000/svg">
<mask id="mask0_636_41" style="mask-type:alpha" maskUnits="userSpaceOnUse" x="0" y="0" width="335" height="193">
<rect width="335" height="193" rx="2" fill="#E4E9EC"/>
</mask>
<g mask="url(#mask0_636_41)">
<g opacity="0.25">
<path d="M-233.06 601.552C-161.664 297.553 -22.4791 136.079 427.72 172.017C551.621 181.902 668.464 113.986 739.962 10.9837C802.959 -79.7763 979.647 -463.305 1222.58 -378.411" stroke="#013C76" stroke-width="3" stroke-miterlimit="10"/>
<path d="M-286.073 328.638C18.9746 422.792 239.413 382.993 467.9 -34.7878C530.781 -149.764 657.132 -218.193 787.785 -228.229C902.903 -237.071 1337.72 -195.106 1404.17 -454.463" stroke="#013C76" stroke-width="3" stroke-miterlimit="10"/>
<path d="M-473.704 326.044C-174.702 437.903 47.6944 411.101 300.266 7.42939C369.777 -103.666 499.926 -164.572 630.946 -166.938C746.385 -169.021 1177.99 -101.643 1259.51 -356.669" stroke="#013C76" stroke-miterlimit="10"/>
<path d="M1242.85 -380.608C1164.51 -119.759 757.052 -170.659 634.621 -162.116C506.108 -153.14 377.125 -95.2443 304.995 14.416C252.94 93.5332 203.222 160.209 153.186 215.103C-27.8164 413.67 -216.292 442.003 -456.515 355.86" stroke="#013C76" stroke-width="0.9318" stroke-miterlimit="10"/>
<path d="M1226.19 -404.551C1151.04 -137.878 767.913 -172.694 638.328 -157.291C512.419 -142.329 384.566 -86.7887 309.73 21.399C257.15 97.4131 207.844 164.047 157.672 220.897C-9.84614 410.675 -196.937 468.864 -439.288 385.654" stroke="#013C76" stroke-width="0.8636" stroke-miterlimit="10"/>
<path d="M1209.54 -428.476C1137.56 -155.97 778.86 -175.062 642.032 -152.464C518.785 -132.096 392.081 -78.3105 314.47 28.4001C261.417 101.325 212.444 167.854 162.163 226.711C7.82105 407.352 -177.592 495.753 -422.08 415.458" stroke="#013C76" stroke-width="0.7955" stroke-miterlimit="10"/>
<path d="M1192.88 -452.417C1124.09 -174.087 789.799 -177.862 645.736 -147.637C525.125 -122.327 399.667 -69.7856 319.218 35.3756C265.762 105.258 217.013 171.57 166.646 232.507C25.1736 403.71 -158.229 522.633 -404.872 445.263" stroke="#013C76" stroke-width="0.7273" stroke-miterlimit="10"/>
<path d="M1176.23 -476.341C1110.62 -192.188 800.696 -181.074 649.423 -142.8C531.398 -112.935 407.314 -61.23 323.943 42.3868C270.135 109.24 221.479 175.259 171.13 238.347C42.2149 399.832 -138.874 549.539 -387.655 475.085" stroke="#013C76" stroke-width="0.6591" stroke-miterlimit="10"/>
<path d="M1159.57 -500.283C1097.15 -210.305 811.483 -184.704 653.127 -137.973C537.584 -103.886 415.05 -52.5957 328.691 49.362C274.586 113.243 225.895 178.823 175.613 244.144C58.9597 395.667 -119.538 576.412 -370.447 504.889" stroke="#013C76" stroke-width="0.5909" stroke-miterlimit="10"/>
<path d="M1142.91 -524.224C1083.68 -228.423 822.092 -188.755 656.821 -133.163C543.66 -95.1009 422.847 -43.9312 333.422 56.3468C279.065 117.294 230.172 182.336 180.094 249.94C75.4351 391.264 -100.177 603.291 -353.249 534.678" stroke="#013C76" stroke-width="0.5227" stroke-miterlimit="10"/>
<path d="M1126.25 -548.147C1070.2 -246.513 832.514 -193.2 660.533 -128.318C549.656 -86.4875 430.751 -35.1526 338.16 63.3498C283.596 121.404 234.313 185.732 184.577 255.781C91.6295 386.718 -80.8399 630.208 -336.041 564.526" stroke="#013C76" stroke-width="0.4545" stroke-miterlimit="10"/>
<path d="M1109.59 -572.088C1056.72 -264.63 842.692 -198.072 664.226 -123.507C555.472 -78.0764 438.719 -26.3032 342.907 70.3255C288.163 125.536 238.234 188.971 189.075 261.569C107.54 381.943 -61.4719 657.062 -318.801 594.313" stroke="#013C76" stroke-width="0.3864" stroke-miterlimit="10"/>
<path d="M1092.94 -596.015C1043.26 -282.733 852.607 -203.294 667.917 -118.673C561.176 -69.754 446.742 -17.3321 347.626 77.3177C292.747 129.723 241.863 192.072 193.544 267.373C123.152 377.056 -42.1328 683.933 -301.617 624.108" stroke="#013C76" stroke-width="0.3182" stroke-miterlimit="10"/>
<path d="M1076.28 -619.955C990.458 -31.0156 492.258 -215.823 198.035 273.187C138.511 372.119 -22.7775 710.839 -284.399 653.93" stroke="#013C76" stroke-width="0.25" stroke-miterlimit="10"/>
<path d="M-479.644 782.791C-410.842 471.048 -267.361 299.013 208.753 306.695C339.779 308.802 461.682 232.744 534.956 124.082C599.502 28.3646 988.794 -530.272 1247.12 -459.932" stroke="#013C76" stroke-miterlimit="10"/>
<path d="M1258.14 -434.306C992.506 -510.493 614.186 14.2748 533.831 120.015C455.275 223.385 337.244 300.854 207.345 302.551C112.194 303.772 29.1689 310.111 -43.6992 322.508C-308.467 367.594 -435.003 511.417 -492.211 760.154" stroke="#013C76" stroke-width="0.9318" stroke-miterlimit="10"/>
<path d="M1269.15 -408.695C996.215 -490.756 629.526 0.265383 532.687 115.916C450.005 214.637 334.696 292.849 205.916 298.376C112.804 302.372 30.0698 309.177 -43.9998 320.891C-294.02 360.433 -445.101 488.141 -504.736 737.515" stroke="#013C76" stroke-width="0.8636" stroke-miterlimit="10"/>
<path d="M1280.16 -383.083C999.932 -471.001 645.459 -13.4315 531.541 111.818C445.527 206.393 332.16 284.793 204.477 294.185C113.408 300.888 30.9786 308.259 -44.3373 319.252C-279.548 353.584 -455.259 464.878 -517.321 714.889" stroke="#013C76" stroke-width="0.7955" stroke-miterlimit="10"/>
<path d="M1291.17 -357.457C1003.66 -451.232 661.953 -26.732 530.408 107.734C441.567 198.547 329.625 276.693 203.043 290.035C114.024 299.419 31.9307 307.447 -44.6529 317.644C-264.988 347.033 -465.388 441.62 -529.887 692.252" stroke="#013C76" stroke-width="0.7273" stroke-miterlimit="10"/>
<path d="M1302.19 -331.849C1007.36 -431.487 678.925 -39.5876 529.26 103.658C437.943 191.054 327.089 268.549 201.611 285.883C114.64 297.906 32.8712 306.686 -44.9664 316.034C-250.367 340.732 -475.509 418.335 -542.434 669.604" stroke="#013C76" stroke-width="0.6591" stroke-miterlimit="10"/>
<path d="M1313.19 -306.236C1011.07 -411.732 696.346 -51.9164 528.13 99.5506C434.557 183.795 324.576 260.306 200.196 281.699C115.271 296.319 33.8506 305.967 -45.2693 314.419C-235.709 334.736 -485.625 395.07 -554.988 646.96" stroke="#013C76" stroke-width="0.5909" stroke-miterlimit="10"/>
<path d="M1324.21 -280.61C1014.8 -391.963 714.202 -63.6883 526.996 95.4673C431.341 176.786 322.046 252.028 198.762 277.549C115.879 294.724 34.8338 305.4 -45.5854 312.811C-221.032 328.993 -495.755 371.813 -567.545 624.339" stroke="#013C76" stroke-width="0.5227" stroke-miterlimit="10"/>
<path d="M1335.22 -254.998C1018.51 -372.224 732.411 -74.8787 525.849 91.369C428.193 169.979 319.466 243.67 197.331 273.375C116.478 293.045 35.8185 304.918 -45.8982 311.179C-206.328 323.494 -505.882 348.531 -580.108 601.678" stroke="#013C76" stroke-width="0.4545" stroke-miterlimit="10"/>
<path d="M1346.23 -229.389C1022.23 -352.473 750.984 -85.4921 524.719 87.2841C425.105 163.334 316.881 235.25 195.916 269.214C117.076 291.347 36.8302 304.619 -46.2104 309.569C-191.617 318.255 -516.014 325.298 -592.677 579.066" stroke="#013C76" stroke-width="0.3864" stroke-miterlimit="10"/>
<path d="M1357.24 -203.778C1025.95 -332.718 769.893 -95.4705 523.555 83.1953C422.026 156.836 314.25 226.767 194.452 265.058C117.604 289.622 37.7977 304.562 -46.5469 307.972C-176.944 313.232 -526.141 302.016 -605.231 556.421" stroke="#013C76" stroke-width="0.3182" stroke-miterlimit="10"/>
<path d="M1368.26 -178.152C815.323 -398.306 523.776 296.046 -46.8465 306.355C-162.286 308.438 -536.271 278.758 -617.797 533.784" stroke="#013C76" stroke-width="0.25" stroke-miterlimit="10"/>
<path d="M1129.25 -746.652C1076.6 -431.769 860.369 -0.932132 384.493 15.9657C253.526 20.6159 178.283 174.805 110.724 287.088C51.2001 386.02 -106.251 793.488 -367.872 736.579" stroke="#013C76" stroke-miterlimit="10"/>
<path d="M-383.549 703.532C-114.876 767.549 36.8329 382.131 106.546 278.08C177.84 171.698 254.157 25.2302 388.436 19.5848C477.492 16.0524 559.332 0.702767 633.378 -26.7852C925.337 -135.17 1111.94 -448.961 1158.05 -703.716" stroke="#013C76" stroke-width="0.9318" stroke-miterlimit="10"/>
<path d="M-399.219 670.481C-123.494 741.607 22.0128 378.198 102.385 269.085C176.623 168.296 254.769 29.5715 392.378 23.2264C479.558 19.2051 561.67 6.97369 637.279 -18.1852C913.011 -109.974 1137.2 -405.968 1186.86 -660.741" stroke="#013C76" stroke-width="0.8636" stroke-miterlimit="10"/>
<path d="M-414.896 637.434C-132.103 715.659 6.76301 374.142 98.2072 260.077C174.786 164.552 255.385 34.085 396.32 26.8456C481.631 22.462 563.876 13.1454 641.171 -9.62388C900.07 -85.8648 1162.48 -363.007 1215.68 -617.815" stroke="#013C76" stroke-width="0.7955" stroke-miterlimit="10"/>
<path d="M-430.572 604.387C-140.727 689.719 -8.89772 369.864 94.03 251.069C172.491 160.506 256.003 38.6405 400.263 30.4645C483.725 25.7514 565.939 19.1815 645.072 -1.04639C886.619 -62.7924 1187.76 -320.046 1244.5 -574.863" stroke="#013C76" stroke-width="0.7273" stroke-miterlimit="10"/>
<path d="M-446.239 571.313C-149.352 663.737 -24.9495 365.244 89.8713 242.051C169.878 156.206 256.624 43.195 404.208 34.0824C485.803 29.0492 567.891 25.0201 648.95 7.52312C872.707 -40.7862 1213.01 -277.067 1273.3 -531.928" stroke="#013C76" stroke-width="0.6591" stroke-miterlimit="10"/>
<path d="M-461.908 538.262C-157.97 637.795 -41.3802 360.298 85.701 233.039C166.966 151.643 257.262 47.8057 408.167 37.7143C487.889 32.3869 569.758 30.6245 652.868 16.1135C858.493 -19.806 1238.32 -234.077 1302.13 -488.963" stroke="#013C76" stroke-width="0.5909" stroke-miterlimit="10"/>
<path d="M-477.585 505.215C-166.595 611.856 -58.184 354.912 81.5233 224.031C163.881 146.873 257.885 52.4458 412.093 41.3429C489.952 35.7377 571.519 35.874 656.743 24.6843C844.014 0.125905 1263.58 -191.123 1330.94 -446.027" stroke="#013C76" stroke-width="0.5227" stroke-miterlimit="10"/>
<path d="M-493.271 472.151C-175.213 585.891 -75.3556 349.039 77.3362 215.007C160.664 141.874 258.485 57.1212 416.026 44.9457C492.031 39.079 573.214 40.5939 660.635 33.2456C829.442 19.0637 1288.84 -148.153 1359.76 -403.1" stroke="#013C76" stroke-width="0.4545" stroke-miterlimit="10"/>
<path d="M-508.941 439.101C-183.831 559.949 -92.8563 342.658 73.1744 206.012C157.376 136.699 259.129 61.859 419.984 48.5781C494.135 42.4499 574.937 44.6654 664.542 41.8201C814.962 37.0528 1314.13 -105.195 1388.57 -360.151" stroke="#013C76" stroke-width="0.3864" stroke-miterlimit="10"/>
<path d="M-524.617 406.054C-192.456 534.01 -110.658 335.73 68.9974 197.004C154.045 131.351 259.79 66.8276 423.91 52.2069C496.215 45.9439 576.774 47.7758 668.428 50.4074C800.758 54.2066 1339.4 -62.2078 1417.39 -317.199" stroke="#013C76" stroke-width="0.3182" stroke-miterlimit="10"/>
<path d="M-540.288 373.003C12.6607 593.148 -143.604 -23.5189 672.319 58.9904C787.191 70.598 1364.67 -19.2157 1446.19 -274.241" stroke="#013C76" stroke-width="0.25" stroke-miterlimit="10"/>
<g opacity="0.51">
<path opacity="0.51" d="M-373.34 460.094C-66.2024 587.519 179.246 568.762 515.702 162.207C608.294 50.3194 758.919 -7.34169 901.457 -4.54493C1027.03 -2.08544 1484.91 84.7506 1612.81 -175.236" stroke="#013C76" stroke-miterlimit="10"/>
<path opacity="0.51" d="M1595.96 -206.162C1470.6 60.0421 1036.51 -8.84664 902.051 -4.91032C761.437 -0.782407 612.356 53.8039 517.114 164.165C449.603 242.38 386.346 308.335 324.601 362.5C96.0891 562.927 -113.405 584.923 -361.741 485.975" stroke="#013C76" stroke-width="0.9318" stroke-miterlimit="10"/>
<path opacity="0.51" d="M1579.09 -237.082C1456.24 35.3598 1046.15 -15.9838 902.644 -5.25224C764.091 5.13125 616.469 57.368 518.498 166.139C450.883 241.226 387.986 307.236 325.75 363.387C113.31 555.081 -99.1731 607.865 -350.187 511.882" stroke="#013C76" stroke-width="0.8636" stroke-miterlimit="10"/>
<path opacity="0.51" d="M1562.24 -268.008C1441.93 10.6777 1055.88 -23.522 903.232 -5.59131C766.789 10.4518 620.656 60.9556 519.903 168.123C452.205 240.114 389.609 306.081 326.937 364.274C130.284 546.854 -84.9128 630.79 -338.61 537.798" stroke="#013C76" stroke-width="0.7955" stroke-miterlimit="10"/>
<path opacity="0.51" d="M1545.39 -298.937C1427.6 -14.023 1065.64 -31.4965 903.839 -5.94213C769.495 15.2869 624.917 64.5876 521.311 170.105C453.599 239.047 391.19 304.883 328.126 365.159C146.994 538.276 -70.6567 653.74 -327.015 563.703" stroke="#013C76" stroke-width="0.7273" stroke-miterlimit="10"/>
<path opacity="0.51" d="M1528.54 -329.863C1413.27 -38.7221 1075.35 -39.8985 904.443 -6.29137C772.166 19.7273 629.254 68.2841 522.732 172.079C455.068 238.002 392.755 303.587 329.33 366.036C163.437 529.394 -56.3802 676.655 -315.406 589.6" stroke="#013C76" stroke-width="0.6591" stroke-miterlimit="10"/>
<path opacity="0.51" d="M1511.67 -360.781C1398.94 -63.3953 1084.97 -48.7266 905.015 -6.6215C774.726 23.8611 633.614 72.0557 524.096 174.065C456.508 237.018 394.155 302.233 330.458 366.935C179.55 520.244 -42.1686 699.609 -303.871 615.519" stroke="#013C76" stroke-width="0.5909" stroke-miterlimit="10"/>
<path opacity="0.51" d="M1494.82 -391.711C1384.62 -88.0981 1094.46 -57.9825 905.626 -6.97426C777.231 27.6983 638.075 75.8772 525.523 176.035C458.049 236.084 395.527 300.742 331.667 367.809C195.483 510.804 -27.8863 722.521 -292.257 641.412" stroke="#013C76" stroke-width="0.5227" stroke-miterlimit="10"/>
<path opacity="0.51" d="M1477.97 -422.638C1370.29 -112.797 1103.78 -67.6651 906.214 -7.31352C779.627 31.3594 642.588 79.8009 526.912 178.029C459.603 235.187 396.736 299.17 332.838 368.705C211.109 501.15 -13.6423 745.456 -280.68 667.328" stroke="#013C76" stroke-width="0.4545" stroke-miterlimit="10"/>
<path opacity="0.51" d="M1461.12 -453.566C1355.97 -137.497 1112.89 -77.7685 906.821 -7.66403C781.912 34.8223 647.192 83.8023 528.337 180.001C461.205 234.328 397.792 297.404 334.044 369.581C226.547 491.276 0.646785 768.387 -269.085 693.233" stroke="#013C76" stroke-width="0.3864" stroke-miterlimit="10"/>
<path opacity="0.51" d="M1444.25 -484.482C1341.61 -162.16 1121.74 -88.2527 907.407 -8.00243C784.05 38.1945 651.832 87.914 529.714 181.979C462.797 233.54 398.534 295.446 335.177 370.455C241.612 481.224 14.8527 791.3 -257.546 719.127" stroke="#013C76" stroke-width="0.3182" stroke-miterlimit="10"/>
<path opacity="0.51" d="M1427.4 -515.41C1243.22 89.0652 731.226 -121.643 336.376 371.356C256.5 471.078 29.1185 814.265 -245.941 745.048" stroke="#013C76" stroke-width="0.25" stroke-miterlimit="10"/>
</g>
<g opacity="0.19">
<path opacity="0.19" d="M-680.068 223.213C-381.065 335.072 100.167 363.228 352.739 -40.4433C422.249 -151.539 593.403 -139.607 724.422 -141.973C839.862 -144.057 1271.46 -76.6788 1352.99 -331.704" stroke="#013C76" stroke-miterlimit="10"/>
<path opacity="0.19" d="M1329.42 -365.083C1250.52 -100.397 840.887 -161.722 715.919 -153.374C588.143 -144.824 423.14 -151.965 351.111 -38.4984C303.524 36.8602 249.31 100.061 188.482 150.443C-51.3453 349.085 -416.412 353.799 -660.076 266.347" stroke="#013C76" stroke-width="0.9318" stroke-miterlimit="10"/>
<path opacity="0.19" d="M1305.84 -398.478C1229.57 -124.131 842.096 -179.823 707.415 -164.775C583.01 -150.877 423.798 -152.563 349.499 -36.5629C302.426 36.9265 250.777 101.922 191.184 154.822C-26.1822 347.702 -394.622 393.885 -640.086 309.481" stroke="#013C76" stroke-width="0.8636" stroke-miterlimit="10"/>
<path opacity="0.19" d="M1282.25 -431.872C1208.6 -147.854 843.404 -198.352 698.899 -176.191C577.882 -157.634 424.595 -153.068 347.858 -34.6334C301.406 37.0565 252.215 103.624 193.849 159.179C-1.62697 345.272 -372.845 433.956 -620.115 352.625" stroke="#013C76" stroke-width="0.7955" stroke-miterlimit="10"/>
<path opacity="0.19" d="M1258.68 -465.252C1187.66 -171.572 844.738 -217.333 690.395 -187.592C572.734 -164.924 425.44 -153.533 346.229 -32.6887C300.417 37.2346 253.62 105.15 196.535 163.567C22.2885 341.879 -351.072 474.051 -600.116 395.775" stroke="#013C76" stroke-width="0.7273" stroke-miterlimit="10"/>
<path opacity="0.19" d="M1235.1 -498.648C1166.7 -195.324 845.993 -236.835 681.894 -198.994C567.547 -172.629 426.303 -154.01 344.62 -30.755C299.463 37.3922 254.93 106.468 199.247 167.919C45.532 337.543 -329.247 514.116 -580.107 438.897" stroke="#013C76" stroke-width="0.6591" stroke-miterlimit="10"/>
<path opacity="0.19" d="M1211.52 -532.044C1145.74 -219.059 847.131 -256.838 673.381 -210.412C562.258 -180.732 427.184 -154.453 342.992 -28.8106C298.517 37.5675 256.056 107.586 201.934 172.307C68.0143 332.423 -307.464 554.228 -560.107 482.047" stroke="#013C76" stroke-width="0.5909" stroke-miterlimit="10"/>
<path opacity="0.19" d="M1187.94 -565.423C1124.8 -242.777 848.076 -277.363 664.877 -221.813C556.877 -189.068 428.099 -154.872 341.379 -26.8756C297.596 37.7497 256.93 108.457 204.627 176.669C89.7237 326.571 -285.683 594.297 -540.116 525.18" stroke="#013C76" stroke-width="0.5227" stroke-miterlimit="10"/>
<path opacity="0.19" d="M1164.36 -598.817C1103.83 -266.5 848.782 -298.448 656.361 -233.228C551.362 -197.63 429.054 -155.292 339.739 -24.9453C296.656 37.9435 257.376 109.008 207.302 181.043C110.616 320.142 -263.896 634.385 -520.145 568.325" stroke="#013C76" stroke-width="0.4545" stroke-miterlimit="10"/>
<path opacity="0.19" d="M1140.77 -632.212C1082.88 -290.235 849.21 -320.094 647.856 -244.63C545.728 -206.366 430.039 -155.665 338.11 -23.0012C295.727 38.1511 257.245 109.236 209.978 185.414C130.639 313.298 -242.133 674.463 -500.156 611.458" stroke="#013C76" stroke-width="0.3864" stroke-miterlimit="10"/>
<path opacity="0.19" d="M1117.18 -665.58C1061.92 -313.942 849.302 -342.243 639.334 -256.02C539.952 -215.193 431.201 -155.877 336.479 -21.0547C294.903 38.4311 256.21 109.113 212.662 189.804C149.787 306.304 -220.352 714.576 -480.175 654.619" stroke="#013C76" stroke-width="0.3182" stroke-miterlimit="10"/>
<path opacity="0.19" d="M1093.6 -698.977C1007.8 -110.047 551.881 -553.709 215.358 194.165C167.975 299.451 -198.543 754.651 -460.165 697.742" stroke="#013C76" stroke-width="0.25" stroke-miterlimit="10"/>
</g>
<path d="M-397.062 473.703C-92.0148 567.857 128.424 528.058 356.91 110.278C419.792 -4.69854 546.143 -73.1275 676.795 -83.1638C791.914 -92.0052 1226.73 -50.041 1293.18 -309.397" stroke="#013C76" stroke-width="3" stroke-miterlimit="10"/>
<path d="M-419.817 709.689C-338.223 401.041 -187.786 235.078 287.606 262.348C418.43 269.855 543.375 198.875 621.047 93.3302C689.484 0.343931 884.031 -390.789 1139.25 -309.875" stroke="#013C76" stroke-width="3" stroke-miterlimit="10"/>
</g>
</g>
</svg>
