<svg width="18" height="18" viewBox="0 0 18 18" fill="none" xmlns="http://www.w3.org/2000/svg">
<path d="M1.95711 0.792893C1.56658 0.402369 0.933417 0.402369 0.542893 0.792893C0.152369 1.18342 0.152369 1.81658 0.542893 2.20711L1.95711 0.792893ZM8.75 9L9.45711 9.70711C9.84763 9.31658 9.84763 8.68342 9.45711 8.29289L8.75 9ZM0.542893 15.7929C0.152369 16.1834 0.152369 16.8166 0.542893 17.2071C0.933417 17.5976 1.56658 17.5976 1.95711 17.2071L0.542893 15.7929ZM0.542893 2.20711L8.04289 9.70711L9.45711 8.29289L1.95711 0.792893L0.542893 2.20711ZM8.04289 8.29289L0.542893 15.7929L1.95711 17.2071L9.45711 9.70711L8.04289 8.29289Z" fill="#1F1F1F"/>
<path d="M9.95711 0.792893C9.56658 0.402369 8.93342 0.402369 8.54289 0.792893C8.15237 1.18342 8.15237 1.81658 8.54289 2.20711L9.95711 0.792893ZM16.75 9L17.4571 9.70711C17.8476 9.31658 17.8476 8.68342 17.4571 8.29289L16.75 9ZM8.54289 15.7929C8.15237 16.1834 8.15237 16.8166 8.54289 17.2071C8.93342 17.5976 9.56658 17.5976 9.95711 17.2071L8.54289 15.7929ZM8.54289 2.20711L16.0429 9.70711L17.4571 8.29289L9.95711 0.792893L8.54289 2.20711ZM16.0429 8.29289L8.54289 15.7929L9.95711 17.2071L17.4571 9.70711L16.0429 8.29289Z" fill="#1F1F1F"/>
</svg>
