<svg width="18" height="18" viewBox="0 0 18 18" fill="none" xmlns="http://www.w3.org/2000/svg">
<path d="M16.0429 0.792893C16.4334 0.402369 17.0666 0.402369 17.4571 0.792893C17.8476 1.18342 17.8476 1.81658 17.4571 2.20711L16.0429 0.792893ZM9.25 9L8.54289 9.70711C8.15237 9.31658 8.15237 8.68342 8.54289 8.29289L9.25 9ZM17.4571 15.7929C17.8476 16.1834 17.8476 16.8166 17.4571 17.2071C17.0666 17.5976 16.4334 17.5976 16.0429 17.2071L17.4571 15.7929ZM17.4571 2.20711L9.95711 9.70711L8.54289 8.29289L16.0429 0.792893L17.4571 2.20711ZM9.95711 8.29289L17.4571 15.7929L16.0429 17.2071L8.54289 9.70711L9.95711 8.29289Z" fill="#1F1F1F"/>
<path d="M8.04289 0.792893C8.43342 0.402369 9.06658 0.402369 9.45711 0.792893C9.84763 1.18342 9.84763 1.81658 9.45711 2.20711L8.04289 0.792893ZM1.25 9L0.542893 9.70711C0.152369 9.31658 0.152369 8.68342 0.542893 8.29289L1.25 9ZM9.45711 15.7929C9.84763 16.1834 9.84763 16.8166 9.45711 17.2071C9.06658 17.5976 8.43342 17.5976 8.04289 17.2071L9.45711 15.7929ZM9.45711 2.20711L1.95711 9.70711L0.542893 8.29289L8.04289 0.792893L9.45711 2.20711ZM1.95711 8.29289L9.45711 15.7929L8.04289 17.2071L0.542893 9.70711L1.95711 8.29289Z" fill="#1F1F1F"/>
</svg>
