<svg width="51" height="52" viewBox="0 0 51 52" fill="none" xmlns="http://www.w3.org/2000/svg">
<path fill-rule="evenodd" clip-rule="evenodd" d="M24.329 0.0322071C16.3196 0.422322 9.10968 4.50144 4.4895 11.2567C2.78525 13.7485 1.46768 16.7402 0.733798 19.7846C0.146063 22.2228 -0.0784558 24.5582 0.0239011 27.1684C0.31705 34.6413 3.82058 41.6475 9.6278 46.3741C13.4514 49.4861 18.0779 51.3946 23.0217 51.8994C24.3368 52.0335 26.6742 52.0335 27.9892 51.8994C38.1309 50.8641 46.6268 43.8944 49.7826 34.0212C50.6112 31.4285 50.9991 28.8851 51 26.0386C51.001 23.1183 50.6265 20.6482 49.7826 18.0078C48.9999 15.5593 47.8383 13.1705 46.4504 11.1553C42.4925 5.40847 36.4297 1.484 29.7867 0.368819C28.4299 0.14108 27.9737 0.0990364 25.8323 0.0044892C25.5627 -0.00737084 24.8862 0.00508889 24.329 0.0322071ZM20.0678 3.6182C17.679 6.20676 15.488 9.59593 14.0844 12.8739L13.8767 13.3591L13.6614 13.2661C13.5431 13.215 13.255 13.0912 13.0213 12.9908C11.7204 12.4323 8.46318 10.5886 8.39553 10.3724C8.38102 10.3261 8.76149 9.89023 9.24099 9.40364C12.1601 6.44156 15.669 4.38497 19.6556 3.29971C20.051 3.19204 20.4144 3.10176 20.4631 3.09896C20.5118 3.09623 20.3338 3.32983 20.0678 3.6182ZM24.2636 9.36619V15.6385L23.561 15.5926C21.6513 15.468 19.3297 15.0861 17.5967 14.6115C16.3524 14.2708 16.2277 14.2229 16.2696 14.1025C16.2916 14.0394 16.4968 13.585 16.7255 13.0925C18.0183 10.3096 19.761 7.6882 21.8 5.45931C22.579 4.60785 24.1217 3.09396 24.2104 3.09396C24.2397 3.09396 24.2636 5.91645 24.2636 9.36619ZM28.0934 4.30995C30.7446 6.95161 32.762 9.81294 34.2854 13.0925C34.81 14.2217 34.805 14.2066 34.6692 14.2484C32.2993 14.9763 29.8196 15.438 27.45 15.5926L26.7474 15.6385V9.36619C26.7474 5.40121 26.7704 3.09396 26.8101 3.09396C26.8447 3.09396 27.4221 3.64119 28.0934 4.30995ZM31.4207 3.32343C35.333 4.37818 38.8368 6.43683 41.7703 9.40437C42.2499 9.88957 42.6303 10.3248 42.6157 10.3716C42.5486 10.5858 39.2669 12.4443 37.9896 12.9913C37.756 13.0914 37.4684 13.2148 37.3506 13.2657L37.1364 13.3582L36.8949 12.8069C35.4208 9.44142 33.5174 6.48813 31.0752 3.77691C30.7368 3.40126 30.485 3.09403 30.5155 3.09416C30.5461 3.0943 30.9534 3.19744 31.4207 3.32343ZM8.70999 13.6031C9.5476 14.0953 11.3812 15.0298 12.286 15.4257C12.6545 15.5868 12.956 15.757 12.956 15.8035C12.956 15.8502 12.851 16.2403 12.7227 16.6704C12.0603 18.8917 11.6393 21.2107 11.4467 23.6991L11.3655 24.7485H6.92515H2.48478L2.52759 24.2655C2.90643 19.9875 4.18132 16.2562 6.43127 12.8402L6.74841 12.3587L7.38732 12.7801C7.73878 13.0118 8.33396 13.3821 8.70999 13.6031ZM44.5786 12.8385C46.8278 16.2534 48.1047 19.9903 48.4834 24.2655L48.5262 24.7485H44.0833H39.6405L39.5943 24.0656C39.4231 21.5325 38.9655 18.9413 38.2883 16.6704C38.16 16.2403 38.055 15.8502 38.055 15.8035C38.055 15.757 38.3564 15.5872 38.7249 15.4263C40.2845 14.7454 42.4716 13.5534 43.7742 12.6744C44.0258 12.5046 44.2382 12.3634 44.2461 12.3606C44.2539 12.3578 44.4036 12.5728 44.5786 12.8385ZM16.7143 16.9814C18.8329 17.5713 20.9088 17.9311 23.1361 18.0944L24.2636 18.1771V21.4628V24.7485H19.0634H13.8631L13.9061 24.0989C14.0483 21.9466 14.4673 19.594 15.0938 17.4304C15.3091 16.6868 15.3446 16.6117 15.4674 16.6403C15.5421 16.6578 16.1032 16.8113 16.7143 16.9814ZM35.9188 17.4359C36.5436 19.594 36.9628 21.949 37.1049 24.0989L37.1478 24.7485H31.9476H26.7474V21.4628V18.1771L27.8749 18.0944C29.3633 17.9852 30.7146 17.7999 32.0744 17.5184C33.1237 17.3012 35.3597 16.7243 35.4299 16.6527C35.4477 16.6346 35.5118 16.6197 35.5724 16.6197C35.6568 16.6197 35.7377 16.8104 35.9188 17.4359ZM11.3873 27.6362C11.3873 28.1027 11.5563 29.918 11.6861 30.8451C11.8629 32.1089 12.1631 33.5601 12.509 34.8237C12.6925 35.4939 12.846 36.1104 12.8503 36.1939C12.8569 36.3256 12.7548 36.3921 12.0736 36.6998C10.4184 37.4475 8.71162 38.3757 7.39157 39.2461L6.75691 39.6647L6.4348 39.186C5.01678 37.079 3.81987 34.3669 3.18984 31.8332C2.89186 30.6349 2.65054 29.1521 2.52759 27.7635L2.48478 27.2804H6.93607H11.3873V27.6362ZM24.2636 30.5661V33.8519L23.1361 33.9346C20.6912 34.1139 17.9162 34.6265 15.8973 35.2717C15.2629 35.4745 15.269 35.4771 15.1094 34.9308C14.4739 32.7556 14.0254 30.2066 13.9008 28.0633L13.8554 27.2804H19.0595H24.2636V30.5661ZM37.1129 28.03C36.987 30.1858 36.5321 32.7726 35.896 34.95C35.7425 35.475 35.7457 35.4737 35.1137 35.2717C33.0948 34.6265 30.3198 34.1139 27.8749 33.9346L26.7474 33.8519V30.5661V27.2804H31.9521H37.1567L37.1129 28.03ZM48.4834 27.7635C48.1072 32.0107 46.9108 35.55 44.6775 39.0218L44.261 39.6692L43.6228 39.2484C42.2965 38.3738 40.5829 37.442 38.9384 36.7012C38.5076 36.5072 38.1462 36.3211 38.1353 36.2877C38.1244 36.2544 38.2473 35.759 38.4084 35.1868C39.0573 32.882 39.4607 30.4671 39.5981 28.0633L39.6429 27.2804H44.0845H48.5262L48.4834 27.7635ZM24.2636 42.8051C24.2636 46.3231 24.2384 49.2015 24.2075 49.2015C24.1767 49.2015 23.6466 48.7033 23.0295 48.0944C20.7656 45.8603 19.0558 43.5942 17.562 40.8478C17.0406 39.8894 16.1587 38.0251 16.1587 37.8816C16.1587 37.7354 18.8869 37.0609 20.6218 36.7782C21.4766 36.6389 21.9723 36.5781 23.2832 36.452C23.409 36.4399 23.681 36.4252 23.8878 36.4193L24.2636 36.4087V42.8051ZM29.0023 36.5806C29.9996 36.6961 31.1232 36.8848 32.1724 37.113C33.1469 37.3248 34.8522 37.8092 34.8522 37.8741C34.8522 37.9018 34.7759 38.1007 34.6826 38.316C33.0659 42.0445 30.8853 45.2289 28.0024 48.0712C27.3718 48.6929 26.8315 49.2015 26.8017 49.2015C26.7718 49.2015 26.7474 46.3191 26.7474 42.796V36.3905L27.45 36.4363C27.8365 36.4616 28.535 36.5265 29.0023 36.5806ZM14.2582 39.7804C15.483 42.5721 17.2509 45.3893 19.2237 47.693C19.5332 48.0543 19.8856 48.4681 20.0069 48.6125L20.2275 48.8751L20.0396 48.8295C17.4461 48.2007 14.4205 46.7959 12.2369 45.2069C10.9771 44.2901 9.33531 42.8305 8.66718 42.0333C8.40259 41.7175 8.3722 41.6527 8.45161 41.5733C8.90091 41.1236 13.4219 38.7146 13.7295 38.7609C13.7774 38.7681 14.0154 39.2269 14.2582 39.7804ZM37.9294 39.0128C39.4529 39.6859 42.5447 41.4307 42.6157 41.6574C42.6818 41.8685 40.2867 44.0961 38.8832 45.1289C36.6758 46.7534 33.5993 48.1924 30.9714 48.8295L30.7835 48.8751L31.0041 48.6141C31.1254 48.4705 31.5148 48.0117 31.8694 47.5946C33.9136 45.1902 35.904 41.9268 37.0559 39.0905C37.1341 38.8981 37.224 38.7407 37.2557 38.7407C37.2875 38.7407 37.5906 38.8632 37.9294 39.0128Z" fill="#2A7ECC"/>
</svg>
