<?xml version="1.0" encoding="utf-8"?><svg width="18" height="18" fill="none" xmlns="http://www.w3.org/2000/svg" viewBox="0 0 18 18"><path d="M1.957.793A1 1 0 00.543 2.207L1.957.793zM8.75 9l.707.707a1 1 0 000-1.414L8.75 9zM.543 15.793a1 1 0 101.414 1.414L.543 15.793zm0-13.586l7.5 7.5 1.414-1.414-7.5-7.5L.543 2.207zm7.5 6.086l-7.5 7.5 1.414 1.414 7.5-7.5-1.414-1.414zM9.957.793a1 1 0 00-1.414 1.414L9.957.793zM16.75 9l.707.707a1 1 0 000-1.414L16.75 9zm-8.207 6.793a1 1 0 101.414 1.414l-1.414-1.414zm0-13.586l7.5 7.5 1.414-1.414-7.5-7.5-1.414 1.414zm7.5 6.086l-7.5 7.5 1.414 1.414 7.5-7.5-1.414-1.414z" fill="#1F1F1F"/></svg>