<?xml version="1.0" encoding="utf-8"?><svg width="18" height="18" fill="none" xmlns="http://www.w3.org/2000/svg" viewBox="0 0 18 18"><path d="M16.043.793a1 1 0 111.414 1.414L16.043.793zM9.25 9l-.707.707a1 1 0 010-1.414L9.25 9zm8.207 6.793a1 1 0 01-1.414 1.414l1.414-1.414zm0-13.586l-7.5 7.5-1.414-1.414 7.5-7.5 1.414 1.414zm-7.5 6.086l7.5 7.5-1.414 1.414-7.5-7.5 1.414-1.414zM8.043.793a1 1 0 011.414 1.414L8.043.793zM1.25 9l-.707.707a1 1 0 010-1.414L1.25 9zm8.207 6.793a1 1 0 11-1.414 1.414l1.414-1.414zm0-13.586l-7.5 7.5L.543 8.293l7.5-7.5 1.414 1.414zm-7.5 6.086l7.5 7.5-1.414 1.414-7.5-7.5 1.414-1.414z" fill="#1F1F1F"/></svg>