<?xml version="1.0" encoding="utf-8"?><svg width="51" height="52" fill="none" xmlns="http://www.w3.org/2000/svg" viewBox="0 0 51 52"><path fill-rule="evenodd" clip-rule="evenodd" d="M24.329.032c-8.01.39-15.22 4.47-19.84 11.225-1.704 2.492-3.021 5.483-3.755 8.528-.588 2.438-.812 4.773-.71 7.383a26.106 26.106 0 009.604 19.206A25.194 25.194 0 0023.022 51.9c1.315.134 3.652.134 4.967 0 10.142-1.035 18.638-8.005 21.794-17.878.828-2.593 1.216-5.136 1.217-7.982.001-2.92-.373-5.39-1.217-8.031-.783-2.449-1.945-4.837-3.333-6.853C42.492 5.408 36.43 1.484 29.787.37 28.43.14 27.974.099 25.832.004c-.27-.011-.946.001-1.503.028zm-4.261 3.586c-2.389 2.589-4.58 5.978-5.984 9.256l-.207.485-.216-.093-.64-.275c-1.3-.559-4.558-2.402-4.625-2.619-.015-.046.365-.482.845-.968 2.92-2.962 6.428-5.019 10.415-6.104.395-.108.758-.198.807-.201.049-.003-.13.23-.395.52zm4.196 5.748v6.273l-.703-.046c-1.91-.125-4.231-.507-5.964-.982-1.245-.34-1.37-.388-1.327-.509.022-.063.227-.517.456-1.01A30.348 30.348 0 0121.8 5.46c.779-.851 2.322-2.365 2.41-2.365.03 0 .054 2.822.054 6.272zm3.83-5.056c2.65 2.642 4.668 5.503 6.191 8.783.525 1.129.52 1.114.384 1.155-2.37.728-4.85 1.19-7.219 1.345l-.703.046V9.366c0-3.965.023-6.272.063-6.272.035 0 .612.547 1.283 1.216zm3.327-.987c3.912 1.055 7.416 3.114 10.35 6.081.479.486.86.92.845.968-.067.214-3.35 2.072-4.626 2.62l-.64.274-.214.092-.241-.551a33.15 33.15 0 00-5.82-9.03c-.338-.376-.59-.683-.56-.683.031 0 .438.103.906.23zM8.71 13.603a46.19 46.19 0 003.576 1.823c.369.16.67.331.67.377 0 .047-.105.437-.233.867-.663 2.222-1.084 4.54-1.276 7.03l-.081 1.049H2.485l.043-.483c.378-4.278 1.653-8.01 3.903-11.426l.317-.481.64.421c.35.232.946.602 1.322.823zm35.869-.764c2.249 3.414 3.526 7.151 3.904 11.426l.043.483h-8.885l-.047-.682c-.17-2.534-.629-5.125-1.306-7.396-.128-.43-.233-.82-.233-.867 0-.046.301-.216.67-.377 1.56-.68 3.747-1.873 5.05-2.752.25-.17.463-.31.471-.313a5.86 5.86 0 01.333.477zM16.714 16.98c2.119.59 4.195.95 6.422 1.113l1.128.083v6.571h-10.4l.042-.65a32.294 32.294 0 011.188-6.668c.215-.743.25-.818.373-.79.075.018.636.171 1.247.341zm19.205.455a32.31 32.31 0 011.186 6.663l.043.65h-10.4v-6.572l1.127-.083c1.488-.109 2.84-.294 4.2-.576 1.049-.217 3.285-.794 3.355-.865.018-.018.082-.033.142-.033.085 0 .166.19.347.816zm-24.532 10.2c0 .467.17 2.282.3 3.21.176 1.263.476 2.714.822 3.978.184.67.337 1.286.341 1.37.007.132-.095.198-.776.506-1.656.747-3.362 1.676-4.682 2.546l-.635.419-.322-.479c-1.418-2.107-2.615-4.82-3.245-7.353a27.887 27.887 0 01-.662-4.07l-.043-.483h8.902v.356zm12.877 2.93v3.286l-1.128.083c-2.445.179-5.22.691-7.239 1.337-.634.203-.628.205-.788-.341-.635-2.175-1.084-4.724-1.208-6.868l-.046-.783H24.264v3.286zm12.849-2.536c-.126 2.156-.58 4.743-1.217 6.92-.154.525-.15.524-.782.322-2.02-.645-4.794-1.158-7.24-1.337l-1.127-.083V27.28h10.41l-.044.75zm11.37-.267c-.376 4.248-1.572 7.787-3.805 11.259l-.417.647-.638-.42c-1.326-.875-3.04-1.807-4.685-2.548-.43-.194-.792-.38-.803-.413-.01-.034.112-.529.273-1.101a33.48 33.48 0 001.19-7.124l.045-.783h8.883l-.043.483zm-24.22 15.042c0 3.518-.025 6.397-.056 6.397-.03 0-.56-.499-1.178-1.108-2.263-2.234-3.973-4.5-5.467-7.246-.521-.959-1.403-2.823-1.403-2.966 0-.147 2.728-.821 4.463-1.104.855-.14 1.35-.2 2.661-.326.126-.012.398-.027.605-.033l.376-.01v6.396zm4.74-6.224c.997.115 2.12.304 3.17.532.974.212 2.68.696 2.68.761 0 .028-.077.227-.17.442-1.617 3.728-3.798 6.913-6.68 9.755-.631.622-1.172 1.13-1.201 1.13-.03 0-.055-2.882-.055-6.405v-6.405l.703.045c.387.026 1.085.09 1.552.145zm-14.745 3.2a32.742 32.742 0 004.966 7.912c.31.361.662.775.783.92l.22.262-.187-.045c-2.594-.63-5.62-2.034-7.803-3.623-1.26-.917-2.902-2.377-3.57-3.174-.264-.316-.295-.38-.215-.46.449-.45 4.97-2.858 5.277-2.812.048.007.286.466.53 1.02zm23.671-.768c1.524.673 4.616 2.418 4.687 2.644.066.212-2.33 2.44-3.733 3.472-2.207 1.624-5.284 3.063-7.912 3.7l-.188.046.221-.26c.121-.145.51-.603.865-1.02 2.045-2.405 4.035-5.668 5.187-8.505.078-.192.168-.35.2-.35s.335.123.673.273z" fill="#2A7ECC"/></svg>