<?xml version="1.0" encoding="utf-8"?><svg width="51" height="52" fill="none" xmlns="http://www.w3.org/2000/svg" viewBox="0 0 51 52"><path fill-rule="evenodd" clip-rule="evenodd" d="M24.065.022a25.252 25.252 0 00-7.76 1.7c-.994.39-2.367 1.05-3.287 1.58-4.106 2.365-7.457 5.782-9.778 9.97a33.135 33.135 0 00-1.197 2.474 26.314 26.314 0 00-2.02 8.85c-.031.564-.03 2.264 0 2.83.237 4.27 1.448 8.308 3.581 11.945a27.206 27.206 0 002.696 3.77c3.531 4.113 8.245 6.994 13.437 8.213 1.394.327 2.748.526 4.232.622.495.032 2.568.032 3.061 0 4.19-.272 8.05-1.486 11.572-3.639 1.851-1.13 3.375-2.346 4.94-3.942a24.338 24.338 0 002.739-3.28 26.159 26.159 0 004.538-11.838c.145-1.188.181-1.847.181-3.279s-.036-2.09-.181-3.279a26.137 26.137 0 00-8.507-16.298 26.325 26.325 0 00-4.475-3.207A32.374 32.374 0 0035.602 2.1 25.02 25.02 0 0026.9.02a46.11 46.11 0 00-2.835.001zm14.944 13.469c.482.103.866.462 1.03.963.033.098.045.202.044.39-.002.243-.118.823-2.254 11.24a9172.536 9172.536 0 01-2.31 11.246c-.08.364-.175.549-.395.775-.21.215-.427.338-.71.402a1.428 1.428 0 01-1.013-.158c-.081-.051-6.568-4.893-6.947-5.186l-.073-.057-1.775 1.852a132.333 132.333 0 01-1.866 1.925c-.05.04-.098.066-.106.058-.009-.009-.016-.001-.016.017 0 .017-.006.025-.015.017-.008-.008-.03 0-.049.02-.065.066-.297.118-.528.118-.122 0-.233-.011-.246-.025-.015-.016-.012-.048.01-.095.024-.052.095-1.028.252-3.461.12-1.864.23-3.438.244-3.499a.78.78 0 01.098-.22c.044-.066 1.66-1.538 4.153-3.783l6.231-5.613c1.285-1.157 2.169-1.97 2.194-2.018a.3.3 0 00-.008-.311.305.305 0 00-.286-.172c-.093 0-.7.38-7.489 4.673-4.063 2.57-7.419 4.706-7.457 4.745a.809.809 0 00-.12.172c-.116.23-.16-.004.934 4.9a544.564 544.564 0 011.006 4.554c0 .046-.003.046-.101-.005-.14-.073-.358-.307-.433-.464-.034-.072-.634-1.985-1.333-4.251a505.323 505.323 0 00-1.286-4.138c-.008-.009-1.548-.478-3.422-1.041-1.874-.564-3.46-1.05-3.526-1.08a1.03 1.03 0 01-.426-.435c-.212-.46-.083-.994.308-1.268.06-.043 1.652-.688 3.852-1.561 5.781-2.297 15.226-6.05 19.853-7.89 3.552-1.413 3.246-1.294 3.43-1.336.191-.044.348-.044.55 0z" fill="#2A7ECC"/></svg>