<?xml version="1.0" encoding="utf-8"?><svg viewBox="0 0 1310.667 1306.667" xmlns="http://www.w3.org/2000/svg" xmlns:xlink="http://www.w3.org/1999/xlink"><style>:root>svg{display:none}:root>svg:target{display:block}</style><svg fill="none" viewBox="0 0 24 24" id="ic-box" xmlns="http://www.w3.org/2000/svg"><path clip-rule="evenodd" d="M12.1 3l8.55 4.75v9.5L12.1 22l-8.55-4.75v-9.5L12.1 3z" stroke="#013C76" stroke-linejoin="round"/><path d="M3.55 7.75l8.55 4.75 8.55-4.75M12.1 12.5V22" stroke="#013C76"/></svg><svg fill="none" viewBox="0 0 24 24" id="ic-calendar" xmlns="http://www.w3.org/2000/svg"><path d="M4 5.777h16V20H4V5.777z" stroke="#013C76" stroke-linejoin="round"/><path d="M20 9.333H4M8.445 12H6.667M8.445 14.667H6.667M8.445 17.333H6.667M12.889 12H11.11M12.89 14.667H11.11M12.89 17.333H11.11M17.333 12h-1.777M17.333 14.667h-1.777M17.333 17.333h-1.777M7.556 5.778V4M16.444 5.778V4" stroke="#013C76" stroke-linecap="round"/></svg><svg fill="none" viewBox="0 0 24 24" id="ic-laptop" xmlns="http://www.w3.org/2000/svg"><path d="M20.8 17.5v-11a1.1 1.1 0 00-1.1-1.1H4.3a1.1 1.1 0 00-1.1 1.1v11a1.1 1.1 0 001.1 1.1h15.4a1.1 1.1 0 001.1-1.1z" stroke="#013C76" stroke-linecap="round" stroke-linejoin="round"/><path d="M1 18.6h22M3.2 17.5h17.6" stroke="#013C76" stroke-linecap="round"/></svg><svg fill="none" viewBox="0 0 24 24" id="ic-time" xmlns="http://www.w3.org/2000/svg"><path d="M21 12a9 9 0 11-18 0 9 9 0 0118 0z" stroke="#013C76"/><path d="M12 6v6l3.429 3.429" stroke="#013C76" stroke-linecap="round"/></svg><svg fill="none" viewBox="0 0 6 10" id="ic_arr-back" xmlns="http://www.w3.org/2000/svg"><path d="M5 9L1 5l4-4" stroke="#525166" stroke-linecap="round" stroke-linejoin="round"/></svg><svg fill="none" viewBox="0 0 6 10" id="ic_arr-next" xmlns="http://www.w3.org/2000/svg"><g clip-path="url(#afclip0_1730_10779)"><path d="M1 1l4 4-4 4" stroke="#525166" stroke-linecap="round" stroke-linejoin="round"/></g><defs><clipPath id="afclip0_1730_10779"><path fill="#fff" transform="rotate(-180 3 5)" d="M0 0h6v10H0z"/></clipPath></defs></svg><svg fill="none" viewBox="0 0 21 21" id="ic_arrow_big" xmlns="http://www.w3.org/2000/svg"><path d="M19 6l-8.5 9L2 6" stroke="#1F1F1F" stroke-opacity=".5" stroke-width="2" stroke-linecap="round"/></svg><svg viewBox="0 0 280.067 280.067" id="ic_attach" xmlns="http://www.w3.org/2000/svg"><path d="M149.823 257.142c-31.398 30.698-81.882 30.576-113.105-.429-31.214-30.987-31.337-81.129-.42-112.308l-.026-.018L149.841 31.615l14.203-14.098c23.522-23.356 61.65-23.356 85.172 0s23.522 61.221 0 84.586l-125.19 123.02-.044-.035c-15.428 14.771-40.018 14.666-55.262-.394-15.244-15.069-15.34-39.361-.394-54.588l-.044-.053 13.94-13.756 69.701-68.843 13.931 13.774-83.632 82.599c-7.701 7.596-7.701 19.926 0 27.53s20.188 7.604 27.88 0L235.02 87.987l-.035-.026.473-.403c15.682-15.568 15.682-40.823 0-56.39s-41.094-15.568-56.776 0l-.42.473-.026-.018-14.194 14.089L50.466 158.485c-23.522 23.356-23.522 61.221 0 84.577s61.659 23.356 85.163 0l99.375-98.675 14.194-14.089 14.194 14.089-14.194 14.098-99.357 98.675-.018-.018z" fill="#525166"/></svg><svg fill="none" viewBox="0 0 21 9" id="ic_back-news" xmlns="http://www.w3.org/2000/svg"><path d="M.646 4.146a.5.5 0 000 .708l3.182 3.182a.5.5 0 00.708-.708L1.707 4.5l2.829-2.828a.5.5 0 10-.708-.708L.646 4.146zM21 4H1v1h20V4z" fill="#1F1F1F"/></svg><svg fill="none" viewBox="0 0 32 32" id="ic_burger-menu-close" xmlns="http://www.w3.org/2000/svg"><path d="M2 30L30 2M2 2l28 28" stroke="#013C76" stroke-width="3" stroke-linecap="round"/></svg><svg version="1.0" viewBox="0 0 983 980" id="ic_chain" xmlns="http://www.w3.org/2000/svg"><path d="M751.5.9c-.6.5-3.9 1.2-7.5 1.4-8.2.7-13.9 1.6-16.5 2.6-1.1.5-4.5 1.4-7.5 2.1-6.9 1.5-26.2 7.9-27.4 9.1-.6.5-1.8.9-2.8.9-1 0-1.8.4-1.8 1 0 .5-1.1 1-2.5 1s-2.5.4-2.5 1c0 .5-.9 1-2 1s-2 .3-2 .8c0 .4-1.4 1.3-3.1 2.1-3.7 1.6-13.7 7.5-16.4 9.6-1.1.9-3.2 2.4-4.7 3.3-1.6.9-2.8 2-2.8 2.4 0 .4-.6.8-1.3.8-.7 0-1.9.9-2.7 2-.8 1.1-2 2-2.7 2-1.9 0-11.3 9.2-88.2 86-72 72-73 73-77.2 84-2.2 5.7-1.7 20.6.9 25.9 1.2 2.5 2.2 5 2.2 5.6 0 .6.9 1.7 2 2.5s2 1.9 2 2.5c0 3.1 15.9 13.5 20.7 13.5 1.3 0 2.3.4 2.3 1s3.5 1 8.5 1 8.5-.4 8.5-1 1.2-1 2.6-1c2.4 0 11.4-4.3 15-7.2.9-.7 4.8-4.6 8.7-8.7 4-4.1 8.3-8.3 9.6-9.5 1.4-1.2 5.7-5.4 9.5-9.5 3.9-4.1 8.2-8.3 9.5-9.5 1.4-1.2 5.7-5.4 9.5-9.5 3.9-4.1 8.2-8.3 9.5-9.5 1.4-1.2 5.7-5.4 9.5-9.5 3.9-4 8.2-8.3 9.5-9.5 1.3-1.1 18.1-17.9 37.5-37.1 19.3-19.3 36.4-35.9 37.9-37 1.6-1.1 3.8-2.8 4.9-3.7 1.1-1 2.9-2 3.9-2.3 1.1-.4 1.9-1 1.9-1.4 0-.4 1.6-1.3 3.5-2.1s3.5-1.7 3.5-2.2c0-.4.9-.8 2-.8s2-.5 2-1c0-.6.9-1 2-1s2-.5 2-1c0-.6.9-1 2-1s2-.5 2-1c0-.6.8-1 1.7-1 .9 0 4.2-.9 7.2-2 10.9-3.8 19.9-5 37.3-5 14.5 0 18.3.3 28 2.6 6.2 1.4 11.7 3 12.2 3.5.6.5 1.6.9 2.3.9.8 0 3.3.9 5.5 2 2.3 1.1 4.8 2 5.5 2 .7 0 1.3.4 1.3.8 0 .5 1.6 1.4 3.5 2.2 1.9.8 3.5 1.7 3.5 2.1 0 .4.9 1.1 2 1.4 1.1.3 2.6 1.2 3.2 1.8.7.7 3.1 2.4 5.3 3.9 2.2 1.4 5.4 4 7.2 5.7 1.8 1.7 3.5 3.1 3.8 3.1.7 0 5.5 4.7 5.5 5.5 0 .3 1.3 1.9 2.9 3.5 1.6 1.7 4.2 4.9 5.7 7.3 1.6 2.3 3.7 5.1 4.7 6.1.9 1.1 1.7 2.6 1.7 3.3 0 .7.4 1.3.8 1.3.5 0 1.4 1.6 2.2 3.5.8 1.9 1.7 3.5 2.2 3.5.4 0 .8.8.8 1.8s.4 2.2.9 2.7c1.4 1.6 5.9 15.3 8.1 24.8 2.6 11.2 2.8 37.6.5 48.9-1.7 8.2-7.6 26.1-8.7 26.6-.5.2-.8 1.2-.8 2.3 0 1-.4 1.9-.8 1.9-.5 0-1.4 1.6-2.2 3.5-.8 1.9-1.7 3.5-2.2 3.5-.4 0-.8.9-.8 1.9 0 1.1-.4 2.1-.8 2.3-.4.1-3 3.3-5.6 7.1-3 4.2-53.1 54.9-135.3 137C592.3 553.1 596.4 549 595.2 549c-.4 0-1.4.9-2.2 2-.8 1.1-2 2-2.7 2-.7 0-1.3.4-1.3 1 0 .5-.6 1-1.4 1-.8 0-1.6.4-1.8.9-.5 1.3-17.2 10.1-19.1 10.1-.9 0-1.7.4-1.7 1 0 .5-.9 1-1.9 1-1.1 0-2.3.4-2.6 1-.3.5-1.7 1-3.1 1-1.3 0-2.4.4-2.4.9s-1.7 1.1-3.7 1.4c-2.1.3-6.3 1.1-9.3 1.8-7.4 1.6-38.8 1.6-46.5.1-3.3-.7-7.5-1.6-9.3-1.9-1.8-.3-3.5-.9-3.8-1.4-.3-.5-1.6-.9-3-.9-1.3 0-2.4-.5-2.4-1 0-.6-1.1-1-2.5-1s-2.5-.5-2.5-1c0-.6-.8-1-1.7-1-1 0-4.5-1.5-7.8-3.3-9.3-5.1-10.9-6.1-12.6-8-.9-.9-2.2-1.7-2.9-1.7-.7 0-2-.8-2.9-1.8-.9-.9-4.3-3.9-7.6-6.7-3.3-2.7-6.7-5.7-7.5-6.6-.8-.8-3-2.2-4.7-3-1.8-.7-3.3-1.7-3.3-2.1 0-.5-1.1-.8-2.4-.8-1.3 0-2.6-.5-2.8-1.1-.3-.8-4.2-1.2-11.8-1.2-7.6 0-11.5.4-11.8 1.2-.2.6-1.1 1.1-2.1 1.1-2.2 0-7.1 2.3-7.1 3.2 0 .5-.5.8-1.1.8-.6 0-1.6.6-2.3 1.2-.7.7-2.5 2.2-3.9 3.3-1.5 1.1-2.7 2.4-2.7 3 0 .6-.9 1.7-2 2.5s-2 2.2-2 3.2-.4 1.8-1 1.8c-.5 0-1 .9-1 2s-.4 2-.9 2c-.8 0-1.2 1.5-2.7 11.8-.7 4.3.9 13.9 2.7 17.4.5 1 .9 2.5.9 3.3 0 .8.4 1.5.8 1.5.5 0 1.5 1.2 2.3 2.7.8 1.6 2.7 4.1 4.4 5.7 11.4 10.8 13.4 12.6 14 12.6.4 0 1.5.8 2.4 1.8.9 1 4.5 3.9 8.1 6.4 3.6 2.6 7 5.1 7.5 5.5.6.4 2.2 1.4 3.8 2.2 1.5.8 2.7 1.8 2.7 2.3 0 .4.9.8 2 .8s2 .3 2 .7c0 .5 1 1.3 2.3 1.9 1.2.6 4 2.1 6.2 3.2 7.1 3.8 14.8 7.2 16.2 7.2.7 0 1.3.4 1.3 1 0 .5 1.4 1 3 1 1.7 0 3 .4 3 1 0 .5 1.1 1 2.4 1 1.4 0 2.8.4 3.1 1 .3.5 1.7 1 3.1 1 1.3 0 2.4.4 2.4 1 0 .5 1.8 1 4 1s4 .4 4 .9c0 .4 1.9 1.1 4.3 1.5 2.3.3 6.5 1 9.2 1.6 21.9 4.3 50.5 4.3 74.5-.1 3-.5 7.2-1.3 9.3-1.6 2-.3 4-.9 4.3-1.4.3-.5 2.1-.9 4-.9s3.4-.5 3.4-1c0-.6 1.1-1 2.4-1 1.4 0 2.8-.5 3.1-1 .3-.6 1.7-1 3.1-1 1.3 0 2.4-.5 2.4-1 0-.6.9-1 2-1s2.8-.4 3.8-.9c.9-.5 3.3-1.6 5.2-2.3 1.9-.7 6.4-2.8 10-4.7 3.6-1.8 7.5-3.8 8.7-4.5 1.3-.6 2.3-1.4 2.3-1.9 0-.4.9-.7 2-.7s2-.5 2-1c0-.6.7-1 1.5-1s1.5-.5 1.5-1c0-.6.7-1 1.5-1s1.5-.5 1.5-1c0-.6.5-1 1.1-1 1.1 0 8.9-5.5 12.6-9 1.2-1.1 2.4-2 2.7-2 .3 0 3.1-2.4 6.2-5.3 12.3-11.3 272.2-271.4 274.9-275.2 1.7-2.2 3.8-4.7 4.7-5.6 1-.9 1.8-2 1.8-2.5s1.3-2.4 2.9-4.3c1.6-1.9 3.5-4.6 4.3-6 .7-1.4 1.5-2.8 1.9-3.1.6-.5 4.5-7.4 9-15.9 1.6-2.9 2.9-6.2 2.9-7.2s.3-1.9.8-1.9c.4 0 1.3-1.5 2-3.3.8-1.7 1.8-4.1 2.2-5.2 5-11.7 10.5-33.9 11.6-46.5.3-3 .9-6.4 1.5-7.5 1.2-2.6.5-36.4-1-46-3.2-20.6-8.4-41-12.1-47.7-.6-1-1-2.5-1-3.3 0-.8-.4-1.5-1-1.5-.5 0-1-.9-1-2s-.4-2-1-2c-.5 0-1-.7-1-1.5 0-1.7-10.2-21.7-12-23.5-.3-.3-1.1-1.7-1.9-3.3-.8-1.5-1.8-2.7-2.3-2.7-.4 0-.8-.6-.8-1.3 0-.7-.9-1.9-2-2.7-1.1-.8-2-1.9-2-2.5 0-.6-1.5-2.8-3.2-4.8-1.8-2-4.6-5.3-6.3-7.3-4.3-5.3-16.3-17.2-21.9-21.9-2.7-2.2-6-5-7.5-6.2-1.4-1.3-3.1-2.3-3.6-2.3-.6 0-1.7-.9-2.5-2s-2-2-2.7-2c-.7 0-1.3-.4-1.3-.8 0-.5-1.2-1.5-2.7-2.3-1.6-.8-3-1.7-3.3-2-1.1-1.3-18-9.9-19.4-9.9-.9 0-1.6-.5-1.6-1 0-.6-.9-1-2-1s-2-.5-2-1c0-.6-.9-1-2-1s-2-.5-2-1c0-.6-.8-1-1.8-1s-2.2-.4-2.7-.8c-1-.8-12-4.5-19.5-6.4-14.1-3.7-20.1-4.9-28-5.5-3.6-.2-6.9-.9-7.4-1.4-.6-.5-9.4-.9-19.6-.9-10.2 0-19 .4-19.5.9z"/><path d="M415.5 339c-2.2.5-6.6.9-9.7.9-3.2.1-5.8.5-5.8 1.1 0 .5-2.2 1-5 1-2.7 0-5 .4-5 1 0 .5-1.8 1-3.9 1-2.2 0-4.3.4-4.6 1-.3.5-2.1 1-3.9 1-1.8 0-3.6.3-3.9.7-.4.3-4.4 2-9 3.5-13.9 4.9-14.7 5.3-14.7 6 0 .5-.9.8-1.9.8-1.1 0-2.3.4-2.6 1-.3.5-1.5 1-2.6 1-1 0-1.9.4-1.9 1 0 .5-.9 1-2 1s-2 .4-2 1c0 .5-.6 1-1.3 1-.7 0-2.3.9-3.5 2-1.2 1.1-2.8 2-3.7 2-.8 0-1.5.4-1.5 1 0 .5-.5 1-1 1-1.4 0-9.1 5-11.1 7.2-.9 1-2 1.8-2.5 1.8s-2.1 1-3.6 2.3c-1.4 1.2-4.6 3.8-7 5.7C295.4 391.2 45 641.6 45 642.8c0 .6-1.1 2.2-2.5 3.6s-2.5 3-2.5 3.6c0 .5-.4 1-1 1-.5 0-1 .5-1 1 0 .6-.8 2-1.8 3.1-1.1 1-2.5 3.2-3.3 4.7-.8 1.5-1.7 2.9-2 3.2-.3.3-1.9 3-3.5 6s-3.1 5.7-3.4 6c-.7.7-7.6 15.3-10.1 21.5-1.7 4.3-5.8 17.2-6.9 22-.6 2.7-1.5 6.6-2 8.5-1.8 7-2.2 9.6-2.7 16-.3 3.6-.9 6.9-1.4 7.4-1.2 1.3-1.2 37.9 0 39.1.5.6 1.1 3.9 1.5 7.5.7 8.4 1.9 14.6 5.4 28 1.9 7.5 5.6 18.5 6.4 19.4.4.6.8 1.8.8 2.8 0 1 .5 1.8 1 1.8.6 0 1 .9 1 2s.5 2 1 2c.6 0 1 .9 1 2s.5 2 1 2c.6 0 1 .6 1 1.4 0 1.5 6.5 14.1 8.5 16.6.7.8 2 3 2.9 4.8 1.6 3.1 3.5 5.8 6.3 8.7.7.8 1.3 1.8 1.3 2.4 0 .6.5 1.1 1 1.1.6 0 1 .5 1 1 0 .6 1 2.2 2.2 3.5 1.3 1.3 3.7 4 5.3 6.1 4.2 5.2 16.4 17.3 21 20.9 2.1 1.6 4.9 4 6.1 5.2 1.3 1.3 2.8 2.3 3.4 2.3.5 0 1 .4 1 1 0 .5.6 1 1.3 1 .7 0 1.9.9 2.7 2 .8 1.1 2 2 2.7 2 .7 0 1.3.4 1.3.9s.8 1.1 1.8 1.4c1.9.6 9.4 4.9 10.2 5.8 1.1 1.2 12.2 6.9 13.6 6.9.8 0 1.4.4 1.4 1 0 .5.9 1 2 1s2 .4 2 1c0 .5.9 1 1.9 1 1.1 0 2.1.4 2.3.8.2.4 4.8 2.3 10.3 4.1 17.8 5.9 25.5 7.7 43.5 10.3 13.9 1.9 58 1 58-1.3 0-.5 2-.9 4.5-.9s5.3-.4 6.3-.9c.9-.5 4.2-1.4 7.2-2.1 6.9-1.5 26.2-7.9 27.4-9.1.6-.5 1.8-.9 2.8-.9 1 0 1.8-.5 1.8-1 0-.6.9-1 1.9-1 1.1 0 2.3-.5 2.6-1 .3-.6 1.5-1 2.6-1 1 0 1.9-.5 1.9-1 0-.6.4-1 .8-1 1.2 0 16.3-8.6 19.2-11 1.4-1.1 3-2 3.5-2 .6 0 1.7-.9 2.5-2s2-2 2.7-2c.7 0 1.3-.3 1.3-.8 0-.4 1.7-1.8 3.7-3.2 2.1-1.4 5.7-4.3 8.2-6.5 5.9-5.4 124-123.4 126.9-126.9 3.1-3.7 5.5-8.2 7.2-13.6 1.8-5.4 1.8-23.2.1-23.8-.6-.2-1.1-1.5-1.1-2.8 0-1.3-.4-2.4-1-2.4-.5 0-1-.9-1-2s-.3-2-.8-2c-.4 0-1.8-1.8-3.2-4-1.4-2.2-2.7-4-3-4-.3 0-1.8-1.2-3.5-2.6-3-2.6-4.1-3.2-13-6.5-10.1-3.8-27.8-1.3-34.3 4.8-.7.7-1.7 1.3-2.2 1.3-.5 0-28.4 27.6-62.2 61.2-33.7 33.7-63.6 63.1-66.3 65.3-2.8 2.2-5.1 4.3-5.3 4.7-.2.5-.9.8-1.6.8-.7 0-2.1.8-3.2 1.8-1 1-3.4 2.5-5.1 3.2-1.8.8-3.3 1.8-3.3 2.2 0 .5-.9.8-2 .8s-2 .4-2 1c0 .5-.9 1-2 1s-2 .4-2 1c0 .5-.7 1-1.5 1s-2.3.4-3.3 1c-2.5 1.3-16.9 5.6-22.2 6.6-6.6 1.2-41.8.9-47-.4-2.5-.6-6.3-1.5-8.5-2-8.5-1.9-24.5-8.5-25.3-10.4-.2-.4-1.2-.8-2.3-.8-1 0-1.9-.4-1.9-.8 0-.5-1.1-1.4-2.4-2-1.4-.6-3.3-1.8-4.3-2.6-6-4.9-12.9-10.4-15.2-12-1.4-1-3.8-3.5-5.4-5.5-2.7-3.6-8.5-11-11.3-14.4-.8-.9-1.4-2.2-1.4-2.7 0-.6-.4-1-1-1-.5 0-1-.7-1-1.5s-.4-1.5-1-1.5c-.5 0-1-.9-1-1.9 0-1.1-.4-2.1-.8-2.3-1.9-.8-8.1-16-10.3-25.3-.6-2.2-1.5-6-2.1-8.5-1.5-5.8-1.5-41.9-.1-48.6 1.5-6.6 7.1-23.6 8.4-24.9.5-.5.9-1.7.9-2.7 0-1 .4-1.8.8-1.8.5 0 1.4-1.6 2.2-3.5.8-1.9 1.7-3.5 2.2-3.5.4 0 .8-.8.8-1.8s.9-2.4 2-3.2c1.1-.8 2-1.9 2-2.4s2.1-3.6 4.6-6.9c4.6-5.7 238.9-240.4 246-246.2 2-1.7 4.2-3.6 4.9-4.3.8-.6 1.8-1.2 2.4-1.2.6 0 1.1-.5 1.1-1 0-.6.6-1 1.3-1 .7 0 1.9-.9 2.7-2 .8-1.1 2.2-2 3.1-2 1 0 1.9-.4 2.1-.8.9-2.2 25.3-12.2 29.7-12.2 1.1 0 2.3-.5 2.6-1 .3-.6 2.6-1 5.1-1 2.4 0 4.4-.5 4.4-1 0-.7 6.3-.9 19.3-.6 19.7.4 27.5 1.1 29.1 2.7.6.5 1.9.9 3.1.9 2.3 0 13 3.8 19.4 6.9 2.5 1.1 5.1 2.1 5.8 2.1.7 0 1.3.4 1.3 1 0 .5.7 1 1.5 1s1.5.4 1.5 1c0 .5.7 1 1.5 1s1.5.4 1.5 1c0 .5.7 1 1.5 1s1.5.4 1.5 1c0 .5.6 1 1.3 1 .6 0 2.6 1.1 4.2 2.5 5.2 4.3 11.5 9.9 15.1 13.2 1.8 1.8 4 3.3 4.9 3.3.8 0 1.5.3 1.5.8 0 1.4 9.3 4.6 16.5 5.6 8.2 1.3 24.2-3.5 28.5-8.4 1-1.1 2.1-2 2.6-2 1.2-.1 7.4-8.4 7.4-9.8 0-.7.5-1.2 1-1.2.6 0 1-.9 1-2s.5-2 1-2c.6 0 1-1.4 1-3 0-1.7.5-3 1-3 .6 0 1-3.5 1-8.5s-.4-8.5-1-8.5c-.5 0-1-1.4-1-3 0-1.7-.4-3-1-3-.5 0-1-1.1-1-2.5s-.4-2.5-1-2.5c-.5 0-1-.6-1-1.4 0-1.6-12.1-14.2-18.9-19.6-2.5-1.9-5-4.1-5.7-4.8-.7-.6-1.6-1.2-2.1-1.2s-1.5-.9-2.3-2c-.8-1.1-1.9-2-2.5-2-.5 0-2.2-1.1-3.8-2.4-1.5-1.3-4.1-2.9-5.7-3.6-1.7-.7-3-1.6-3-1.9 0-.4-1.6-1.3-3.5-2.1s-3.5-1.7-3.5-2.2c0-.4-.9-.8-1.9-.8-1.1 0-2.1-.4-2.3-.8-.5-1.4-17-8.9-25.3-11.6-4.4-1.5-8.8-3.1-9.7-3.6-1-.6-3.1-1-4.7-1-1.7 0-3.3-.5-3.6-1-.3-.6-2.2-1-4.1-1-1.9 0-3.4-.4-3.4-.9s-2.4-1.2-5.2-1.5c-2.9-.3-8.7-1-12.8-1.6-10.2-1.4-37.6-2.1-42.5-1z"/></svg><svg fill="none" viewBox="0 0 10 8" id="ic_checkbox" xmlns="http://www.w3.org/2000/svg"><path d="M9 1L4 7 1 4" stroke="#525166" stroke-width="2" stroke-linecap="round" stroke-linejoin="round"/></svg><svg fill="none" viewBox="0 0 14 14" id="ic_cross" xmlns="http://www.w3.org/2000/svg"><path d="M13 1L1 13M1 1l12 12" stroke="#92919F" stroke-width="2" stroke-linecap="round" stroke-linejoin="round"/></svg><svg version="1.0" viewBox="0 0 512 512" id="ic_dislike" xmlns="http://www.w3.org/2000/svg"><path d="M25.5 17.4c-4.1 1.8-8.3 6.9-9 10.9-.3 1.8-.4 65.8-.3 142.4.3 138.8.3 139.2 2.4 141.9 1.1 1.5 3.3 3.7 4.8 4.8 2.7 2 4 2.1 54.4 2.4 34.5.2 52.9 0 55.4-.8 2-.5 5-2.6 6.8-4.7l3.2-3.6 5.6 2.3c17.1 6.9 41.8 21.6 53.2 31.6 12.4 10.9 19.9 22.2 21.9 33 .6 2.8 1.5 13 2.1 22.5 3 48.8 3.9 54.5 10 67.7 4.8 10.2 11.9 17.6 21 21.9 9.8 4.6 16 5.8 30.5 5.8 10.8 0 14.2-.4 20-2.3 25.9-8.6 42.6-31.4 50.2-68.8 2.4-12 2.4-52.9-.1-75.4-1.5-14.5-4.9-37.4-6.2-42.7l-.6-2.3h50c33 0 51.9-.4 55.4-1.1 22.1-4.7 37.8-24.1 37.8-46.8 0-6.8-2.7-17.7-25-101.6-14.9-55.8-26.3-96.5-28-100.2-3.7-8-10.8-15.5-17.9-19l-5.6-2.8-136.6-.3-136.7-.2-.6-3.5c-.8-4.3-5-9.4-9.3-11.1-4.7-2-104.3-2-108.8 0zM112 168v120H48V48h64v120zM411.4 66.2c2.2 3.4 50.6 185.6 50.6 190.4 0 4.6-2.8 9.4-7.3 12.8-2.8 2.1-3.9 2.1-67.7 2.6-63.5.5-64.9.5-67.6 2.6-7.8 5.8-9.2 12.9-4.6 22.6 4.1 8.5 5.8 14.9 8.1 30.3 2.5 16.5 3.9 33.3 4.7 56.6 1 27-1.3 42.1-8.7 57.5-4.4 9.4-10.3 15.9-17.4 19.4-4.4 2.2-6.3 2.5-15.5 2.5-13.6-.1-18-2-21.5-9.8-3.2-7-4.2-14.4-5.5-39.7-1.1-21.6-3.2-42.9-4.9-48.5-5.4-18.2-19.4-36.7-39.2-51.7-15.1-11.6-40.9-25.6-62.1-33.9l-8.8-3.4V64h266l1.4 2.2z"/></svg><svg fill="none" viewBox="0 0 24 24" id="ic_dl" xmlns="http://www.w3.org/2000/svg"><path d="M11.293 17.707a1 1 0 001.414 0l6.364-6.364a1 1 0 00-1.414-1.414L12 15.586 6.343 9.929a1 1 0 00-1.414 1.414l6.364 6.364zM11 1v16h2V1h-2z" fill="#013C76"/><path stroke="#013C76" stroke-width="2" stroke-linecap="round" d="M4 22h16"/></svg><svg fill="none" viewBox="0 0 20 14" id="ic_eye" xmlns="http://www.w3.org/2000/svg"><path d="M1 7s3.273-6 9-6 9 6 9 6-3.273 6-9 6-9-6-9-6z" stroke="#525166" stroke-linecap="round" stroke-linejoin="round"/><path d="M10 9.25c1.356 0 2.455-1.007 2.455-2.25S11.355 4.75 10 4.75C8.644 4.75 7.546 5.757 7.546 7S8.644 9.25 10 9.25z" stroke="#525166" stroke-linecap="round" stroke-linejoin="round"/></svg><svg viewBox="0 0 9 17" id="ic_fb" xmlns="http://www.w3.org/2000/svg"><path d="M8.216 0H7.198c-2.83 0-5.134 2.015-5.134 4.492v1.896H.324c-.179 0-.324.127-.324.284v2.272c0 .156.145.284.324.284h1.74v6.956c0 .157.146.284.325.284h2.595c.18 0 .325-.127.325-.284V9.228H7.89c.179 0 .324-.128.324-.284V6.672c0-.157-.145-.284-.324-.284H5.309V4.492c0-.911.847-1.653 1.889-1.653h1.018c.18 0 .325-.127.325-.284V.284C8.54.127 8.395 0 8.216 0z"/></svg><svg fill="none" viewBox="0 0 17 17" id="ic_find-blue" xmlns="http://www.w3.org/2000/svg"><path d="M4.692 12.308L1 16" stroke="#013C76" stroke-width="1.846" stroke-linecap="round"/><path d="M16.077 7.385a6.462 6.462 0 11-12.924 0 6.462 6.462 0 0112.924 0z" stroke="#013C76" stroke-width="1.846"/></svg><svg viewBox="0 0 17 17" id="ic_goal-angle" xmlns="http://www.w3.org/2000/svg"><path d="M0 2a2 2 0 012-2h13a2 2 0 012 2c0 8.284-6.716 15-15 15a2 2 0 01-2-2V2z"/></svg><svg viewBox="0 0 30 26" id="ic_heart" xmlns="http://www.w3.org/2000/svg"><path d="M21.494.582a8.43 8.43 0 00-6.494 3 8.316 8.316 0 00-6.494-3A8.506 8.506 0 000 9.088C0 17.138 14.05 25 14.62 25.303c.23.154.53.154.76 0C15.95 25 30 17.253 30 9.088A8.506 8.506 0 0021.494.582zM15 23.784C12.797 22.494 1.519 15.62 1.519 9.088a6.987 6.987 0 016.987-6.987 6.835 6.835 0 015.848 3.152.798.798 0 001.292 0A6.987 6.987 0 0128.48 9.088c0 6.608-11.279 13.443-13.481 14.696z"/></svg><svg viewBox="0 0 24 24" id="ic_heart-solid" xmlns="http://www.w3.org/2000/svg"><path d="M17.192 2.565h.003A6.305 6.305 0 0123.5 8.87c0 1.49-.643 3.002-1.672 4.46-1.027 1.455-2.41 2.818-3.826 4.001-2.83 2.366-5.721 3.957-5.933 4.07l-.022.012-.02.014a.047.047 0 01-.053 0l-.02-.014-.023-.012c-.21-.111-3.1-1.726-5.932-4.103-1.416-1.189-2.8-2.555-3.827-4.007C1.142 11.836.5 10.336.5 8.871a6.305 6.305 0 016.305-6.306h.006a6.153 6.153 0 014.804 2.22l.383.46.384-.458a6.244 6.244 0 014.81-2.222z"/></svg><svg viewBox="0 0 37 37" id="ic_hover-arrow" xmlns="http://www.w3.org/2000/svg"><path d="M1 36l17.5-17.5L36 1m0 0H1.5M36 1v34" stroke="#fff" stroke-width="2" stroke-linecap="round"/></svg><svg fill="none" viewBox="0 0 21 21" id="ic_hover-arrow-gray" xmlns="http://www.w3.org/2000/svg"><path d="M1 20l9.5-9.5L20 1m0 0H1.271M20 1v18.457" stroke="#1F1F1F" stroke-linecap="round"/></svg><svg viewBox="0 0 20 21" id="ic_ig" xmlns="http://www.w3.org/2000/svg"><path d="M10.004 5.295a5.122 5.122 0 00-5.13 5.13 5.122 5.122 0 005.13 5.129c2.84 0 5.13-2.29 5.13-5.13 0-2.839-2.29-5.13-5.13-5.13zm0 8.464a3.34 3.34 0 01-3.334-3.335 3.338 3.338 0 013.334-3.335 3.338 3.338 0 013.335 3.335 3.34 3.34 0 01-3.335 3.335zm6.536-8.674c0 .665-.536 1.196-1.196 1.196a1.197 1.197 0 111.196-1.196zm3.397 1.214c-.076-1.602-.442-3.022-1.616-4.192C17.151.937 15.732.572 14.13.491c-1.651-.094-6.602-.094-8.254 0-1.598.076-3.018.442-4.192 1.612C.509 3.273.147 4.693.067 6.295c-.094 1.652-.094 6.603 0 8.254.076 1.603.442 3.023 1.616 4.192 1.174 1.17 2.59 1.536 4.192 1.616 1.652.094 6.603.094 8.254 0 1.603-.076 3.023-.442 4.192-1.616 1.17-1.17 1.536-2.59 1.616-4.192.094-1.651.094-6.598 0-8.25zm-2.134 10.023a3.376 3.376 0 01-1.901 1.901c-1.317.523-4.442.402-5.898.402-1.455 0-4.584.116-5.897-.402a3.377 3.377 0 01-1.902-1.901c-.522-1.317-.401-4.442-.401-5.898 0-1.455-.117-4.585.401-5.897a3.376 3.376 0 011.902-1.902c1.317-.522 4.442-.402 5.897-.402 1.456 0 4.585-.116 5.898.402a3.376 3.376 0 011.902 1.902c.522 1.317.401 4.442.401 5.897 0 1.456.12 4.585-.401 5.898z"/></svg><svg version="1.0" viewBox="0 0 512 512" id="ic_like" xmlns="http://www.w3.org/2000/svg"><path d="M273.8 17c-17.8 3.2-30 11.5-36.8 25-6.3 12.4-8.5 24.7-10 54.5-2.1 41.5-3.6 47.8-15.2 61.2-11.7 13.7-39 31.6-63 41.3l-5.6 2.3-3.2-3.6c-1.8-2.1-4.8-4.2-6.8-4.7-2.5-.8-20.9-1-55.4-.8-50.4.3-51.7.4-54.4 2.4-1.5 1.1-3.7 3.3-4.8 4.8-2.1 2.7-2.1 2.9-2.1 144.6s0 141.9 2.1 144.6c1.1 1.5 3.3 3.7 4.8 4.8 2.7 2 4 2.1 54.4 2.4 34.5.2 52.9 0 55.4-.8 4.5-1.3 9.5-6.8 10.4-11.5l.6-3.5 136.7-.2 136.6-.3 5.5-2.6c7.4-3.5 13.4-9.8 17.5-18.3 2.6-5.3 9.9-31.3 28.5-101.1 22.3-83.8 25-94.8 25-101.6 0-22.7-15.7-42.1-37.8-46.8-3.5-.7-22.4-1.1-55.4-1.1h-50l.6-2.3c1.3-5.3 4.7-28.2 6.2-42.7 2.5-22.5 2.5-63.4.1-75.4-7.5-36.7-24-59.7-48.8-68.2-5.8-2-9.9-2.6-18.9-2.9-6.3-.2-13.6 0-16.2.5zm27.7 34c13.4 6.5 22.5 24 25.7 49.7 1.8 15-.3 57.4-4.3 83.8-2.3 15.4-4 21.8-8.1 30.3-4.6 9.7-3.2 16.8 4.6 22.6 2.7 2.1 4.1 2.1 67.6 2.6 63.8.5 64.9.5 67.7 2.6 4.5 3.4 7.3 8.2 7.3 12.8 0 4.9-48.4 187-50.6 190.3L410 448H144V235.5l8.8-3.4c21.2-8.3 47-22.3 62.1-33.9 19.8-15 33.8-33.5 39.2-51.7 1.7-5.6 3.8-26.9 4.9-48.5 1.3-25.3 2.3-32.7 5.5-39.7 3.6-7.9 9.4-10.4 23.5-10 6.6.2 9.7.8 13.5 2.7zM112 344v120H48V224h64v120z"/></svg><svg fill="none" viewBox="0 0 18 14" id="ic_mail" xmlns="http://www.w3.org/2000/svg"><path d="M2.6 1h12.8c.88 0 1.6.675 1.6 1.5v9c0 .825-.72 1.5-1.6 1.5H2.6c-.88 0-1.6-.675-1.6-1.5v-9C1 1.675 1.72 1 2.6 1z" stroke="#525166" stroke-linecap="round" stroke-linejoin="round"/><path d="M17 2.714L9 7 1 2.714" stroke="#525166" stroke-linecap="round" stroke-linejoin="round"/></svg><svg fill="none" viewBox="0 0 15 12" id="ic_ok" xmlns="http://www.w3.org/2000/svg"><path d="M3.567 10.299L13.549.317l1.414 1.414-9.982 9.982-1.414-1.414z" fill="#4AC635"/><path d="M1.51 5.434l4.43 4.432-1.413 1.414L.096 6.849 1.51 5.434z" fill="#4AC635"/></svg><svg fill="none" viewBox="0 0 18 13" id="ic_ok-dark" xmlns="http://www.w3.org/2000/svg"><path d="M17 1L6 12 1 7" stroke="#92919F" stroke-width="2" stroke-linecap="round" stroke-linejoin="round"/></svg><svg fill="none" viewBox="0 0 18 18" id="ic_pagination-next" xmlns="http://www.w3.org/2000/svg"><path d="M1.957.793A1 1 0 00.543 2.207L1.957.793zM8.75 9l.707.707a1 1 0 000-1.414L8.75 9zM.543 15.793a1 1 0 101.414 1.414L.543 15.793zm0-13.586l7.5 7.5 1.414-1.414-7.5-7.5L.543 2.207zm7.5 6.086l-7.5 7.5 1.414 1.414 7.5-7.5-1.414-1.414zM9.957.793a1 1 0 00-1.414 1.414L9.957.793zM16.75 9l.707.707a1 1 0 000-1.414L16.75 9zm-8.207 6.793a1 1 0 101.414 1.414l-1.414-1.414zm0-13.586l7.5 7.5 1.414-1.414-7.5-7.5-1.414 1.414zm7.5 6.086l-7.5 7.5 1.414 1.414 7.5-7.5-1.414-1.414z" fill="#1F1F1F"/></svg><svg fill="none" viewBox="0 0 18 18" id="ic_pagination-prev" xmlns="http://www.w3.org/2000/svg"><path d="M16.043.793a1 1 0 111.414 1.414L16.043.793zM9.25 9l-.707.707a1 1 0 010-1.414L9.25 9zm8.207 6.793a1 1 0 01-1.414 1.414l1.414-1.414zm0-13.586l-7.5 7.5-1.414-1.414 7.5-7.5 1.414 1.414zm-7.5 6.086l7.5 7.5-1.414 1.414-7.5-7.5 1.414-1.414zM8.043.793a1 1 0 011.414 1.414L8.043.793zM1.25 9l-.707.707a1 1 0 010-1.414L1.25 9zm8.207 6.793a1 1 0 11-1.414 1.414l1.414-1.414zm0-13.586l-7.5 7.5L.543 8.293l7.5-7.5 1.414 1.414zm-7.5 6.086l7.5 7.5-1.414 1.414-7.5-7.5 1.414-1.414z" fill="#1F1F1F"/></svg><svg fill="none" viewBox="0 0 18 22" id="ic_pen" xmlns="http://www.w3.org/2000/svg"><ellipse cx="8.727" cy="20.121" rx="8.727" ry="1.212" fill="#000" fill-opacity=".15"/><path fill-rule="evenodd" clip-rule="evenodd" d="M8.727 20.364s6.788-9.827 6.788-13.576a6.788 6.788 0 10-13.576 0c0 3.749 6.788 13.576 6.788 13.576zm0-9.697a3.879 3.879 0 100-7.758 3.879 3.879 0 000 7.758z" fill="#fff"/></svg><svg fill="none" viewBox="0 0 24 30" id="ic_pen-red" xmlns="http://www.w3.org/2000/svg"><ellipse cx="12" cy="27.667" rx="12" ry="1.667" fill="#C6C6C6"/><path fill-rule="evenodd" clip-rule="evenodd" d="M12.001 28s9.334-13.512 9.334-18.667a9.333 9.333 0 10-18.667 0C2.668 14.488 12.001 28 12.001 28zm0-13.333a5.333 5.333 0 100-10.667 5.333 5.333 0 000 10.667z" fill="#E8444D"/></svg><svg fill="none" viewBox="0 0 18 18" id="ic_plus" xmlns="http://www.w3.org/2000/svg"><path d="M0 9h18M9 0v18" stroke="#1F1F1F"/></svg><svg fill="none" viewBox="0 0 17 17" id="ic_search" xmlns="http://www.w3.org/2000/svg"><path d="M4.692 12.308L1 16" stroke="#fff" stroke-width="1.846" stroke-linecap="round"/><path d="M16.077 7.385a6.462 6.462 0 11-12.924 0 6.462 6.462 0 0112.924 0z" stroke="#fff" stroke-width="1.846"/></svg><svg fill="none" viewBox="0 0 51 52" id="ic_site" xmlns="http://www.w3.org/2000/svg"><path fill-rule="evenodd" clip-rule="evenodd" d="M24.329.032c-8.01.39-15.22 4.47-19.84 11.225-1.704 2.492-3.021 5.483-3.755 8.528-.588 2.438-.812 4.773-.71 7.383a26.106 26.106 0 009.604 19.206A25.194 25.194 0 0023.022 51.9c1.315.134 3.652.134 4.967 0 10.142-1.035 18.638-8.005 21.794-17.878.828-2.593 1.216-5.136 1.217-7.982.001-2.92-.373-5.39-1.217-8.031-.783-2.449-1.945-4.837-3.333-6.853C42.492 5.408 36.43 1.484 29.787.37 28.43.14 27.974.099 25.832.004c-.27-.011-.946.001-1.503.028zm-4.261 3.586c-2.389 2.589-4.58 5.978-5.984 9.256l-.207.485-.216-.093-.64-.275c-1.3-.559-4.558-2.402-4.625-2.619-.015-.046.365-.482.845-.968 2.92-2.962 6.428-5.019 10.415-6.104.395-.108.758-.198.807-.201.049-.003-.13.23-.395.52zm4.196 5.748v6.273l-.703-.046c-1.91-.125-4.231-.507-5.964-.982-1.245-.34-1.37-.388-1.327-.509.022-.063.227-.517.456-1.01A30.348 30.348 0 0121.8 5.46c.779-.851 2.322-2.365 2.41-2.365.03 0 .054 2.822.054 6.272zm3.83-5.056c2.65 2.642 4.668 5.503 6.191 8.783.525 1.129.52 1.114.384 1.155-2.37.728-4.85 1.19-7.219 1.345l-.703.046V9.366c0-3.965.023-6.272.063-6.272.035 0 .612.547 1.283 1.216zm3.327-.987c3.912 1.055 7.416 3.114 10.35 6.081.479.486.86.92.845.968-.067.214-3.35 2.072-4.626 2.62l-.64.274-.214.092-.241-.551a33.15 33.15 0 00-5.82-9.03c-.338-.376-.59-.683-.56-.683.031 0 .438.103.906.23zM8.71 13.603a46.19 46.19 0 003.576 1.823c.369.16.67.331.67.377 0 .047-.105.437-.233.867-.663 2.222-1.084 4.54-1.276 7.03l-.081 1.049H2.485l.043-.483c.378-4.278 1.653-8.01 3.903-11.426l.317-.481.64.421c.35.232.946.602 1.322.823zm35.869-.764c2.249 3.414 3.526 7.151 3.904 11.426l.043.483h-8.885l-.047-.682c-.17-2.534-.629-5.125-1.306-7.396-.128-.43-.233-.82-.233-.867 0-.046.301-.216.67-.377 1.56-.68 3.747-1.873 5.05-2.752.25-.17.463-.31.471-.313a5.86 5.86 0 01.333.477zM16.714 16.98c2.119.59 4.195.95 6.422 1.113l1.128.083v6.571h-10.4l.042-.65a32.294 32.294 0 011.188-6.668c.215-.743.25-.818.373-.79.075.018.636.171 1.247.341zm19.205.455a32.31 32.31 0 011.186 6.663l.043.65h-10.4v-6.572l1.127-.083c1.488-.109 2.84-.294 4.2-.576 1.049-.217 3.285-.794 3.355-.865.018-.018.082-.033.142-.033.085 0 .166.19.347.816zm-24.532 10.2c0 .467.17 2.282.3 3.21.176 1.263.476 2.714.822 3.978.184.67.337 1.286.341 1.37.007.132-.095.198-.776.506-1.656.747-3.362 1.676-4.682 2.546l-.635.419-.322-.479c-1.418-2.107-2.615-4.82-3.245-7.353a27.887 27.887 0 01-.662-4.07l-.043-.483h8.902v.356zm12.877 2.93v3.286l-1.128.083c-2.445.179-5.22.691-7.239 1.337-.634.203-.628.205-.788-.341-.635-2.175-1.084-4.724-1.208-6.868l-.046-.783H24.264v3.286zm12.849-2.536c-.126 2.156-.58 4.743-1.217 6.92-.154.525-.15.524-.782.322-2.02-.645-4.794-1.158-7.24-1.337l-1.127-.083V27.28h10.41l-.044.75zm11.37-.267c-.376 4.248-1.572 7.787-3.805 11.259l-.417.647-.638-.42c-1.326-.875-3.04-1.807-4.685-2.548-.43-.194-.792-.38-.803-.413-.01-.034.112-.529.273-1.101a33.48 33.48 0 001.19-7.124l.045-.783h8.883l-.043.483zm-24.22 15.042c0 3.518-.025 6.397-.056 6.397-.03 0-.56-.499-1.178-1.108-2.263-2.234-3.973-4.5-5.467-7.246-.521-.959-1.403-2.823-1.403-2.966 0-.147 2.728-.821 4.463-1.104.855-.14 1.35-.2 2.661-.326.126-.012.398-.027.605-.033l.376-.01v6.396zm4.74-6.224c.997.115 2.12.304 3.17.532.974.212 2.68.696 2.68.761 0 .028-.077.227-.17.442-1.617 3.728-3.798 6.913-6.68 9.755-.631.622-1.172 1.13-1.201 1.13-.03 0-.055-2.882-.055-6.405v-6.405l.703.045c.387.026 1.085.09 1.552.145zm-14.745 3.2a32.742 32.742 0 004.966 7.912c.31.361.662.775.783.92l.22.262-.187-.045c-2.594-.63-5.62-2.034-7.803-3.623-1.26-.917-2.902-2.377-3.57-3.174-.264-.316-.295-.38-.215-.46.449-.45 4.97-2.858 5.277-2.812.048.007.286.466.53 1.02zm23.671-.768c1.524.673 4.616 2.418 4.687 2.644.066.212-2.33 2.44-3.733 3.472-2.207 1.624-5.284 3.063-7.912 3.7l-.188.046.221-.26c.121-.145.51-.603.865-1.02 2.045-2.405 4.035-5.668 5.187-8.505.078-.192.168-.35.2-.35s.335.123.673.273z" fill="#2A7ECC"/></svg><svg fill="none" viewBox="0 0 18 17" id="ic_star" xmlns="http://www.w3.org/2000/svg"><path d="M9 .902l2.472 5.008L17 6.718l-4 3.896.944 5.504L9 13.518l-4.944 2.6L5 10.614 1 6.718l5.528-.808L9 .902z" stroke="#525166" stroke-linecap="round" stroke-linejoin="round"/></svg><svg fill="none" viewBox="0 0 14 14" id="ic_star-solid" xmlns="http://www.w3.org/2000/svg"><path d="M6.104.814a1 1 0 011.793 0l1.31 2.652a1 1 0 00.752.547l2.931.428a1 1 0 01.553 1.706l-2.118 2.06a1 1 0 00-.288.886l.5 2.91a1 1 0 01-1.45 1.055l-2.622-1.377a1 1 0 00-.93 0l-2.62 1.377a1 1 0 01-1.452-1.055l.5-2.91a1 1 0 00-.288-.886L.557 6.147A1 1 0 011.11 4.44l2.931-.428a1 1 0 00.752-.547L6.103.814z" fill="#111"/></svg><svg fill="none" viewBox="0 0 12 19" id="ic_swiper-next" xmlns="http://www.w3.org/2000/svg"><path d="M1 18l9-8.5L1 1" stroke="#fff" stroke-width="2" stroke-linecap="round"/></svg><svg fill="none" viewBox="0 0 12 19" id="ic_swiper-prev" xmlns="http://www.w3.org/2000/svg"><path d="M11 18L2 9.5 11 1" stroke="#fff" stroke-width="2" stroke-linecap="round"/></svg><svg fill="none" viewBox="0 0 51 52" id="ic_telegram" xmlns="http://www.w3.org/2000/svg"><path fill-rule="evenodd" clip-rule="evenodd" d="M24.065.022a25.252 25.252 0 00-7.76 1.7c-.994.39-2.367 1.05-3.287 1.58-4.106 2.365-7.457 5.782-9.778 9.97a33.135 33.135 0 00-1.197 2.474 26.314 26.314 0 00-2.02 8.85c-.031.564-.03 2.264 0 2.83.237 4.27 1.448 8.308 3.581 11.945a27.206 27.206 0 002.696 3.77c3.531 4.113 8.245 6.994 13.437 8.213 1.394.327 2.748.526 4.232.622.495.032 2.568.032 3.061 0 4.19-.272 8.05-1.486 11.572-3.639 1.851-1.13 3.375-2.346 4.94-3.942a24.338 24.338 0 002.739-3.28 26.159 26.159 0 004.538-11.838c.145-1.188.181-1.847.181-3.279s-.036-2.09-.181-3.279a26.137 26.137 0 00-8.507-16.298 26.325 26.325 0 00-4.475-3.207A32.374 32.374 0 0035.602 2.1 25.02 25.02 0 0026.9.02a46.11 46.11 0 00-2.835.001zm14.944 13.469c.482.103.866.462 1.03.963.033.098.045.202.044.39-.002.243-.118.823-2.254 11.24a9172.536 9172.536 0 01-2.31 11.246c-.08.364-.175.549-.395.775-.21.215-.427.338-.71.402a1.428 1.428 0 01-1.013-.158c-.081-.051-6.568-4.893-6.947-5.186l-.073-.057-1.775 1.852a132.333 132.333 0 01-1.866 1.925c-.05.04-.098.066-.106.058-.009-.009-.016-.001-.016.017 0 .017-.006.025-.015.017-.008-.008-.03 0-.049.02-.065.066-.297.118-.528.118-.122 0-.233-.011-.246-.025-.015-.016-.012-.048.01-.095.024-.052.095-1.028.252-3.461.12-1.864.23-3.438.244-3.499a.78.78 0 01.098-.22c.044-.066 1.66-1.538 4.153-3.783l6.231-5.613c1.285-1.157 2.169-1.97 2.194-2.018a.3.3 0 00-.008-.311.305.305 0 00-.286-.172c-.093 0-.7.38-7.489 4.673-4.063 2.57-7.419 4.706-7.457 4.745a.809.809 0 00-.12.172c-.116.23-.16-.004.934 4.9a544.564 544.564 0 011.006 4.554c0 .046-.003.046-.101-.005-.14-.073-.358-.307-.433-.464-.034-.072-.634-1.985-1.333-4.251a505.323 505.323 0 00-1.286-4.138c-.008-.009-1.548-.478-3.422-1.041-1.874-.564-3.46-1.05-3.526-1.08a1.03 1.03 0 01-.426-.435c-.212-.46-.083-.994.308-1.268.06-.043 1.652-.688 3.852-1.561 5.781-2.297 15.226-6.05 19.853-7.89 3.552-1.413 3.246-1.294 3.43-1.336.191-.044.348-.044.55 0z" fill="#2A7ECC"/></svg><svg viewBox="0 0 16 14" id="ic_tg" xmlns="http://www.w3.org/2000/svg"><path d="M6.279 9.096l-.265 3.723c.379 0 .543-.163.74-.358l1.775-1.697 3.679 2.695c.674.376 1.15.178 1.332-.621l2.415-11.316c.214-.997-.36-1.388-1.018-1.143L.743 5.813c-.969.376-.954.916-.165 1.161l3.629 1.129 8.43-5.274c.396-.263.757-.118.46.145L6.279 9.096z"/></svg><svg viewBox="0 0 16 13" id="ic_tw" xmlns="http://www.w3.org/2000/svg"><path d="M16 1.543a6.872 6.872 0 01-1.645 1.696 9.368 9.368 0 01-.376 3.066 9.453 9.453 0 01-1.177 2.517 9.91 9.91 0 01-1.868 2.143c-.724.615-1.597 1.11-2.62 1.482a9.666 9.666 0 01-3.278.548A9.106 9.106 0 010 11.523c.237.027.5.04.792.04a6.42 6.42 0 004.07-1.4 3.214 3.214 0 01-1.908-.65 3.235 3.235 0 01-1.157-1.625c.223.034.43.051.62.051.29 0 .578-.037.862-.112a3.259 3.259 0 01-1.888-1.126A3.201 3.201 0 01.65 4.609v-.04c.46.257.954.395 1.482.416a3.275 3.275 0 01-1.066-1.168A3.195 3.195 0 01.67 2.254c0-.596.149-1.147.447-1.655a9.373 9.373 0 002.985 2.426A9.22 9.22 0 007.878 4.03a3.643 3.643 0 01-.081-.75c0-.908.318-1.68.954-2.316A3.169 3.169 0 0111.076 0c.948 0 1.746.345 2.396 1.036a6.43 6.43 0 002.081-.792 3.184 3.184 0 01-1.441 1.807A6.534 6.534 0 0016 1.543z"/></svg><svg viewBox="0 0 20 20" id="ic_vb" xmlns="http://www.w3.org/2000/svg"><path d="M17.745 1.948c-.524-.457-2.64-1.914-7.36-1.934 0 0-5.565-.316-8.276 2.043C.602 3.487.07 5.584.013 8.18c-.058 2.597-.128 7.464 4.819 8.784h.004l-.004 2.015s-.033.817.535.98c.684.204 1.088-.417 1.743-1.085.358-.367.852-.906 1.227-1.316 3.386.27 5.985-.348 6.281-.438.684-.21 4.552-.68 5.178-5.546.65-5.023-.313-8.194-2.051-9.627zm.572 9.26c-.531 4.062-3.666 4.32-4.242 4.496-.247.074-2.534.613-5.404.437 0 0-2.142 2.449-2.81 3.086-.218.207-.457.187-.452-.223 0-.27.016-3.347.016-3.347-.004 0-.004 0 0 0-4.193-1.102-3.946-5.246-3.9-7.413.045-2.168.477-3.945 1.754-5.14 2.294-1.973 7.019-1.68 7.019-1.68 3.99.016 5.902 1.156 6.347 1.539 1.47 1.195 2.22 4.054 1.672 8.245zm-5.725-3.156c.016.336-.515.36-.532.024-.045-.86-.469-1.278-1.342-1.324-.354-.02-.322-.524.029-.504 1.149.058 1.787.683 1.845 1.804zm.836.442c.041-1.656-1.05-2.953-3.122-3.098-.35-.023-.313-.527.037-.504 2.389.164 3.662 1.723 3.616 3.613-.004.336-.54.32-.531-.011zm1.936.523c.004.336-.532.34-.532.004-.024-3.183-2.26-4.918-4.975-4.937-.35-.004-.35-.504 0-.504 3.036.02 5.478 2.008 5.507 5.437zm-.466 3.832v.007c-.444.742-1.276 1.563-2.133 1.3l-.008-.01c-.87-.231-2.917-1.231-4.21-2.208-.667-.5-1.277-1.09-1.746-1.656a12.643 12.643 0 01-1.269-1.82c-.877-1.503-1.07-2.175-1.07-2.175-.277-.813.584-1.602 1.37-2.023h.009c.379-.188.741-.125.984.152 0 0 .511.578.73.863.205.266.481.691.626.93.25.425.094.859-.153 1.039l-.494.375c-.251.19-.218.546-.218.546s.733 2.629 3.472 3.293c0 0 .375.031.576-.207l.396-.469c.19-.234.646-.383 1.095-.144.606.324 1.376.828 1.887 1.285.288.222.354.562.156.921z"/></svg><svg viewBox="0 0 19 11" id="ic_vk" xmlns="http://www.w3.org/2000/svg"><path d="M17.57 8.059c-.393-.414-.84-.785-1.27-1.143-.154-.128-.313-.26-.466-.39-.438-.377-.454-.519-.107-.947.24-.295.495-.59.742-.876.224-.26.455-.527.677-.796l.045-.055c.424-.515.862-1.047 1.095-1.689.06-.17.124-.418-.021-.627-.145-.208-.427-.272-.627-.301a1.946 1.946 0 00-.287-.017l-2.774-.002h-.023c-.42 0-.702.174-.864.53a13.74 13.74 0 01-.519 1.05c-.385.688-.875 1.48-1.584 2.141l-.03.028c-.084.08-.179.169-.248.169a.133.133 0 01-.035-.006c-.147-.05-.246-.362-.241-.507v-.006L11.03 1.8l-.003-.03c-.07-.457-.226-.742-.817-.843a.278.278 0 00-.048-.004H7.278c-.47 0-.729.168-.972.419-.066.067-.202.206-.135.376.07.172.292.208.365.22.361.06.564.254.622.593.1.588.113 1.216.039 1.975a1.49 1.49 0 01-.129.514c-.015.032-.07.138-.127.138-.018 0-.07-.006-.165-.063-.224-.135-.387-.327-.578-.564A12.863 12.863 0 014.53 1.817a.986.986 0 00-.92-.592c-.46-.006-.878-.01-1.276-.01-.435 0-.839.004-1.232.012-.337.005-.57.093-.693.263s-.115.394.024.664C1.544 4.32 2.55 5.896 3.697 7.261c.804.956 1.61 1.618 2.536 2.082.977.49 2.071.729 3.345.729.145 0 .294-.003.445-.01.74-.031 1.015-.266 1.05-.9.016-.323.057-.662.238-.951.114-.183.22-.183.256-.183.067 0 .151.028.241.079.161.092.3.216.413.324l.317.31c.228.224.464.456.71.675.538.481 1.132.693 1.813.647h2.56a.755.755 0 00.602-.34c.16-.248.157-.564-.008-.847a4.587 4.587 0 00-.645-.817z"/></svg><svg viewBox="0 0 16 17" id="ic_wa" xmlns="http://www.w3.org/2000/svg"><path d="M9.719 9.385c.27-.34.451-.51.541-.51.09 0 .428.153 1.01.458.591.306.904.49.938.552.014.035.021.087.021.157 0 .229-.059.493-.177.791-.111.271-.358.5-.74.688-.381.18-.736.27-1.062.27-.396 0-1.056-.215-1.98-.645a5.945 5.945 0 01-1.77-1.23C6 9.41 5.486 8.768 4.958 7.99c-.5-.743-.746-1.417-.74-2.021v-.084c.022-.632.279-1.18.772-1.645a.788.788 0 01.541-.23c.042 0 .104.007.188.021.083.007.15.01.198.01.132 0 .222.025.27.074.056.041.112.135.167.28.056.14.17.445.344.918.174.472.26.732.26.78 0 .147-.121.348-.364.605-.236.25-.354.41-.354.48 0 .048.017.1.052.155.236.507.59.983 1.062 1.427.39.368.913.72 1.573 1.053.083.048.16.072.23.072.103 0 .29-.166.562-.5zm-1.573 5.01a6.33 6.33 0 002.531-.52 6.581 6.581 0 002.094-1.396 6.613 6.613 0 001.396-2.083c.347-.813.52-1.66.52-2.542a6.33 6.33 0 00-.52-2.531 6.582 6.582 0 00-1.396-2.094 6.581 6.581 0 00-2.094-1.396 6.329 6.329 0 00-2.531-.52c-.882 0-1.73.173-2.542.52-.805.348-1.5.813-2.083 1.396a6.582 6.582 0 00-1.396 2.094 6.329 6.329 0 00-.52 2.531c0 1.41.416 2.688 1.25 3.833l-.824 2.428 2.521-.803a6.406 6.406 0 003.594 1.084zM5.094.626A7.669 7.669 0 018.146 0c1.062 0 2.076.208 3.041.625a7.918 7.918 0 012.51 1.677 7.918 7.918 0 011.678 2.51c.417.966.625 1.98.625 3.042 0 1.063-.208 2.08-.625 3.052a7.947 7.947 0 01-1.677 2.5 7.916 7.916 0 01-2.51 1.677 7.594 7.594 0 01-3.042.625 7.735 7.735 0 01-3.802-.979L0 16.125l1.417-4.219A7.666 7.666 0 01.292 7.854c0-1.062.208-2.076.625-3.042a7.917 7.917 0 011.677-2.51 7.948 7.948 0 012.5-1.677z"/></svg></svg>