<svg width="90" height="90" viewBox="0 0 90 90" fill="none" xmlns="http://www.w3.org/2000/svg">
<circle cx="45" cy="45" r="45" fill="#D6E4ED" fill-opacity="0.6"/>
<path d="M75.7405 52.5C75.6805 52.5 75.6205 52.49 75.5505 52.48C75.1505 52.38 74.9105 51.97 75.0105 51.57C75.6605 49.03 75.9905 46.4 75.9905 43.76C75.9905 26.53 61.9705 12.51 44.7405 12.51C39.5005 12.51 34.3105 13.83 29.7405 16.34C29.3805 16.54 28.9205 16.41 28.7205 16.04C28.5205 15.68 28.6505 15.22 29.0205 15.02C33.8305 12.39 39.2605 11 44.7505 11C62.8105 11 77.5005 25.69 77.5005 43.75C77.5005 46.52 77.1505 49.28 76.4705 51.94C76.3805 52.28 76.0805 52.5 75.7405 52.5Z" fill="#1F1F1F"/>
<path d="M29.39 52.5H13.76C13.42 52.5 13.12 52.27 13.03 51.94C12.35 49.28 12 46.53 12 43.75C12 40.29 12.56 36.84 13.65 33.51C13.75 33.2 14.04 32.99 14.36 32.99H29.39C29.8 32.99 30.14 33.33 30.14 33.74V51.74C30.14 52.17 29.81 52.5 29.39 52.5ZM14.35 51H28.65V34.5H14.92C13.98 37.52 13.51 40.63 13.51 43.75C13.5 46.2 13.79 48.64 14.35 51Z" fill="#1F1F1F"/>
<path d="M29.3892 34.5H14.3592C14.1192 34.5 13.8892 34.38 13.7492 34.19C13.6092 34 13.5692 33.74 13.6392 33.52C16.2492 25.6 21.7092 19.03 29.0192 15.02C29.2492 14.89 29.5292 14.9 29.7592 15.03C29.9892 15.16 30.1292 15.41 30.1292 15.68V33.76C30.1392 34.16 29.8092 34.5 29.3892 34.5ZM15.4192 33H28.6392V16.97C22.5192 20.66 17.8792 26.28 15.4192 33Z" fill="#1F1F1F"/>
<path d="M29.3908 72.58C29.2708 72.58 29.1408 72.55 29.0308 72.49C21.1108 68.15 15.2708 60.66 13.0308 51.94C12.9708 51.72 13.0208 51.48 13.1608 51.29C13.3008 51.11 13.5208 51 13.7508 51H29.3808C29.7908 51 30.1308 51.34 30.1308 51.75V71.83C30.1308 72.09 29.9908 72.34 29.7608 72.48C29.6608 72.54 29.5308 72.58 29.3908 72.58ZM14.7408 52.5C16.9308 60 21.9208 66.48 28.6408 70.53V52.5H14.7408Z" fill="#1F1F1F"/>
<path d="M44.7506 76.5C39.2606 76.5 33.8206 75.11 29.0306 72.48C28.7906 72.35 28.6406 72.1 28.6406 71.82V51.75C28.6406 51.34 28.9806 51 29.3906 51H42.7506C43.1606 51 43.5006 51.34 43.5006 51.75C43.5006 52.16 43.1606 52.5 42.7506 52.5H30.1406V71.38C34.6106 73.75 39.6606 75 44.7506 75C45.2906 75 45.8206 74.98 46.3506 74.96C46.7506 74.91 47.1206 75.26 47.1406 75.67C47.1606 76.08 46.8406 76.44 46.4306 76.46C45.8806 76.48 45.3206 76.5 44.7506 76.5Z" fill="#1F1F1F"/>
<path d="M67.0004 67.5H46.4004C45.9904 67.5 45.6504 67.16 45.6504 66.75V55.4C45.6504 54.99 45.9904 54.65 46.4004 54.65C46.8104 54.65 47.1504 54.99 47.1504 55.4V66H66.6904C70.5004 62.24 73.2804 57.6 74.7604 52.5H60.7504C60.3404 52.5 60.0004 52.16 60.0004 51.75C60.0004 51.34 60.3404 51 60.7504 51H75.7404C75.9704 51 76.1904 51.11 76.3304 51.29C76.4704 51.47 76.5204 51.71 76.4604 51.94C74.9604 57.77 71.8604 63.08 67.5104 67.29C67.3804 67.43 67.1904 67.5 67.0004 67.5Z" fill="#1F1F1F"/>
<path d="M46.4004 76.46C46.2104 76.46 46.0204 76.39 45.8804 76.25C45.7304 76.11 45.6504 75.91 45.6504 75.71V66.76C45.6504 66.35 45.9904 66.01 46.4004 66.01H67.0004C67.3104 66.01 67.5804 66.2 67.7004 66.48C67.8104 66.76 67.7504 67.09 67.5304 67.3C61.8304 72.81 54.3404 76.06 46.4504 76.46C46.4204 76.46 46.4104 76.46 46.4004 76.46ZM47.1504 67.5V74.9C53.7604 74.4 60.0304 71.8 65.0604 67.5H47.1504Z" fill="#1F1F1F"/>
<path d="M51.75 61.4999C51.55 61.4999 51.36 61.4199 51.22 61.2799L39.5 49.5599C32.75 42.8099 32.75 31.8199 39.5 25.0699C46.25 18.3199 57.24 18.3199 63.99 25.0699C70.74 31.8199 70.74 42.8099 63.99 49.5599L52.27 61.2799C52.14 61.4199 51.95 61.4999 51.75 61.4999ZM51.75 21.5099C47.7 21.5099 43.65 23.0499 40.56 26.1399C34.39 32.3099 34.39 42.3399 40.56 48.5099L51.75 59.6999L62.94 48.5099C69.11 42.3399 69.11 32.3099 62.94 26.1399C59.85 23.0499 55.8 21.5099 51.75 21.5099Z" fill="#1F1F1F"/>
<path d="M51.75 47.0699C46.37 47.0699 42 42.6999 42 37.3199C42 31.9399 46.37 27.5699 51.75 27.5699C57.13 27.5699 61.5 31.9399 61.5 37.3199C61.5 42.6999 57.13 47.0699 51.75 47.0699ZM51.75 29.0699C47.2 29.0699 43.5 32.7699 43.5 37.3199C43.5 41.8699 47.2 45.5699 51.75 45.5699C56.3 45.5699 60 41.8699 60 37.3199C60 32.7699 56.3 29.0699 51.75 29.0699Z" fill="#1F1F1F"/>
<path d="M40.1406 71.3C38.6206 71.3 37.3906 70.07 37.3906 68.55C37.3906 67.03 38.6206 65.8 40.1406 65.8C41.6606 65.8 42.8906 67.03 42.8906 68.55C42.8906 70.07 41.6506 71.3 40.1406 71.3ZM40.1406 67.3C39.4506 67.3 38.8906 67.86 38.8906 68.55C38.8906 69.24 39.4506 69.8 40.1406 69.8C40.8306 69.8 41.3906 69.24 41.3906 68.55C41.3906 67.86 40.8306 67.3 40.1406 67.3Z" fill="#1F1F1F"/>
<path d="M64.1406 63.3C62.6206 63.3 61.3906 62.07 61.3906 60.55C61.3906 59.03 62.6206 57.8 64.1406 57.8C65.6606 57.8 66.8906 59.03 66.8906 60.55C66.8906 62.07 65.6506 63.3 64.1406 63.3ZM64.1406 59.3C63.4506 59.3 62.8906 59.86 62.8906 60.55C62.8906 61.24 63.4506 61.8 64.1406 61.8C64.8306 61.8 65.3906 61.24 65.3906 60.55C65.3906 59.86 64.8306 59.3 64.1406 59.3Z" fill="#1F1F1F"/>
<path d="M35.1406 61.3C33.6206 61.3 32.3906 60.07 32.3906 58.55C32.3906 57.03 33.6206 55.8 35.1406 55.8C36.6606 55.8 37.8906 57.03 37.8906 58.55C37.8906 60.07 36.6506 61.3 35.1406 61.3ZM35.1406 57.3C34.4506 57.3 33.8906 57.86 33.8906 58.55C33.8906 59.24 34.4506 59.8 35.1406 59.8C35.8306 59.8 36.3906 59.24 36.3906 58.55C36.3906 57.86 35.8206 57.3 35.1406 57.3Z" fill="#1F1F1F"/>
<path d="M20.1309 48.3C18.6109 48.3 17.3809 47.07 17.3809 45.55C17.3809 44.03 18.6109 42.8 20.1309 42.8C21.6509 42.8 22.8809 44.03 22.8809 45.55C22.8809 47.06 21.6509 48.3 20.1309 48.3ZM20.1309 44.3C19.4409 44.3 18.8809 44.86 18.8809 45.55C18.8809 46.24 19.4409 46.8 20.1309 46.8C20.8209 46.8 21.3809 46.24 21.3809 45.55C21.3809 44.86 20.8209 44.3 20.1309 44.3Z" fill="#1F1F1F"/>
<path d="M23.1309 30.3C21.6109 30.3 20.3809 29.07 20.3809 27.55C20.3809 26.03 21.6109 24.8 23.1309 24.8C24.6509 24.8 25.8809 26.03 25.8809 27.55C25.8809 29.07 24.6509 30.3 23.1309 30.3ZM23.1309 26.3C22.4409 26.3 21.8809 26.86 21.8809 27.55C21.8809 28.24 22.4409 28.8 23.1309 28.8C23.8209 28.8 24.3809 28.24 24.3809 27.55C24.3809 26.86 23.8209 26.3 23.1309 26.3Z" fill="#1F1F1F"/>
<path d="M37.1406 22.29C35.6206 22.29 34.3906 21.06 34.3906 19.54C34.3906 18.02 35.6206 16.79 37.1406 16.79C38.6606 16.79 39.8906 18.02 39.8906 19.54C39.8906 21.06 38.6506 22.29 37.1406 22.29ZM37.1406 18.29C36.4506 18.29 35.8906 18.85 35.8906 19.54C35.8906 20.23 36.4506 20.79 37.1406 20.79C37.8306 20.79 38.3906 20.23 38.3906 19.54C38.3906 18.86 37.8306 18.29 37.1406 18.29Z" fill="#1F1F1F"/>
<path d="M67.75 77.5H63.75C63.34 77.5 63 77.16 63 76.75C63 76.34 63.34 76 63.75 76H67.75C68.16 76 68.5 76.34 68.5 76.75C68.5 77.17 68.16 77.5 67.75 77.5Z" fill="#E8444D"/>
<path d="M55.75 7.5H51.75C51.34 7.5 51 7.16 51 6.75C51 6.34 51.34 6 51.75 6H55.75C56.16 6 56.5 6.34 56.5 6.75C56.5 7.17 56.16 7.5 55.75 7.5Z" fill="#E8444D"/>
<path d="M70.75 14.5H66.75C66.34 14.5 66 14.16 66 13.75C66 13.34 66.34 13 66.75 13H70.75C71.16 13 71.5 13.34 71.5 13.75C71.5 14.17 71.16 14.5 70.75 14.5Z" fill="#1F1F1F"/>
<path d="M65.75 79.5C65.34 79.5 65 79.16 65 78.75V74.75C65 74.34 65.34 74 65.75 74C66.16 74 66.5 74.34 66.5 74.75V78.75C66.5 79.17 66.16 79.5 65.75 79.5Z" fill="#E8444D"/>
<path d="M53.75 9.5C53.34 9.5 53 9.16 53 8.75V4.75C53 4.34 53.34 4 53.75 4C54.16 4 54.5 4.34 54.5 4.75V8.75C54.5 9.17 54.16 9.5 53.75 9.5Z" fill="#E8444D"/>
<path d="M68.75 16.5C68.34 16.5 68 16.16 68 15.75V11.75C68 11.34 68.34 11 68.75 11C69.16 11 69.5 11.34 69.5 11.75V15.75C69.5 16.17 69.16 16.5 68.75 16.5Z" fill="#1F1F1F"/>
</svg>
