<svg width="90" height="90" viewBox="0 0 90 90" fill="none" xmlns="http://www.w3.org/2000/svg">
<circle cx="45" cy="45" r="45" fill="#D6E4ED" fill-opacity="0.6"/>
<path d="M68.75 78.5C68.58 78.5 68.42 78.44 68.28 78.34L58.49 70.5H31.75C29.13 70.5 27 68.37 27 65.75V58.75C27 58.34 27.34 58 27.75 58C28.16 58 28.5 58.34 28.5 58.75V65.75C28.5 67.54 29.96 69 31.75 69H58.75C58.92 69 59.09 69.06 59.22 69.16L68 76.19V50.15C68 49.74 68.34 49.4 68.75 49.4C69.16 49.4 69.5 49.74 69.5 50.15V77.75C69.5 78.04 69.33 78.3 69.07 78.42C68.97 78.48 68.86 78.5 68.75 78.5Z" fill="#1F1F1F"/>
<path d="M11.75 67.5C11.64 67.5 11.53 67.47 11.43 67.43C11.17 67.3 11 67.04 11 66.75V28.75C11 26.13 13.13 24 15.75 24H27.75C28.16 24 28.5 24.34 28.5 24.75C28.5 25.16 28.16 25.5 27.75 25.5H15.75C13.96 25.5 12.5 26.96 12.5 28.75V65.19L21.28 58.16C21.41 58.05 21.58 58 21.75 58H55.75C57.54 58 59 56.54 59 54.75V47.75C59 47.34 59.34 47 59.75 47C60.16 47 60.5 47.34 60.5 47.75V54.75C60.5 57.37 58.37 59.5 55.75 59.5H22.01L12.22 67.34C12.08 67.44 11.92 67.5 11.75 67.5Z" fill="#1F1F1F"/>
<path d="M75.75 56.5C75.58 56.5 75.42 56.44 75.28 56.34L65.49 48.5H31.75C29.13 48.5 27 46.37 27 43.75V17.75C27 15.13 29.13 13 31.75 13H71.75C74.37 13 76.5 15.13 76.5 17.75V55.75C76.5 56.04 76.33 56.3 76.07 56.43C75.97 56.48 75.86 56.5 75.75 56.5ZM31.75 14.5C29.96 14.5 28.5 15.96 28.5 17.75V43.75C28.5 45.54 29.96 47 31.75 47H65.75C65.92 47 66.09 47.06 66.22 47.16L75 54.19V17.75C75 15.96 73.54 14.5 71.75 14.5H31.75Z" fill="#1F1F1F"/>
<path d="M60.6094 24.0938H34.7344C34.3244 24.0938 33.9844 23.7537 33.9844 23.3438C33.9844 22.9338 34.3244 22.5938 34.7344 22.5938H60.6094C61.0194 22.5938 61.3594 22.9338 61.3594 23.3438C61.3594 23.7637 61.0194 24.0938 60.6094 24.0938Z" fill="#1F1F1F"/>
<path d="M48 29.0938H34.7344C34.3244 29.0938 33.9844 28.7537 33.9844 28.3438C33.9844 27.9338 34.3244 27.5938 34.7344 27.5938H48C48.41 27.5938 48.75 27.9338 48.75 28.3438C48.75 28.7637 48.41 29.0938 48 29.0938Z" fill="#1F1F1F"/>
<path d="M59.5 29.0938H53.5C53.09 29.0938 52.75 28.7537 52.75 28.3438C52.75 27.9338 53.09 27.5938 53.5 27.5938H59.5C59.91 27.5938 60.25 27.9338 60.25 28.3438C60.25 28.7637 59.91 29.0938 59.5 29.0938Z" fill="#1F1F1F"/>
<path d="M57.3594 34.0938H34.7344C34.3244 34.0938 33.9844 33.7537 33.9844 33.3438C33.9844 32.9338 34.3144 32.5938 34.7344 32.5938H57.3594C57.7694 32.5938 58.1094 32.9338 58.1094 33.3438C58.1094 33.7537 57.7694 34.0938 57.3594 34.0938Z" fill="#1F1F1F"/>
<path d="M61.2969 39.0938H48.4219C48.0119 39.0938 47.6719 38.7537 47.6719 38.3438C47.6719 37.9338 48.0019 37.5938 48.4219 37.5938H61.2969C61.7069 37.5938 62.0469 37.9338 62.0469 38.3438C62.0469 38.7537 61.7069 39.0938 61.2969 39.0938Z" fill="#1F1F1F"/>
<path d="M44.7969 39.0938H34.7344C34.3244 39.0938 33.9844 38.7537 33.9844 38.3438C33.9844 37.9338 34.3144 37.5938 34.7344 37.5938H44.7969C45.2069 37.5938 45.5469 37.9338 45.5469 38.3438C45.5469 38.7537 45.2069 39.0938 44.7969 39.0938Z" fill="#1F1F1F"/>
<path d="M18.75 33.86H14.75C14.34 33.86 14 33.53 14 33.11C14 32.69 14.34 32.36 14.75 32.36H18.75C19.16 32.36 19.5 32.69 19.5 33.11C19.5 33.53 19.16 33.86 18.75 33.86Z" fill="#1F1F1F"/>
<path d="M16.75 35.86C16.34 35.86 16 35.53 16 35.11V31.11C16 30.69 16.34 30.36 16.75 30.36C17.16 30.36 17.5 30.69 17.5 31.11V35.11C17.5 35.53 17.16 35.86 16.75 35.86Z" fill="#1F1F1F"/>
<path d="M16.75 39.86C17.1642 39.86 17.5 39.5242 17.5 39.11C17.5 38.6958 17.1642 38.36 16.75 38.36C16.3358 38.36 16 38.6958 16 39.11C16 39.5242 16.3358 39.86 16.75 39.86Z" fill="#1F1F1F"/>
<path d="M16.75 42.86C17.1642 42.86 17.5 42.5242 17.5 42.11C17.5 41.6958 17.1642 41.36 16.75 41.36C16.3358 41.36 16 41.6958 16 42.11C16 42.5242 16.3358 42.86 16.75 42.86Z" fill="#1F1F1F"/>
<path d="M16.75 47.86C17.1642 47.86 17.5 47.5242 17.5 47.11C17.5 46.6958 17.1642 46.36 16.75 46.36C16.3358 46.36 16 46.6958 16 47.11C16 47.5242 16.3358 47.86 16.75 47.86Z" fill="#1F1F1F"/>
<path d="M16.75 53.86C17.1642 53.86 17.5 53.5242 17.5 53.11C17.5 52.6958 17.1642 52.36 16.75 52.36C16.3358 52.36 16 52.6958 16 53.11C16 53.5242 16.3358 53.86 16.75 53.86Z" fill="#1F1F1F"/>
<path d="M72.75 40.61H68.75C68.34 40.61 68 40.27 68 39.86C68 39.44 68.34 39.11 68.75 39.11H72.75C73.16 39.11 73.5 39.44 73.5 39.86C73.5 40.28 73.17 40.61 72.75 40.61Z" fill="#1F1F1F"/>
<path d="M70.75 42.61C70.34 42.61 70 42.27 70 41.86V37.86C70 37.44 70.34 37.11 70.75 37.11C71.16 37.11 71.5 37.44 71.5 37.86V41.86C71.5 42.28 71.17 42.61 70.75 42.61Z" fill="#1F1F1F"/>
<path d="M70.75 34.61C71.1642 34.61 71.5 34.2742 71.5 33.86C71.5 33.4458 71.1642 33.11 70.75 33.11C70.3358 33.11 70 33.4458 70 33.86C70 34.2742 70.3358 34.61 70.75 34.61Z" fill="#1F1F1F"/>
<path d="M70.75 31.61C71.1642 31.61 71.5 31.2742 71.5 30.86C71.5 30.4458 71.1642 30.11 70.75 30.11C70.3358 30.11 70 30.4458 70 30.86C70 31.2742 70.3358 31.61 70.75 31.61Z" fill="#1F1F1F"/>
<path d="M70.75 26.61C71.1642 26.61 71.5 26.2742 71.5 25.86C71.5 25.4458 71.1642 25.11 70.75 25.11C70.3358 25.11 70 25.4458 70 25.86C70 26.2742 70.3358 26.61 70.75 26.61Z" fill="#1F1F1F"/>
<path d="M70.75 20.61C71.1642 20.61 71.5 20.2742 71.5 19.86C71.5 19.4458 71.1642 19.11 70.75 19.11C70.3358 19.11 70 19.4458 70 19.86C70 20.2742 70.3358 20.61 70.75 20.61Z" fill="#1F1F1F"/>
<path d="M41.53 67.5H32.75C32.34 67.5 32 67.16 32 66.75C32 66.34 32.33 66 32.75 66H41.53C41.94 66 42.28 66.34 42.28 66.75C42.28 67.16 41.95 67.5 41.53 67.5Z" fill="#1F1F1F"/>
<path d="M47.7491 67.5H45.5391C45.1291 67.5 44.7891 67.16 44.7891 66.75C44.7891 66.34 45.1191 66 45.5291 66H47.7391C48.1491 66 48.4891 66.34 48.4891 66.75C48.4891 67.16 48.1591 67.5 47.7491 67.5Z" fill="#1F1F1F"/>
<path d="M48.53 56.5H39.75C39.34 56.5 39 56.16 39 55.75C39 55.34 39.34 55 39.75 55H48.53C48.94 55 49.28 55.34 49.28 55.75C49.28 56.16 48.95 56.5 48.53 56.5Z" fill="#1F1F1F"/>
<path d="M54.7491 56.5H52.5391C52.1291 56.5 51.7891 56.16 51.7891 55.75C51.7891 55.34 52.1291 55 52.5391 55H54.7491C55.1591 55 55.4991 55.34 55.4991 55.75C55.4991 56.16 55.1591 56.5 54.7491 56.5Z" fill="#1F1F1F"/>
<path d="M23.75 19.5H19.75C19.34 19.5 19 19.17 19 18.75C19 18.34 19.34 18 19.75 18H23.75C24.16 18 24.5 18.34 24.5 18.75C24.5 19.17 24.17 19.5 23.75 19.5Z" fill="#E8444D"/>
<path d="M21.75 21.5C21.34 21.5 21 21.17 21 20.75V16.75C21 16.34 21.34 16 21.75 16C22.16 16 22.5 16.34 22.5 16.75V20.75C22.5 21.17 22.17 21.5 21.75 21.5Z" fill="#E8444D"/>
<path d="M20.75 69.5H16.75C16.34 69.5 16 69.17 16 68.75C16 68.34 16.34 68 16.75 68H20.75C21.16 68 21.5 68.34 21.5 68.75C21.5 69.17 21.16 69.5 20.75 69.5Z" fill="#1F1F1F"/>
<path d="M18.75 71.5C18.34 71.5 18 71.17 18 70.75V66.75C18 66.34 18.34 66 18.75 66C19.16 66 19.5 66.34 19.5 66.75V70.75C19.5 71.17 19.16 71.5 18.75 71.5Z" fill="#1F1F1F"/>
<path d="M39.75 76.51H35.75C35.34 76.51 35 76.17 35 75.76C35 75.35 35.34 75.01 35.75 75.01H39.75C40.16 75.01 40.5 75.35 40.5 75.76C40.5 76.17 40.17 76.51 39.75 76.51Z" fill="#E8444D"/>
<path d="M37.75 78.51C37.34 78.51 37 78.17 37 77.76V73.76C37 73.35 37.34 73.01 37.75 73.01C38.16 73.01 38.5 73.35 38.5 73.76V77.76C38.5 78.17 38.17 78.51 37.75 78.51Z" fill="#E8444D"/>
</svg>
