<svg width="90" height="90" viewBox="0 0 90 90" fill="none" xmlns="http://www.w3.org/2000/svg">
<circle cx="45" cy="45" r="45" fill="#D6E4ED" fill-opacity="0.6"/>
<path d="M74.75 74.5H14.75C14.34 74.5 14 74.17 14 73.75V29.75C14 29.34 14.34 29 14.75 29H74.75C75.16 29 75.5 29.34 75.5 29.75V73.75C75.5 74.17 75.16 74.5 74.75 74.5ZM15.5 73H74V30.5H15.5V73Z" fill="#1F1F1F"/>
<path d="M76.75 74.5H12.75C12.34 74.5 12 74.17 12 73.75C12 73.34 12.34 73 12.75 73H76.75C77.16 73 77.5 73.34 77.5 73.75C77.5 74.17 77.16 74.5 76.75 74.5Z" fill="#1F1F1F"/>
<path d="M76.7502 30.4999H12.7502C12.4202 30.4999 12.1202 30.2799 12.0302 29.9599C11.9402 29.6399 12.0702 29.2899 12.3502 29.1199L44.3502 9.11995C44.5902 8.96995 44.9002 8.96995 45.1402 9.11995L77.1402 29.1199C77.4202 29.2999 77.5602 29.6399 77.4602 29.9599C77.3802 30.2799 77.0802 30.4999 76.7502 30.4999ZM15.3702 28.9999H74.1402L44.7502 10.6399L15.3702 28.9999Z" fill="#1F1F1F"/>
<path d="M56.75 74.5H32.75C32.34 74.5 32 74.16 32 73.75V56.9C32 56.6 32.18 56.33 32.45 56.21L44.45 51.07C44.64 50.99 44.85 50.99 45.04 51.07L57.04 56.21C57.32 56.33 57.49 56.6 57.49 56.9V73.76C57.5 74.17 57.16 74.5 56.75 74.5ZM33.5 73H56V57.39L44.75 52.57L33.5 57.39V73Z" fill="#1F1F1F"/>
<path d="M58.75 58.5C58.65 58.5 58.55 58.48 58.46 58.44L44.75 52.57L31.04 58.44C30.66 58.6 30.22 58.43 30.06 58.05C29.9 57.67 30.07 57.23 30.45 57.06L44.45 51.06C44.64 50.98 44.85 50.98 45.04 51.06L59.04 57.06C59.42 57.22 59.6 57.66 59.43 58.05C59.32 58.33 59.04 58.5 58.75 58.5Z" fill="#1F1F1F"/>
<path d="M44.75 74.5H37.75C37.34 74.5 37 74.16 37 73.75V64.75C37 60.48 40.48 57 44.75 57C45.16 57 45.5 57.34 45.5 57.75V73.75C45.5 74.17 45.16 74.5 44.75 74.5ZM38.5 73H44V58.55C40.91 58.92 38.5 61.56 38.5 64.76V73Z" fill="#1F1F1F"/>
<path d="M51.75 74.5H44.75C44.34 74.5 44 74.16 44 73.75V57.75C44 57.34 44.34 57 44.75 57C49.02 57 52.5 60.48 52.5 64.75V73.75C52.5 74.17 52.16 74.5 51.75 74.5ZM45.5 73H51V64.75C51 61.56 48.59 58.92 45.5 58.54V73Z" fill="#1F1F1F"/>
<path d="M44.75 25.5C42.13 25.5 40 23.37 40 20.75C40 18.13 42.13 16 44.75 16C47.37 16 49.5 18.13 49.5 20.75C49.5 23.37 47.37 25.5 44.75 25.5ZM44.75 17.5C42.96 17.5 41.5 18.96 41.5 20.75C41.5 22.54 42.96 24 44.75 24C46.54 24 48 22.54 48 20.75C48 18.96 46.54 17.5 44.75 17.5Z" fill="#1F1F1F"/>
<path d="M69.75 68.5H63.75C63.34 68.5 63 68.16 63 67.75V58.75C63 56.68 64.68 55 66.75 55C68.82 55 70.5 56.68 70.5 58.75V67.75C70.5 68.17 70.17 68.5 69.75 68.5ZM64.5 67H69V58.75C69 57.51 67.99 56.5 66.75 56.5C65.51 56.5 64.5 57.51 64.5 58.75V67Z" fill="#1F1F1F"/>
<path d="M70.25 68.5H63.25C62.84 68.5 62.5 68.16 62.5 67.75C62.5 67.34 62.84 67 63.25 67H70.25C70.66 67 71 67.34 71 67.75C71 68.17 70.67 68.5 70.25 68.5Z" fill="#1F1F1F"/>
<path d="M69.75 48.5H63.75C63.34 48.5 63 48.16 63 47.75V38.75C63 36.68 64.68 35 66.75 35C68.82 35 70.5 36.68 70.5 38.75V47.75C70.5 48.17 70.17 48.5 69.75 48.5ZM64.5 47H69V38.75C69 37.51 67.99 36.5 66.75 36.5C65.51 36.5 64.5 37.51 64.5 38.75V47Z" fill="#1F1F1F"/>
<path d="M70.25 48.5H63.25C62.84 48.5 62.5 48.16 62.5 47.75C62.5 47.34 62.84 47 63.25 47H70.25C70.66 47 71 47.34 71 47.75C71 48.17 70.67 48.5 70.25 48.5Z" fill="#1F1F1F"/>
<path d="M58.75 48.5H52.75C52.34 48.5 52 48.16 52 47.75V38.75C52 36.68 53.68 35 55.75 35C57.82 35 59.5 36.68 59.5 38.75V47.75C59.5 48.17 59.17 48.5 58.75 48.5ZM53.5 47H58V38.75C58 37.51 56.99 36.5 55.75 36.5C54.51 36.5 53.5 37.51 53.5 38.75V47Z" fill="#1F1F1F"/>
<path d="M59.25 48.5H52.25C51.84 48.5 51.5 48.16 51.5 47.75C51.5 47.34 51.84 47 52.25 47H59.25C59.66 47 60 47.34 60 47.75C60 48.17 59.67 48.5 59.25 48.5Z" fill="#1F1F1F"/>
<path d="M47.75 48.5H41.75C41.34 48.5 41 48.16 41 47.75V38.75C41 36.68 42.68 35 44.75 35C46.82 35 48.5 36.68 48.5 38.75V47.75C48.5 48.17 48.16 48.5 47.75 48.5ZM42.5 47H47V38.75C47 37.51 45.99 36.5 44.75 36.5C43.51 36.5 42.5 37.51 42.5 38.75V47Z" fill="#1F1F1F"/>
<path d="M48.25 48.5H41.25C40.84 48.5 40.5 48.16 40.5 47.75C40.5 47.34 40.84 47 41.25 47H48.25C48.66 47 49 47.34 49 47.75C49 48.17 48.66 48.5 48.25 48.5Z" fill="#1F1F1F"/>
<path d="M36.75 48.5H30.75C30.34 48.5 30 48.16 30 47.75V38.75C30 36.68 31.68 35 33.75 35C35.82 35 37.5 36.68 37.5 38.75V47.75C37.5 48.17 37.16 48.5 36.75 48.5ZM31.5 47H36V38.75C36 37.51 34.99 36.5 33.75 36.5C32.51 36.5 31.5 37.51 31.5 38.75V47Z" fill="#1F1F1F"/>
<path d="M37.25 48.5H30.25C29.84 48.5 29.5 48.16 29.5 47.75C29.5 47.34 29.84 47 30.25 47H37.25C37.66 47 38 47.34 38 47.75C38 48.17 37.66 48.5 37.25 48.5Z" fill="#1F1F1F"/>
<path d="M25.75 48.5H19.75C19.33 48.5 19 48.17 19 47.75V38.75C19 36.69 20.68 35 22.75 35C24.82 35 26.5 36.68 26.5 38.75V47.75C26.5 48.17 26.16 48.5 25.75 48.5ZM20.5 47H25V38.75C25 37.51 23.99 36.5 22.75 36.5C21.51 36.5 20.5 37.51 20.5 38.75V47Z" fill="#1F1F1F"/>
<path d="M26.25 48.5H19.25C18.84 48.5 18.5 48.16 18.5 47.75C18.5 47.34 18.83 47 19.25 47H26.25C26.66 47 27 47.34 27 47.75C27 48.17 26.66 48.5 26.25 48.5Z" fill="#1F1F1F"/>
<path d="M25.75 68.5H19.75C19.33 68.5 19 68.17 19 67.75V58.75C19 56.69 20.68 55 22.75 55C24.82 55 26.5 56.68 26.5 58.75V67.75C26.5 68.17 26.16 68.5 25.75 68.5ZM20.5 67H25V58.75C25 57.51 23.99 56.5 22.75 56.5C21.51 56.5 20.5 57.51 20.5 58.75V67Z" fill="#1F1F1F"/>
<path d="M26.25 68.5H19.25C18.84 68.5 18.5 68.16 18.5 67.75C18.5 67.34 18.83 67 19.25 67H26.25C26.66 67 27 67.34 27 67.75C27 68.17 26.66 68.5 26.25 68.5Z" fill="#1F1F1F"/>
<path d="M76.75 20.5H72.75C72.34 20.5 72 20.16 72 19.75C72 19.34 72.34 19 72.75 19H76.75C77.16 19 77.5 19.34 77.5 19.75C77.5 20.16 77.16 20.5 76.75 20.5Z" fill="#E8444D"/>
<path d="M74.75 22.5C74.34 22.5 74 22.16 74 21.75V17.75C74 17.34 74.34 17 74.75 17C75.16 17 75.5 17.34 75.5 17.75V21.75C75.5 22.16 75.16 22.5 74.75 22.5Z" fill="#E8444D"/>
<path d="M63.75 12.5H59.75C59.33 12.5 59 12.16 59 11.75C59 11.34 59.33 11 59.75 11H63.75C64.16 11 64.5 11.34 64.5 11.75C64.5 12.16 64.16 12.5 63.75 12.5Z" fill="#1F1F1F"/>
<path d="M61.75 14.5C61.33 14.5 61 14.16 61 13.75V9.75C61 9.34 61.33 9 61.75 9C62.16 9 62.5 9.34 62.5 9.75V13.75C62.5 14.16 62.16 14.5 61.75 14.5Z" fill="#1F1F1F"/>
<path d="M23.7402 17.5H19.7402C19.3302 17.5 18.9902 17.16 18.9902 16.75C18.9902 16.34 19.3302 16 19.7402 16H23.7402C24.1502 16 24.4902 16.34 24.4902 16.75C24.4902 17.16 24.1602 17.5 23.7402 17.5Z" fill="#E8444D"/>
<path d="M21.7402 19.5C21.3302 19.5 20.9902 19.16 20.9902 18.75V14.75C20.9902 14.34 21.3302 14 21.7402 14C22.1502 14 22.4902 14.34 22.4902 14.75V18.75C22.4902 19.16 22.1602 19.5 21.7402 19.5Z" fill="#E8444D"/>
</svg>
